<mxfile host="app.diagrams.net" modified="2022-11-27T13:53:38.145Z" agent="5.0 (Windows NT 10.0; Win64; x64) AppleWebKit/537.36 (KHTML, like Gecko) Chrome/106.0.0.0 Safari/537.36 OPR/92.0.0.0" etag="8t_aq5F2N6V9436hRFeH" version="20.5.1" type="github">
  <diagram id="iaepHGHZAaNy_0gFSqwY" name="Pàgina-1">
    <mxGraphModel dx="1351" dy="1832" grid="1" gridSize="10" guides="1" tooltips="1" connect="1" arrows="1" fold="1" page="1" pageScale="1" pageWidth="827" pageHeight="1169" math="0" shadow="0">
      <root>
        <mxCell id="0" />
        <mxCell id="1" parent="0" />
        <mxCell id="__vURdTV-2RYgOJ8vVm3-67" value="º" style="shape=flexArrow;endArrow=classic;html=1;rounded=0;fillColor=#9999FF;width=153.79310344827587;endSize=44.27586206896552;endWidth=79.16765755053508;strokeColor=#E6D0DE;startArrow=none;" edge="1" parent="1">
          <mxGeometry width="50" height="50" relative="1" as="geometry">
            <mxPoint x="20" y="90" as="sourcePoint" />
            <mxPoint x="930" y="90" as="targetPoint" />
            <Array as="points">
              <mxPoint x="80" y="90" />
              <mxPoint x="510" y="90" />
            </Array>
          </mxGeometry>
        </mxCell>
        <mxCell id="__vURdTV-2RYgOJ8vVm3-127" value="Text" style="edgeLabel;html=1;align=center;verticalAlign=middle;resizable=0;points=[];fontFamily=Courier New;fontColor=#FFFFFF;" vertex="1" connectable="0" parent="__vURdTV-2RYgOJ8vVm3-67">
          <mxGeometry x="-0.5429" y="44" relative="1" as="geometry">
            <mxPoint as="offset" />
          </mxGeometry>
        </mxCell>
        <mxCell id="__vURdTV-2RYgOJ8vVm3-101" value="" style="shape=flexArrow;endArrow=classic;html=1;rounded=0;fillColor=#9999FF;width=153.79310344827587;endSize=44.27586206896552;endWidth=79.16765755053508;strokeColor=#E6D0DE;" edge="1" parent="1">
          <mxGeometry width="50" height="50" relative="1" as="geometry">
            <mxPoint x="883.13" y="450" as="sourcePoint" />
            <mxPoint x="10.000000000000004" y="450" as="targetPoint" />
            <Array as="points">
              <mxPoint x="170" y="450" />
              <mxPoint x="-260" y="450" />
            </Array>
          </mxGeometry>
        </mxCell>
        <mxCell id="__vURdTV-2RYgOJ8vVm3-51" value="&lt;font color=&quot;#ffffff&quot; face=&quot;Courier New&quot;&gt;DATA&lt;/font&gt;" style="shape=folder;fontStyle=1;spacingTop=10;tabWidth=40;tabHeight=14;tabPosition=left;html=1;fillColor=#0066CC;" vertex="1" parent="1">
          <mxGeometry x="143.73" y="67" width="110.00000000000001" height="90" as="geometry" />
        </mxCell>
        <mxCell id="__vURdTV-2RYgOJ8vVm3-9" value="" style="aspect=fixed;perimeter=ellipsePerimeter;html=1;align=center;shadow=0;dashed=0;spacingTop=3;image;image=img/lib/active_directory/router.svg;" vertex="1" parent="1">
          <mxGeometry x="319.99575893262534" y="217.99654464042484" width="50" height="38" as="geometry" />
        </mxCell>
        <mxCell id="__vURdTV-2RYgOJ8vVm3-18" value="" style="aspect=fixed;perimeter=ellipsePerimeter;html=1;align=center;shadow=0;dashed=0;spacingTop=3;image;image=img/lib/active_directory/router.svg;" vertex="1" parent="1">
          <mxGeometry x="619.9957589326253" y="216.99654464042482" width="50" height="38" as="geometry" />
        </mxCell>
        <mxCell id="__vURdTV-2RYgOJ8vVm3-20" value="" style="aspect=fixed;perimeter=ellipsePerimeter;html=1;align=center;shadow=0;dashed=0;spacingTop=3;image;image=img/lib/active_directory/database_server.svg;" vertex="1" parent="1">
          <mxGeometry x="880" y="205" width="41" height="50" as="geometry" />
        </mxCell>
        <mxCell id="__vURdTV-2RYgOJ8vVm3-26" value="&lt;font face=&quot;Courier New&quot;&gt;INTERNET&lt;/font&gt;" style="aspect=fixed;perimeter=ellipsePerimeter;html=1;align=center;shadow=0;dashed=0;spacingTop=3;image;image=img/lib/active_directory/internet_cloud.svg;" vertex="1" parent="1">
          <mxGeometry x="453.14" y="208.62" width="83.73" height="52.75" as="geometry" />
        </mxCell>
        <mxCell id="__vURdTV-2RYgOJ8vVm3-27" value="&lt;font face=&quot;Courier New&quot;&gt;Red Privada&lt;/font&gt;" style="aspect=fixed;perimeter=ellipsePerimeter;html=1;align=center;shadow=0;dashed=0;spacingTop=3;image;image=img/lib/active_directory/internet_cloud.svg;" vertex="1" parent="1">
          <mxGeometry x="730" y="207.65" width="83.1" height="52.35" as="geometry" />
        </mxCell>
        <mxCell id="__vURdTV-2RYgOJ8vVm3-41" value="" style="html=1;shadow=0;dashed=0;align=center;verticalAlign=middle;shape=mxgraph.arrows2.twoWayArrow;dy=0.51;dx=15.43;fillColor=#0066CC;strokeColor=#99CCFF;" vertex="1" parent="1">
          <mxGeometry x="95" y="220" width="75" height="40" as="geometry" />
        </mxCell>
        <mxCell id="__vURdTV-2RYgOJ8vVm3-42" value="" style="html=1;shadow=0;dashed=0;align=center;verticalAlign=middle;shape=mxgraph.arrows2.twoWayArrow;dy=0.63;dx=20.29;fillColor=#0066CC;strokeColor=#99CCFF;" vertex="1" parent="1">
          <mxGeometry x="250" y="220" width="70" height="40" as="geometry" />
        </mxCell>
        <mxCell id="__vURdTV-2RYgOJ8vVm3-43" value="" style="html=1;shadow=0;dashed=0;align=center;verticalAlign=middle;shape=mxgraph.arrows2.twoWayArrow;dy=0.65;dx=27.67;fillColor=#0066CC;strokeColor=#99CCFF;" vertex="1" parent="1">
          <mxGeometry x="370" y="220" width="90" height="40" as="geometry" />
        </mxCell>
        <mxCell id="__vURdTV-2RYgOJ8vVm3-45" value="" style="html=1;shadow=0;dashed=0;align=center;verticalAlign=middle;shape=mxgraph.arrows2.twoWayArrow;dy=0.53;dx=16.83;fillColor=#0066CC;strokeColor=#99CCFF;" vertex="1" parent="1">
          <mxGeometry x="670" y="220" width="60" height="40" as="geometry" />
        </mxCell>
        <mxCell id="__vURdTV-2RYgOJ8vVm3-46" value="" style="html=1;shadow=0;dashed=0;align=center;verticalAlign=middle;shape=mxgraph.arrows2.twoWayArrow;dy=0.65;dx=21.83;fillColor=#0066CC;strokeColor=#99CCFF;" vertex="1" parent="1">
          <mxGeometry x="810" y="220" width="70" height="40" as="geometry" />
        </mxCell>
        <mxCell id="__vURdTV-2RYgOJ8vVm3-47" value="" style="group" vertex="1" connectable="0" parent="1">
          <mxGeometry x="32" y="205" width="63" height="80" as="geometry" />
        </mxCell>
        <mxCell id="__vURdTV-2RYgOJ8vVm3-1" value="" style="aspect=fixed;perimeter=ellipsePerimeter;html=1;align=center;shadow=0;dashed=0;spacingTop=3;image;image=img/lib/active_directory/laptop_client.svg;" vertex="1" parent="__vURdTV-2RYgOJ8vVm3-47">
          <mxGeometry x="18" width="45" height="50" as="geometry" />
        </mxCell>
        <mxCell id="__vURdTV-2RYgOJ8vVm3-24" value="" style="aspect=fixed;perimeter=ellipsePerimeter;html=1;align=center;shadow=0;dashed=0;spacingTop=3;image;image=img/lib/active_directory/user.svg;" vertex="1" parent="__vURdTV-2RYgOJ8vVm3-47">
          <mxGeometry width="29.6" height="80" as="geometry" />
        </mxCell>
        <mxCell id="__vURdTV-2RYgOJ8vVm3-52" value="" style="group" vertex="1" connectable="0" parent="1">
          <mxGeometry x="156.87" y="73.5" width="110" height="97" as="geometry" />
        </mxCell>
        <mxCell id="__vURdTV-2RYgOJ8vVm3-50" value="&lt;font face=&quot;Georgia&quot;&gt;Ip Info&lt;br&gt;De:10.0.01&lt;br&gt;Para:200.10.10.1&lt;/font&gt;" style="html=1;shadow=1;" vertex="1" parent="__vURdTV-2RYgOJ8vVm3-52">
          <mxGeometry x="-13.15" y="-50" width="96.25000000000001" height="60" as="geometry" />
        </mxCell>
        <mxCell id="__vURdTV-2RYgOJ8vVm3-53" value="&lt;font face=&quot;Courier New&quot; color=&quot;#ffffff&quot;&gt;Dirección IP 10.0.0.1&lt;/font&gt;" style="rounded=1;whiteSpace=wrap;html=1;fillColor=#0066CC;shadow=1;strokeColor=#66B2FF;" vertex="1" parent="1">
          <mxGeometry x="30" y="285" width="100" height="55" as="geometry" />
        </mxCell>
        <mxCell id="__vURdTV-2RYgOJ8vVm3-54" value="&lt;font face=&quot;Courier New&quot; color=&quot;#ffffff&quot;&gt;Dirección IP &lt;br&gt;150.0.0.1&lt;/font&gt;" style="rounded=1;whiteSpace=wrap;html=1;fillColor=#0066CC;strokeColor=#99CCFF;shadow=1;" vertex="1" parent="1">
          <mxGeometry x="285" y="280" width="120" height="60" as="geometry" />
        </mxCell>
        <mxCell id="__vURdTV-2RYgOJ8vVm3-55" value="&lt;font face=&quot;Courier New&quot; color=&quot;#ffffff&quot;&gt;Dirección IP&lt;br&gt;200.100.10.1&lt;/font&gt;" style="rounded=1;whiteSpace=wrap;html=1;fillColor=#0066CC;strokeColor=#9999FF;shadow=1;" vertex="1" parent="1">
          <mxGeometry x="585" y="280" width="120" height="60" as="geometry" />
        </mxCell>
        <mxCell id="__vURdTV-2RYgOJ8vVm3-56" value="&lt;font face=&quot;Courier New&quot; color=&quot;#ffffff&quot;&gt;Dirección IP&lt;br&gt;10.0.0.10&lt;/font&gt;" style="rounded=1;whiteSpace=wrap;html=1;fillColor=#0066CC;shadow=1;strokeColor=#99CCFF;" vertex="1" parent="1">
          <mxGeometry x="810" y="280" width="120" height="60" as="geometry" />
        </mxCell>
        <mxCell id="__vURdTV-2RYgOJ8vVm3-10" value="&lt;font face=&quot;Courier New&quot;&gt;Red Privada&lt;/font&gt;" style="aspect=fixed;perimeter=ellipsePerimeter;html=1;align=center;shadow=0;dashed=0;spacingTop=3;image;image=img/lib/active_directory/internet_cloud.svg;" vertex="1" parent="1">
          <mxGeometry x="170" y="205" width="83.73" height="52.75" as="geometry" />
        </mxCell>
        <mxCell id="__vURdTV-2RYgOJ8vVm3-60" value="" style="group" vertex="1" connectable="0" parent="1">
          <mxGeometry x="440" y="60" width="110" height="97" as="geometry" />
        </mxCell>
        <mxCell id="__vURdTV-2RYgOJ8vVm3-61" value="&lt;font color=&quot;#ffffff&quot;&gt;DATA&lt;/font&gt;" style="shape=folder;fontStyle=1;spacingTop=10;tabWidth=40;tabHeight=14;tabPosition=left;html=1;fillColor=#0066CC;" vertex="1" parent="__vURdTV-2RYgOJ8vVm3-60">
          <mxGeometry y="7" width="110.00000000000001" height="90" as="geometry" />
        </mxCell>
        <mxCell id="__vURdTV-2RYgOJ8vVm3-62" value="&lt;font face=&quot;Georgia&quot;&gt;Ip Info&lt;br&gt;De:150.0.0.1&lt;br&gt;Para:200.10.10.1&lt;/font&gt;" style="html=1;shadow=1;" vertex="1" parent="__vURdTV-2RYgOJ8vVm3-60">
          <mxGeometry y="-40" width="96.25000000000001" height="60" as="geometry" />
        </mxCell>
        <mxCell id="__vURdTV-2RYgOJ8vVm3-63" value="" style="group" vertex="1" connectable="0" parent="1">
          <mxGeometry x="717" y="60" width="110" height="97" as="geometry" />
        </mxCell>
        <mxCell id="__vURdTV-2RYgOJ8vVm3-64" value="&lt;font color=&quot;#ffffff&quot;&gt;DATA&lt;/font&gt;" style="shape=folder;fontStyle=1;spacingTop=10;tabWidth=40;tabHeight=14;tabPosition=left;html=1;fillColor=#0066CC;" vertex="1" parent="__vURdTV-2RYgOJ8vVm3-63">
          <mxGeometry y="7" width="110.00000000000001" height="90" as="geometry" />
        </mxCell>
        <mxCell id="__vURdTV-2RYgOJ8vVm3-65" value="&lt;font face=&quot;Georgia&quot;&gt;Ip Info&lt;br&gt;De:200.100.10.1&lt;br&gt;Para:10.0.0.10&lt;/font&gt;" style="html=1;shadow=1;" vertex="1" parent="__vURdTV-2RYgOJ8vVm3-63">
          <mxGeometry y="-40" width="96.25000000000001" height="60" as="geometry" />
        </mxCell>
        <mxCell id="__vURdTV-2RYgOJ8vVm3-103" value="" style="group" vertex="1" connectable="0" parent="1">
          <mxGeometry x="710" y="380" width="110" height="137" as="geometry" />
        </mxCell>
        <mxCell id="__vURdTV-2RYgOJ8vVm3-98" value="" style="group" vertex="1" connectable="0" parent="__vURdTV-2RYgOJ8vVm3-103">
          <mxGeometry y="40" width="110" height="97" as="geometry" />
        </mxCell>
        <mxCell id="__vURdTV-2RYgOJ8vVm3-99" value="&lt;font face=&quot;Courier New&quot; color=&quot;#ffffff&quot;&gt;DATA&lt;/font&gt;" style="shape=folder;fontStyle=1;spacingTop=10;tabWidth=40;tabHeight=14;tabPosition=left;html=1;fillColor=#0066CC;shadow=1;" vertex="1" parent="__vURdTV-2RYgOJ8vVm3-98">
          <mxGeometry x="6.87" y="7" width="110.00000000000001" height="90" as="geometry" />
        </mxCell>
        <mxCell id="__vURdTV-2RYgOJ8vVm3-100" value="&lt;font face=&quot;Georgia&quot;&gt;Ip Info&lt;br&gt;De:10.0.0.10&lt;br&gt;Para:150.0.0.1&lt;/font&gt;" style="html=1;shadow=1;" vertex="1" parent="__vURdTV-2RYgOJ8vVm3-103">
          <mxGeometry x="6.8799999999999955" width="96.25000000000001" height="60" as="geometry" />
        </mxCell>
        <mxCell id="__vURdTV-2RYgOJ8vVm3-105" value="" style="group" vertex="1" connectable="0" parent="1">
          <mxGeometry x="440" y="380" width="110" height="137" as="geometry" />
        </mxCell>
        <mxCell id="__vURdTV-2RYgOJ8vVm3-106" value="" style="group" vertex="1" connectable="0" parent="__vURdTV-2RYgOJ8vVm3-105">
          <mxGeometry y="40" width="110" height="97" as="geometry" />
        </mxCell>
        <mxCell id="__vURdTV-2RYgOJ8vVm3-107" value="&lt;font color=&quot;#ffffff&quot; face=&quot;Courier New&quot;&gt;DATA&lt;/font&gt;" style="shape=folder;fontStyle=1;spacingTop=10;tabWidth=40;tabHeight=14;tabPosition=left;html=1;fillColor=#0066CC;shadow=1;" vertex="1" parent="__vURdTV-2RYgOJ8vVm3-106">
          <mxGeometry x="6.87" y="7" width="110.00000000000001" height="90" as="geometry" />
        </mxCell>
        <mxCell id="__vURdTV-2RYgOJ8vVm3-108" value="&lt;font face=&quot;Georgia&quot;&gt;Ip Info&lt;br&gt;De:200.10.1&lt;br&gt;Para:150.0.0.1&lt;/font&gt;" style="html=1;shadow=1;" vertex="1" parent="__vURdTV-2RYgOJ8vVm3-105">
          <mxGeometry x="6.8799999999999955" width="96.25000000000001" height="60" as="geometry" />
        </mxCell>
        <mxCell id="__vURdTV-2RYgOJ8vVm3-110" value="" style="group" vertex="1" connectable="0" parent="1">
          <mxGeometry x="156.87" y="380" width="110" height="137" as="geometry" />
        </mxCell>
        <mxCell id="__vURdTV-2RYgOJ8vVm3-111" value="" style="group" vertex="1" connectable="0" parent="__vURdTV-2RYgOJ8vVm3-110">
          <mxGeometry y="40" width="110" height="97" as="geometry" />
        </mxCell>
        <mxCell id="__vURdTV-2RYgOJ8vVm3-112" value="&lt;font face=&quot;Courier New&quot; color=&quot;#ffffff&quot;&gt;DATA&lt;/font&gt;" style="shape=folder;fontStyle=1;spacingTop=10;tabWidth=40;tabHeight=14;tabPosition=left;html=1;fillColor=#0066CC;shadow=1;" vertex="1" parent="__vURdTV-2RYgOJ8vVm3-111">
          <mxGeometry x="6.87" y="7" width="110.00000000000001" height="90" as="geometry" />
        </mxCell>
        <mxCell id="__vURdTV-2RYgOJ8vVm3-113" value="&lt;font face=&quot;Georgia&quot;&gt;Ip Info&lt;br&gt;De:150.0.0.1&lt;br&gt;Para:10.0.0.1&lt;/font&gt;" style="html=1;shadow=1;" vertex="1" parent="__vURdTV-2RYgOJ8vVm3-110">
          <mxGeometry x="6.8799999999999955" width="96.25000000000001" height="60" as="geometry" />
        </mxCell>
        <mxCell id="__vURdTV-2RYgOJ8vVm3-114" value="" style="shape=image;verticalLabelPosition=bottom;labelBackgroundColor=default;verticalAlign=top;aspect=fixed;imageAspect=0;image=data:image/png,iVBORw0KGgoAAAANSUhEUgAAA3YAAAEpCAYAAADf6rCGAAAAAXNSR0IArs4c6QAAAARnQU1BAACxjwv8YQUAAAAJcEhZcwAAFxEAABcRAcom8z8AAP+lSURBVHhe7J0FvFXFE8f5292tGCiggKAgJhKCqNgYKIKiqIidgIVKC5IGioCkNEpJd3cjHdLdDW/+8509e999j4uKIjx05/N+756zZ8/W2ZjZnZ1Nt3vnDknau2cfiCTJ7l07ZdeO7ZKUtFd28hs927tnt/3u2b1Ldmzbave7NBx+gT408NzC0mvv3997t/j7gICAgICAgICAgICAgANHOgQxBDjwZyheiNuT6h0ENwtHA+baoPdJe52w5wW5eIEu/jogICAgICAgICAgICDgwJEOocoLd927dZXaX9SSr776UhrUr2f46ssGUr9eXWn4zTeyYMF8J8Cp/7179sjy5cvU/Wtp+PXXsnjxYtmtgtzO7dvMjyfCJ2y/WkdcgMi5x93fBwQEBAQEBAQEBAQEBBw4bMWOi6S9e6VkiRKSLl06Oep//7PfeBx11FFSsGBB6dq1SySyiQwdOkSOO/ZYOfOMM6RXr57mhmBXpXJleeH556Vzp46mxumFOZB6dY7n8fcBAQEBAQEBAQEBAQEBBwZbsVPpym6eLfWMnHD88fLiiy/KyBHDZdSIEfo7Qvr36yvFihWTY44+WvLnzy9z5841IW7DhnUyZfIkw9o1q80NynLNNSYM1qheLXJJ0uAjlctElCpRAQEBAQEBAQEBAQEBAX8e6fweOIykPPP003LsMcfI+xUqRBJXMrVs0UIuOP98uebqq2XokMHmtmP7Vlm/drWsXb1Stm/dIju3bZV5c2bLjblzy9lnnSUfffShrFyxTHbt3C5JtjK4R1atWC7z582VBfPnyfy5c2TLpo0WlrAPLyAgICAgICAgICAgIOCAkS5pzy672Lt3jzxbqpQcd9xx8knFik7YiqMvv/xSTj31FMlxXQ4ZO3aUuU0YP06uuOwyyZEjuwwfNlSmTZ0s1157rZx26qlyxeWXyyknnyz33HOPzJk1S7Zv2yaNGzWSwncVlhNPPEFOOO54ueqqq+Tjjz+WxYt/s/B8WgICAgICAgICAgICAgL+PJxgJ1ix3GkrdghjjxQtKs1+aCrNm/8gLVq0kEbffSu5cuWUSy65WMpXKC+rV680QWz0qJGxVbzhw4fIksWLpWqVSiqwXSkXXHCBFLzjDvn6669k7Zo10rxZMznzzDPlygwZ5I03XpN33nk7prL55BPFZPOmTbJX07KXFcTdkbCpaQrCXkBAQEBAQEBAQEBAwO9DBbtkgyas2J1+2mly6imnpDCcAo477ljJli2b9Pilhwl10JjRo+WySy+VzJkyS//+/SNXkdtvzyMnnXyS1K9fL3IRubdIETn+uOPkzkJ3yupoP167dm1t794bb74hs2fNNLcd27fZmXkYWsGaplfhDAgICAgICAgICAgICEgMt8cO4Ump9HPPmZXL4sWLS98+vaVf376Gvr17m8rkFVdcIXcWLmwrddBI/b388ssl27XZpF+/vua2dctmyX3DDWYps9Jnn5pb0p49KsA9LiedeKIJgnfeeac8pXHUq1dP+vTpI8uWLZUtmzZZOvzxB/54BATOgICAgICAgICAgICAgP3DWcVU2rVzl5R65hk5/vjjpUL58uYWT4sWLZL777vPVu8qV64kSUlJMm7cWBPUsl97rQwZMsT8YYQF4yknn3RSTLCDJk2eJI8+8ohkyHCFXHThhWZh89xzzpEc2bObWub6detEJToT6khYEOoCAgICAgICAgICAgL+HOwcO4Q0zrF77tlnbY9d+XLlZM8eVsxYOdtpgtm2rVulxFPF5dhjj5XXXn3V1CQnTpzgVDEzZ5ZBAweaP1baWLE75aSTpW7dOua2ccMGmTFjhgwbOlS6desm1atXlwfuv09uvukmW9m7/LLLpEP7dubXr9gh2LHnzic0ICAgICAgICAgICAgIDGcYKdCFAeFs8eO4w7KJzjuYN7cOZI1yzVy3LHHSd06TmAbN26cCXYYTxnQf4C5IfDdkCunnHDC8fJ5jRrmNnnSJMlw+RVy3rnnStOmTc0Nmjp1qmTRMM85+2xp0qSxucWrYu7etSNhogMCAgICAgICAgICAgKSkc4uOEBcf1mxY49dgQIFpFbNzxU15YtaoJYUL/6kqVcWKVJEfv11hglhCHbpL7nEBLtBgweZ2/ZtW6VA/vy28sdvmzZtZPmy5fLKK6/I0UcdZZYwq1atLPXr1ZOyL5W1oxFuvvFGO9suXv3SBLzdTi0zICAgICAgICAgICAgYP+wFTu9slWy50uXNsEOoYy9dP9TsILHNfvh3n77bZk0caIJcCoJyrDhw2zFjrPr+vR1xlP27NkjderUlaxZs9p7t912myyYP1/Wrl1rqpmFCxe2s/J8mGVfflkGDxxghlP2qjBHWkiYrSKGfXYBAQEBAQEBAQEBAQF/CFuxY38dgt2M6dNk1MgRMmHCeNs/N3rUKBkzaqTdT540UbZt3WLC244d22xFbcP6dTJuzBiZOmWyXq+XXTt3GDZv3iSzZs2UcWPHyK8zpsfeI67ly5Za2Dzjva3RMy/E8UtaQBDsAgICAgICAgICAgIC/hhmFRPs3sVq2R+QvsAeur17I6ELxBHCGIJdasKd9zQA55CK4o2kpBbognAXEBAQEBAQEBAQEBDw+0jHyptfsfPgAb+7dm5X7NRbBLgk2bM7+Xw59r/5A8RNGFNwJh7vEp5Z04yLyL/HO1yjysm+Pty88BZ/neg+ICAgICAgICAgICAgYF/YHjuAUGbCF9cqlOG2e+cO2b51c+zgcHeYufOjHvR9fVfdObtOHQ3mhxU9/ERu/powiZR7W8HzYURh2sqdCXLJ4Hn8fUBAQEBAQEBAQEBAQEBKpEMQ26uC3K4d20xIS1Ls3L5VBSyEt0ioQvjatUMvEeSc/2QgjCHIud89Kgw64c8j2a+PK4nrndvterf+8p5GkOq9ZLjnAQEBAQEBAQEBAQEBAYmQjn8ITwhZ3vH3hCn/zAtd+/hNSuk3tb+Yf/XHdXy8HjE/AQEBAQEBAQEBAQEBAX8IE+wc3Mrcvtf/NA5lXAEBAQEBAQEBAQEBAf8+uAPKAwICAgICAgICAgICAo5YBMEuICAgICAgICAgICDgCEcQ7AICAgICAgICAgICAo5wBMEuICAgICAgICAgICDgCEdKwW4/FA4JPwBQVvtQ0r7+AlIg9cH0/nq/FOpkwGFCrH7GU+rntPmElPb7goRtMZ6iZzHsL692pk4qvwEBAWkOCdt5HPE8vl+IIZ70PqGfgICAQwoT7PZaY0xSXnm3rFixXKZOmSQzpk+X5cuX6WMOKt8pu3buMNBw/UHjAQ6c7+fLZc+uXbJjx3aZ+esMmTRhvMyfN1d2bN+mz9WvMkCh49sXlAmH3Nuh+Lt2GjgQH9q+bassWrhApk2dIlMmT5L169a5d6Iy92EEBPyToK7t4QxO/d2u7ZkzORcsmC+zZv4qG9avs7rLM0D95X79urUya9ZMmap1d87sWbJt6xar00kaHn4INy3Ap91fkzbuGRfou3D7bdFCma152bRxgz5z71EGnlYsX65tdKpMnzZVli5ZrC4Ie0lROw4TWwEBaRnwdrRzrpcuWaJj7URty1Nk2dIlsps2HOeHNs3v3j17ZIP2cYzNSxb/Zu67lf+JDzcgIODQI91ezoxjANZG2qZNG8mfP78cc/TRcvzxx8u9990nv/zSwxiRXSrc+QHfMwEBDnRyO1UwMWZNqWvXrnLppZfKSSeeKMWLPyWrVq40991xgrHvRAOS4QcMvTEs/m2RfPTRR3L11dfI0UcdZeVZskQJ6dWrl9XXRGEEBPwToN1SP52gIrJyxXLJmy+fZMuWTUaOHGluTDYwQQYNGz5Mnn/hBTnvvPMkXbp0csH558t75crJuHHjVGBS4UnDSQv9qO+P6OMtb5Gbn8iDmFx54IEHJFOmTNKzZ09z83541q17N7nn7rvlRG2fR/3vf3JbnjzSqlUr2bbNCYX0ez5cfgMCAtIWaP8b1q+VJk2ayE033mQ84IknnCB33nmnNGjQQNatXWPt3vquuAmdZs1+kLPPPlvKlS8f6y9COw8IOLxIZ7MxSl26dJGMGTNJrpw55dNPKkq5996VLFmzSI4cOWTgoIHmx2aao0E6IBmUCwwOwu+6deuk2OOPy6mnnCInHHecFH+yuGzZstnKb4f68YyUYxDDTLYHs/9uwHCMMasbpUuXljPOOENuV0axRo0aUuqZZ+SsM8+UvHnzynhlkB0THcow4J+HMSsRbd68WRo2bCgXXXihZM+eXcaMGaOuSbI36kunTpki+fLnl3OU4XmqeHGpWrWqFChQwISep59+WlatWmH+UsdxuEDe4vslgKYGtGPHDmnz44+S/pJL5Morr5Q+ffqau/nfu1fad2gvl192mQl9H330oVSpUkXyaftMnz69tGrZ0vz6CUH9FxAQkNagRJtv3ryZnH/eeZLlmmukQoXyxgdefvnl6na+VKtW1SajTLsrosmTJ8n9990np512qnz44Ye2ug+Fth4QcHiRjoa4fv06ebZUKflfunTSoEF9a5xQxYof22zzW2+/FakROXXNRAH9l2EMkTIvdHp169aVS5WpKaCMHULIk08+IZs2bnQFqn7x51SYgkASD2MoPQOoNHLkCGMkL1GGsnv3bua2etVKufWWW+Skk06SWjU/N7fU4QQEHHTYZEOSzJ49S6pUriRPPPGECTKnn3qq3HDDDTJ06FCriviB+alevbr1m6xyrVm9yp6gDZEvXz757LPPZNmypeaWMK5DjNgkU3S/a+d2m6havHiR5aNo0aKSLWtWOVv7Mib5+vfv59KueV29coXcd9+9cvxxx9nKuqcBA/prGz1RHn/8cdmwYYO50a7j4wkICEgjUEJtPE+ePKYZ88ILL5gb9Prrr8sx6nbXXXfJElOxdn1Z6dLPyS033ywXX3SRTXCxYmdbTjS8INgFBBxemGA3adJEuf766+WMM06XEcOHWeOFmKll0EY9E71rfcNeCsJdMujEUMOEfv11htx8003ymDI0n1WqJKefdpoxN16wwy+z17YylSCs/zooH6tbSr379DGh7uqrr5ZRo0aZG4TAzEDzwQfvO4cE4QQEHHQoDde+kdls2jUrWEzc5M6dW0aPjuqn+lutgtx9991nDFLdOrWdu9LmTRtl3ty5th/PJslSh3+YQJvz/VJMyFMaP36c5MqVS84+6yzJcMXl9psje3YV2pIFu19nTLfVOlbn2rVrG3NfuGC+ZMmSRbKqQDhsmBtPCDeMGwEBaRBKq1asMK0YBLRu3bqaG1StWjVTyYQHnDt3jrkh7KGRdN6555pgR9/w9rvvGh9kK/3an+wTR0BAwCGDCXZ9+/SWM04/Qy666EIz+OHplx7dbDbmwvMv0EF8hnPUhpvEvjxrwAEgKSlJO7Vt8uabb8i555wj3bp2kVq1alnnx+z+5o1u1hpVLfbhoM66ZxcqrdoBJgjvvwbqE+XBr9Ut2Wubth968EGtl6fLG6+/JosWLZKfu/ysgl5mHWTySb9+fa3cE4UXEHCwQb3ctmWzLFuy2GauO3XqaMIdq1ijR7k9dupRhbfZcpkKO2cps9O5YwfZuBGBbo6sXB6t0intxCDJbiZ3Dn/7pz+ylXLNH/utd27faunbrsLniuXLbHURRu+qK6+0tpcs2InMVMHuggsuMHWtn3/qHLmKLPltkVx7bTY55eSTpV2bH81t987tCeMPCAg4vGDChfa5fetW2bZ5k2AkauXKlTJwQH+5+eab5EJt4++/XyHaZ5ck6/V38eLFMmvmDClZsoScfOJJUr5CBdlqW072WJ+SKJ6AgIBDAxPsuinDzKxMtmxZZSJ7lyIaNXK45L4xt6nhDB/m1I28cJI6oP8sYM6Uhg4ZrILxRfL886Vli3aOderUkZOVsSle/EnZuGGd+fEMVMJwAmLCnSTpvVLPnr/YzD9qXQwe1NELLjhfqlWvZs/N8A9+E4QVEHAw4eqla+sQwpztsbv2Whk2dEjkqn3miOHGCLFa9cknFeXOQoXk6KOONsGobt06xgzBHJlglyCewwXyB3PHL+1w1w63XwaaMW2aqUVnzpxZ+vSOjKck7ZW1q1fYnuyTTzxRqlatbO7Q8CFD5Pzzz5Pjjj1WGn3X0NwI1/YgJog7ICDg8MK1fb1WwjAUqpeokx9/7HFy2623yoTxji9MshV9VNOhJHnrrTfl2GOOkY8//tgsW7NaYJPWCeIICAg4NDDBrkfXLnLCcccrM5IlxYrd2NGjzOrbmWeeIYMHDTA3BmhjchIE9p+E0vq1q+Whhx6yGfwhkaGZqtWq2l6wYsWKmaBnS6TROzB1oQzjoGXBKibYu9sZ51m+bKmUeamMGaAoeMcd8s4770jxp4obMw2T/GPr1lrKqAaHVc+AQwNrs5FwN3jwILnwwgtUsMsuoyKrmNDwoUNNsDvnnLNt1aqs1uH33ntX8ufLZ4JOmTIvyMb167SKa5hHwqSE0rixY+WKyy63fYX9+0XGU/a4I0kaNfpOTjnlZFNRraeCa4vmP8g999xjRhjIb4P6bs+2U9EKCAhIa9gbTajaqt22rbZ3tn79OvJK2ZfkRib2zzpLypV7T9avX6/tmBU5J9xhDK5MmRdNsKtQoYLsRqBjTE4QR0BAwKGDCXa/9OguZ55xhlx11ZUyaeIEnIxQ0cxwZQZjUiZH7o4hUeYmQIE+a5K0bfOjmfz97NNPrYygBl82sP2JTz31VGzfCjNapoalHSPqDonD/O+BwQJTyZSTt8bXsOG3WqZnmarbiBEjzI29io8/9pjtsStcuLCsWeUMUyQKMyDgYMPVTW3zSkMGD7ZJBuonhn48/Tp9mrlzNEftL2pFriK9e6PufrrtGx2iQqGR7UVJ41DCAu0Vl19hK3Yx4yn6DCvAnGv3zTdf2348ZvjTX5penn3uWbn11ltNsGva5HvnXcuOdr5P+AEBAYcVeyJBzfVtfjXO0U8/dTbBDvXyXr/8Ym6uH1TBTnmZMmXKWDuv8P77shuexjwkjicgIODQwAS7oUOH6MB9uZ21xOyspw7t28lZZ51peysWLVpobuhjh03wEYySzHoc++lQWShRsoQ89uijZlSBzcXXXH213KVCyLhxY81qJkYKnFCXILz/MrQc92i9MsMySm+//baccMLxckfBO2Tlysg8vFL9+vVsFe+22/LIDL/vM1F4AQEHGSaYRIxPTLDLnj3ZeIoSZy/mvuEGq6M9enQ3N96b+esMyZQpozFBrVq0MHcLK0E8aQpKKQW7/uaGWqVTvXLlgSEVzjydOHGCzJ49W2688Ua5VIU81KmhYDwlICANIurPmDx9/LFH5Z133pbp06eZG7Ro4QKz8s2kTdPGjc3N9YOSQLBzE9j7xBEQEHBIYYLd8mXL5MEHHzRLbm3beutmIrVrfyHHHH2UlCxZ0m2cjV5yM6/7BvafgxJ7Tb755htTRUI4phNEJROmD5UswGooq5+QbVRGZSF1WP9xUC4wfwh3SXv3at2rbeWW8/rrZdq0qVZ20AsvPG9Mc6FChWTp0rRjNj7g34+Egp2t2CWrYm7atFHeeOMNW51r0aJ55MqevFGSIUMGO7C8VyTsHBH9qFIiwQ7DRaiYd+jQQRp9/71MnjTR3KFu3btb2XB234IF883NtBYShR8QEHD4ENefYeyIc2Pbt29vbtDYMWPM8iWT1J07dTQ3eB4oCHYBAWkT6Xwjrfn553KsNlD2hI0bM1oGDhxgJm5Rh3MMijvDLgh1qaDlgflyzJiDzRs32m/FihVtFe/RRx+V3xYttE4Pc8B0hpSjM/yRILz/KJzAy2qdG2hYBYFpZrB55ZVXZMrkSdKufTtTCTnt1FPtvECjBGEFBPwT+CPBjjoM9evbR84/71zJmy+vDBwwQCZNmmT77NiL8swzz8iaNavNX+rw0ySUEgl2EOrTn+u4ccrJp9i+uqFDhshoLYsHH3jA9hdXqVJZ+z1XJkGwCwhIo9A+jUkato0gpN19990yQNs5x2AhuGG0DOveWKqGrJ/T94JgFxCQNpGO1SNWSRb/ttgMVJxzzjm27H7U//4nGa7IYGebwIiwigJj4xt1gANlYipJEcPn6ZNPP7VyvPfee2W7doAQfn0ZOsFO30kQ5n8RlAuCnSujvbJ92zZp07aN3HLzLXKqCnLURw7Qh5H+8MMPZMOG9fpeKL+AQwfqpl5YW+7fr5/tob00/aWxA8rdHtG9snXrFqldp7bVVZge+gEEneLKOE2aPMn8WlgJ4khzUGK18fTTTpdzzz1XevXqZW760Iwdzfp1hpQtW9aMpZBPkCljRhVk37PjEpg4ZA+PHXx+pOQ5IOC/hKhPmzhhgrz26qty2WWXxtoyYy9n8bJyR/tlO4mfwMLQSvHiT5m/115/PQh2AQFpBOkwcYtBD2jzpk3SsWNHqVa1qtSqWdP2TNB4oSDQ7QfaKVI2zviHO+SX6yFDBkvVKpWlQ/v20QHmQQjZH2zAsBn9JL2O9nBGNHHSRGnSuLFUrlTJ6uWIkSNkm9XJvVbO+lKKsAICDjqiNu4EN4wN7LZDuD+vUUO+/uor+e23RerF1UNfd/lFIGpQv57UqF5NmjRpIqtWrbRnPrwjQtDRtDJTX7dOHWnQoL7MnzfP3PwziPbYSceNypU+0zKpbge5e7Jys0ksN6mVIuyAgIC0AdqmEm25a5cuUqVyJeMBf/jhBzvLErK+T/tAt/qeZBOxXbt2kUqffSp9+/aJ+r4wHgcEHG6k419swI0G6n0o7oWAfWEdnZadrX7adWoKnd0fwQaF6Df+OhF5P95fQMA/DfpI6psxNpGBn3iy8z3VD/AGgBJSgrDTPFLTHz33lNpfQEBA2sZ+iElUs4apfrZv3RL1gan4xdRhBQQEHBaYYKcci60qAZgXPzPjGZWAP4YTNFyZoZppVuOsM0zsPyAl9J+VoTsOwg0guHtm2j/37jDP3MeHERDwT8LXOb2J1T1+/TXu/NL+/WSPfzcgICDgSMTePcn8oJ/YssPMtb8LCAhIezCrmIECBQoUKFCgQIEC/RGZVkIChjIgIODwI93s2bOkV8+eZgygf7++9jugP9fuN+CP0b9vX+mn4ADP3r16ycAB/RP6C/h9DOxPufW3oyEwCc8vdbJP715WrhyO3E/dsDoY6mfAoYbvI6mD9qv1kL7Tnmn7792rp9VT7kMfEBAQcERD+7u+OvZybf1d1OctW7rUjKgkYigDAgIOP9I98OCDZpYfi4PeElLAXwPHRWAaGCR6HnBgOOp/R8nRRx8V6mdAmgWm/o8/9jitn85qayI/AQEBAf8GcD4nhqCUe3RIQsALCAhIS0h3zjlnS5F77pEfW7WUH5o0lh+aNpbvG33nrgP+GFpeoFmzZtLwm6/tMPca1arafVOeJXonYB80bfK9NPuhiTRr2kSafN9IWrZoZr+vv/qavPJyWWnz44923xS/jbW8f2iaMJyAgH8K1E/aOnXQ6mjLlmYRjjb/zVdfSasWzbVufm91uXmzUD8DAgKOfNDfcZZxxY8+kkyZMskXX9RyDKTsxWpUQEBAGkO6E044QV568UXUpgP9Tdq5favUqlVLFsyfG7kE+ruE6eXWrVpGd4ECpS0aP26sNGjQQK/2Y1E4UKBAgf4FNG3aVLkh9w1So0Z17e5UqAuCXUBAmkS6k048UUqVfNq1XHVI4swh9KdTeQz4AyitXrXSDiafOmWy3Sf0F7BfUPdc/dN7ZgT1t0XL5vL9941i5ektcqXwGxBwCODrm6uDWL0UGTpksFSpUkU2b9qgdyrcRf727t6Z4t2AgICAIxZKo0eNlOuuy2Hnd6qjQyK/AQEBhxXpTj7pJCn1zDPWcJmFwaSt34AXcABQWr16lXz62WcydeoUu0/oL2C/8OaV7T4yFd+yVUsV7L6PlWfqYzhwCwg4FPD1zddBaOjQIVK1alUV7Dbavffnj0UICAgIOOKhNGr0KBXsrpPPP/+cjs7cEvoNCAg4rAiC3cGCUhDs/h6oe7H6FwS7gDQGX9+CYBcQEPCfglIQ7AICjgwEwe5gQSkIdn8P1L1Y/QuCXUAag69vQbALCAj4T0EpCHYBAUcGgmB3sKAUBLu/B+perP4FwS4gjcHXtyDYBQQE/KegFAS7gIAjA/+oYEdY+w3v954diVD6q4JdWi6HlGn7Z78ZYcfCT2uCXZSefdzTGA55uaQh/NP59uEHwS7gn8LBrsP/dJsI+I9AKQh2AQFHBv6yYJeIedmrDE+82+6dO2T3rp0GmCHvzrtYluM513918PHv+veJ28fP784d22P+uPe/3s0j/r2/DKU/L9glaXyUlSsTyic+Xcn+Di9I057dO/XSldPuXTtkl36zeD8HghRlrQODyzdloINE9DyW/8Mk2KUO08dDmsm7r8e4xRj8yG8sb9F16rAOFuLj8Wnzz3x7S+2e1kF6PTThCf3sA60jfAPLr977fO/j7yDBhx377kpBsDu8oJx9m/TfhXEoaa+2v7jnuB+u70L8Po1Wb+Kexadpr17/3TpMWPRT5N/HixtIEVd0z/X+wHP/Tvx78b/xfuKvGdt5TvzkCbfUfnjur/19QBqFEoLd9ddfHwS7gIA0jr+9YucHotRILVThj3vfuXMd/9zfHyjcIJYcLwNJ/DVhG0MexRHvl3uEFZ8m7/aXoHRAK3YwpVompJFrH79Pf8zfYQJp8GVLmhDw3O/fSF/EiAPK3MKy35Tfxvvl+lALdinqAoOXuvGddmzbam4897A6HZcnny+fLu75Pdjw8XMdS2t0za9HfN2Od0+LiE8j1zYpFNU/754aPPNlTvvm1/cz/wR8WojTrpWCYHd4EV9H4n937dzuvoG2T6sfUVs8HN/G1RcXp6ujmmb95Zr0+DTFA78HCh8W/Tb5xy11eDbmRG6ky5fL78GOl9FwY/d67duAD4fxnmufBu/Or7+mbRI/94QDfDh6E3MLSINQCit2AQFHBv7Wih2dNIMIZJ22dtL60J7tjrvm10jf850/1x5/Ns5EMOFDf21w2b4tissNErgz4PhBxQYUSN3ddTJTThriB5wDhtKfFuw0Xht8EX7jyKdjH/+HCxH5gZ2ZcNKoLin9/RlEefZl7ISiOFI34ojlX/1zfSgFO9IWy58S9xZHRD4+78ff+/f8jLvlLXI/2GkEhOnLkWsPdbB0+DIiPfF+0zKsTPWX9FpZappj9YXvkco/bt6P5V+vuQdWFqn9HwT4cH35QkGwO7yI/9aU+batW1zZR+TbI2OB92N1LVGd+kfh+gtAeiwd+htrq3ofj+T3/jx8+EAdrG3s0DHR7vW5xanxMTZ77Zr4stkXyW2MtMY/82HF0hqVJ/fx8XnE/CjxXuxddcO/7zMD0iiUgmAXEHBk4MAFO23QzJI6pssNIA4SE6IIw4Q+L7jYeykFFzp137n/YZz7gX/PDxQ2SDEzquQHFB+HCX3qnwHN3tc0kz4bXPV5fHh/CUoHsmK3e5dLb7du3aRixY9l7pw5yoj/zTQcLGjZUG6NGzeWKlUqy8qVK9U5SpunRO/9Aag3/rtAc+bMlmrVqsrPP/9kQgh+YvnXNHB9KAU7wrN0/Emy+gVDEpHPG3B18eCmLx7x+eeXcoGoV+TB2kNU1//JdBws+PxYXqL64cgxjPuDb9+Wx8h/7D6B/78DH6avg1AQ7A4/GIu8gOLHINwg3x79pEui9/9RROOM1cmYm6docog6rkT6fJs9YGgY5Bt4N+KkLZkgF5UBv5SNpUXJqa3uv63wjH7bhxsLn3d9WOoH8Ixf3Py1h/6zMZgJGK55Tn5Jk38X94A0CqUg2AUEHBn4Syt2bjDYK2vWrJE6derIE08Uk4kTJ2gnre9rx00nbVDBb/mK5fLaa69K0aIPy8IF89UdRtgxazbY/Yn49gc/IPjZxI0bN8jLZctafMzc+jz5QX7ixIny9NNPS6NGjWTTxo36bnJa/zYjrnQgK3amfqi/VSpXlisuv1yGDx9mr/h9d4cVSpTZc889J7fluU1mz55lbr169ZIXnn9ehgwebPcJ3/0dJCXBXDkVO2jYsGFy9dVXy4cffqiPtey1PGLfILo+pKqYSgsXLpDXX39N8ufLJ4XvvFMKFy4s9917rzxw331yb5Eicvddd8ldhe+UR4oWlfHjxsn48ePk8WKPS7euXe19X6f5Ja37xHGQkCL/WlZr16yWYo8/LrVq1bS4cbPfVO+lZdB3mAqZUssWLeS2W2+RCVq+jhILeFYf9BeGvmzZl+SZkiXdKkUqfwcDvrx9HYSCYHd4QVnTd/P9uQbr162VWjVrygcfvC/Lly2NPsvhEx6oC06bRGTZsiXy0ksvSZUqVWSrjVFJlvZNG9Zbn/t36o0JSfrbp09vefGFF6Rv3z4WHmCM5BllgFo5bpu0znKdKKzU4D2v2r1z507ZunmTpdeXOfBp93Hixj2Trbt2bJMBA/rL86VLS/9+fS3fpMf74d5+A9ImlIJgFxBwZCDdSSeeKKVU2DFiwzmCBatevwMT7NQfA+rXX38lxx9/vNSoXs2Focz7XhXeADRq1Ai56qqr5IEHHpB1ynxaxBqGCYD6vg04ieLUcPZxS4XdygTu0MHRrdI55vap4sXlsccelW1bNpmbDUaa3nUqhJZ5qYwUUeZ87pzZbiZTB6Y9NliRDucvOfw/jj8FlFavWiGffvqpTJ0yye4T+otgApxS7S++kOzZs8to7TShfcoivhwS0R89j5Er92S/er8Pxbmpny068G9UJomygTp0aC9X6rfs3buX3VvcnlKkI2U4hni/EU2YMF5y3ZBLKleupI813+onlv/oumXLFirYNXIvqLurL66e7lNWfxdK8+fONaHtsksvVaEzs2TKmFHOPeccOfOMMyRrliySLWtWyZjxKrnl5ptlxIjhytgPlpv1ulWrVvq2ClNaVtRL0k/9+uM0xpXb77qlBHXV1VdXriuWLpFzzj7bJmmSUPuKysiY2QTvuzh8PH8QX/y33Qe/8yz1e7H7xO/QJnZs0/as6f/6yy/lwgvOl/FjR1v+9pcGGGbqBGX+0IMPqDBeSN2UWU1d3/eJc39p2z/8t4z1WUpDhwx2gt3G9SQy5s/6v7h3A/4Z+HKO9Qk6vvAtHnnkESlQoICsWL7MvhPfjJUz85MqjIMDrT8J6rtrp65+QkuX/Cb333+/vPH66yZU7VSBB62Fp58uKb/OmGF+YuGk/k19HX+vv4x1eiFNmjaRjJkySqdOHa0t+fGY5zaxqm5dfv5Jbr/9dvmlR/fkOFOFHRujo/cp2w06Hrz11lvybKlnZNnSxfaOjQ9x7/m+CXdf3kzqMUl3xRVXyI9tfoyijPOjiA8jII1BafSokSrY5ZDPa9TQO8b41H1sQEBAWsBfEuzUk2zfutleWTBvrlxzzTU2kG6CudHOP0kHAWdNca982aC+nH3W2dJaO3V9SCT23j4UP6gkpKgTSUA2+LAKxOAaEfnwDDY0fdpUqVC+nKyMBnrcU/tJTH+y81I6EMHOxZlkneT1118nY8Y4BtYzAQyq+LMBlW+itHXzRvl1+jQZpszkiOHDZLky845gKPfIMmUaBg7oZ8zxxvVrzd/ggQNkzuyZzo/mhW/jrpNkwfy5Gs5QGabCCWnHjbSv4VrTN2f2LItv546tMvPXGVLx448lc+ZMUrlKJfn1118tbZMnjpcpkyfaNeklHTDW48aMkhnTp7q0R+W7asVyTc9ATdcgWbZsmUyaNFFuuvFG+fSzT2P+7DcqH64PqWCnIEyYDVaOUGFiMuKFF16QO++8U+bOnq1uqFnucEwZAgTveYq/tjJOSZbepOR49MI9SEGOEUudN39v5RyVZzytWLZULr/sMnmuVCm7pw6Z30Sk7/PMx2P+UseVkLT+xKdrP+nXArTnfkLA0b7lQTp8eCniTJE/FycCc+L4iC4SoD1F4aZwS0GujH0+8Gdpje73BwtPf4Ngl3bg6zHXlDt9A/3kE088Iffcc4+sWb3SvpN/vs9vgrZkRB3ScF1/6SlB/dNwgKUjRX2PIyYzIR9nRLZapVS+fHm58cbcskT7b0fJ8SRFApL+i1wcER9hWd5TUfNmzSRLlizy80+d7R4/1FmELTfpIdKr5y86Lp8lXbv8bPcIXy6sRO0UNUr3HlT6uefkzkKF3HivtFsFZn3ZrlOTF2yhNj/+aOlC4ITMPSqTP9P+Ag4jlIJgFxBwZOCvCXYKN+Bph68MJDN4mTJlsobvw4Fgih997FHJmjWLLPltoblBy5Yslk4d20vjRt9Ji+bNVGiYrq6OKWKVY4YKYe3btZXFvy2SEcOGmp/VK5ebn3lzZttsI+82a9pEZs5w77J6uHXLJunZvbv06NZVB6ItbnZSaf3a1fJT547StElji3e+CqM22DJg7dgms2f9as9R21m0YL601PiaNv7e1MBMVSVK2+9C6cAFO5HPa34u1157rYyJVuxwZ6BkQFROwQQMynrhvHny1ttv2UpSunTp5JhjjjE1wb59+rhVGaVWKgSddOJJ8s03X5saJf4AnXFPHcjZf+VUanZKty5d5NZbbo35KVmipDT7oammJbt079bFwnv+hefl5ltutpnZ55971vyxesXvQw8+aPm9S9Nw/333qaC/RdPumIIl+t2uv+46KVbscc2OfgMVZsjfI488Kkf973/2fp48t0n1GtXltltvtX18NoseMeS+fLg+1IKdwZgblxfKH8GuYME7ZKnWW0euPpAWJjbatflRZs381dSN+vbpLb179ZRVK1eY8E09oi4jePEeafYMFMIXfqnLTHyMHzfWVkmpl5RbfD65NyaJPGu7mzVrpjJKraWhfuvhKpyvXbXSVHqfK+XVqsmHWBuCeXPpaCO/0l60bGkbMFOkhXTs3skeVA07qpdrNLyOHWij30rbtj/KtKlTzK9Tu3Jhcz9owABp9G1DZSabWvtHRcs907q7fZt07tRB+vXto4LPBumq7XbggP7SuWMHU131wqeVh4Y5d84sK6v58+bI9GlTpEnjRrJqxTJNkpY14WnfQPrbtG4l32mcnTSczZs2WHyUfXdt9507dnRMaJQP4h01coTV7SZajwYNHCDbt1FX3WoKbYv4eYcwSMf+4OtbEOzSFnwbsXsl6mDx4sXl7rvvtnZoFOeXb7NnVzTxofVg3tw5JgTRDjur0MEYYK+oX+odk2Md2re1d0eNHG71vWXz5jZZaN9c2+OuHc5qLiqVvXr2sLpL+0GLhLbEmIQWCc/pX4cNHaJjzw5rCw9qX3pj7hulapVK2s4my7rVq6xPGTtmlNU1GwM07N8WLpC22uanTJpg6bIxQvuKIYMHyvfaTmk783ScaNOmjanM/fwzgl3yih11nQnZUdpO33zjDZsIeuXlstKjR/fo+S4dK9fIcB1zm9NeNA+0V9ox8ZD+po0by513FlJB9Eap/UUt7fdmajlpW9NynDxpkvzYurX80LSx+WMykPcQeFHNbNe2rfICWaVz504Ub+ybBBwBUKLeOFVMFez0u+qDff0FBAQcdqTaYxcxbTBFvwNjONWfZ/AYGC644AKpV7cOgSho9GKCUbZs2eTd994zpgxiTwpCwXHHHGsM/nHHHiu33XabtG/fTp+iy79bvvrqK7n6mmvk7bfflkvTp5f/qT/Cgoli5eQkTTPvgjsL3ykD+vezsDcpE3dHgQK2CrRls9vzMmXSRMvfCccfb/6PPupoyZ8vvzGFu3bCYIsyfT+YYMqeDPZQOX9HSY4cOVQYbCI7dAC2jixVOaSA0urVK6M9dpPtPqE/j6iMatasKdlVmPIrdqx4EVdy+SbJxvXrTHg+66yz5OWXX5Zvv/1W6mpZ58qVy4TCIYMH2as///STCV45VJAr9Wwp+bZhQxt8M2fOnEItacigQbbydoO+X7v2F9JQ/ZUrV05y33CDnHn6GdK/Xx/z98qrr8hdWh4IBzDHpUqVMtXEMi++KH1UoFylgh2qrew927bFreAi3CEA3Z4njzzx5BPqsNf2Vt6jTFa2bFmlfr168p0yUB9+8IHcelseuejCC6VmrVou3+o3Vv+i65R77Nw+GS9cxPz+A3BlL7ZXE8HujjvukEXKWEHUf/On1LlTJ7lMGaQmWk+2btkijxcrJvny5ZPXXn9dLo2E8GO1rhd9+GGZOGG8vQMjxP6aSp9VkvPOPTdWl6mD77//vqzX760R2Mqgqw9AGaQo7zCF1OFjte3wHivmX3zxhbWV5/S7O9praqKsWpxx+ulROo5RYf4W6d7dqV+RR1vt0jBRU2OSA2Iy5eGHHzL/vHfKKSdL9uw5bN8b+3hIGypZH334ocbp8giuuvJKeffdd7VerLL0Uk7sVUR99T3tA0444QR56qmnJOf1Oa0eLVgwz/mzMMXepcxYya1WpYqFOXzoUHu2Sxncb77+WuvsDdaGeXbcccdZuEuXLrV6kTNnTo0rSywfy1SYLle+nFyp6fJpRBUMxoT9sNRVygAGnrT6PUOuvPeFr2+uDrr6kbzHzgmY3p8J4HHvBvxzoLz9t4G2al9UXOsZdX+VClVGcX71n34fvl+S9O7Vy9rSiSeeaPXjRK2jvDegnxtToLIvlZGzzz5b6tSpbYKJr0v58+eX0aNU+NL6QJjr1q2TDz/6UM468yx7Tv1888035Z1337GxhEmKFSuWy7XZs8szz5SS1Zq2q7VvPvaYo+Xiiy6yd2rUqGFj3YXaL76v4xFpZCIO6te3r5yr/QX7aCEmQevWqSPp019i79IfFCpY0MaIPDqmdunyk/pKMuHQJiO0bjMR++Zbb5r/C3XM5pdxBH8IoR9++IG1EdxB+ksukc90TKO9IFhecP75cvppp5lqOs+bqADHu23btrEzzo5K5ybuGNfz6BjQQcd1+i3KqJ0KnvADnaOVRP9NAo4AKLFdxK3Y+T12ikR+AwICDiv+mvEUHRQ9gw2tXLlCCuqA8nDRorJhvVPPgBo3+l4HuTOl5y897J7Z00IqmMH4MruO8Yw+vXuZcMBM0NixY8xfy5Yt5ZKLL7a9Sw0aNFDBrb8KJcuNuc541VXS+PtGylANldatW8kll1xswt66tWuNCX/g/vulsAojO5S527Bhg5QsWVJy5cwlzZo2lYEDBphAd4MKMOwvmD93jsWHQHTeueeZO4Y88NdF3Yg/nw76WKw0SlAWMSgdiFVM/Wde9hHs4vw45kNk0KCBkkUZ1rI6YO9A7SWiwSrQsX+xZLTi2r5dO2VAzpHnVRBBGPP0njIWMNUTzRBFklnh5L1+tond0ebNm6T088/L8ccfF21uF3kWlRst2/nzlQFX+vnnn+X6666XAVo+0Dpl7hGE73/ggZhZbWaXYVgwfFHy6ZLmr379+iZctG/f1u49VatWzepH9erV7V3SFqt/0fUhNZ4SBwtbiTpFeRYsWEh+i8qUZwhCUNeuXUy9qHXr1so07TBG7vzzzrPVgjZtWmtZ9pMWLZqbn0KFCslyZe6g2rVrS8aMmeTTTz61iQlW+l588QX7TpQLhodS5NEG0SRTj6X9sN+vcZPGMnDgQFupZfX2tFNPVaH7BQsffwjljz32mK3YDR8+3NohK6zXKQOGISHbf6N1DEETgY04N23apEzn08rcXW6rXBjKYWWQd5ilXxCtZtRSYTzbtdfaJMMIDZtJl48/+kjO1O/pNtdrcjXs++6715jRV199VX7q3ElmzpxpEzfXXH2N/PhjtNdG80ffcOutt5qRJdLVoEF9FShPsVVPiHK+8KIL5UGtaz1UMB04cIAZHjpDGUynGiS2+nvbbbfKlmjVsKam44wzTrcJon76HVgdZdU7owqVTCYgLJJ/GGRg7S2uDqSG/xbxfV8wnnL4kbKd7E+wS/br/U2bNlVy35BbsqvQxaSFtdXmzSWn1vWChQraKjz07jvvaL0+Q2655VYTpAYNGmQGuJgwePzxx0zwYvKvarWqcpoKPQhW/VUI69Wzp7yj7zIhx6QZq/ZMrhXIX8D8bNu21fp9JjvQcMAK8cKFC2XGjOnaPq6WylWqWPzUTQgDWwhjGIaB6HPOPudseaZUKemvYyQr45UqVbKJHiZOumibgWjfVkaab+ruvHnzpWqVyjYhxQTb2LFjTe0cofK00041A1mERZthL+DZZ59le8G3bd0qfVQQvvfee7UPyqv9TksVVFfYymX69Ol1TM1jYylpQdOC8ZTxAWEWIr22YhcT7JK/YUAah1IwnhIQcGTgL59jB+NifpW4/vTTT0zIGjvGCWdbNuvgWry4MaG+Y//uu+/MUAhM2rZt20w1kN+uXbrYLODnNaqbv2Y6uGbIcKUOUp/ZPcSqz8Uq7OVVgQwhztOPbdrYagVxIFQg2N2lTDUWOmGYzzv/PFPbiicYQwblunXr2v1POhgxw1i2bFljzj1VUiGNwW/AgGj2NkE5xKB0sAQ7Bl/KlFlWqL6mkxlSbyEQxgU/EN+OzpbVBoTW4449LtrP6L4LxEoHKpCjR44wt0cffVQZ7vtk7do19tzPCHfo0EFO1YG9f38n2L3yyiuSL29eWbTIqdG20nBZIUTAg9arEF9EmSfC2saeS1sBUSZdB3uY7FcQRLdvl9eVOcih392F48xyQyM1PczgVsfwTlQmyYxX2hHsnCpmwVg58MyXWRcVmmCkKDsYNfxmuOIK6dHDTWZ4YjKC1TkmNJikuOyyS23SYcuWyHqrEqrADz70kAk48+c7AcrKStPjvyXMESqXMfXUiBrpPULVSy++aPfUbWbiBw8aaG0MIWa7fguMvGCJtF49V/c18FiZck0dfujhhyWXMmU+vxCGYqqqwImQv2jBAgv7k08+MQuErJBRHnNmzzYjSQiUWBeFChe+08oHNS1PMMysVMAwI8RBv6jQme3abNK8eTO7//qrL7VPOF37k9Gavt0qbD5jguX06dPsObRm9RorQ4TGZUuXyv3332cM507NJ+VH38Pz9etYAXW0XcuC+n+txkV6YXaNMd++LSpjBOjfqRP6m1xeQbBLC6C8/beB/lCw4xsr1dJx48oMGWwlKZ7YC8YKXZXKleweK8tMmtCP0r95urfIPTpOXWF97+rVq63eM8m1Nm58Wrp0idxxRwFTe1yn/e3qVaskX/78UqZMGVPFhGhHTDQuiVS9sTDNxNtnn35q977tM8GHAPXVl1/a+PaItlMEQK+JAW3T/qR06dK26oZ1TMivstuqdDQhhQEsVsd/ifop2joTmY8UfUTWrFltbhCrkEUxJqX91ZLFbg/gSzpOMhm7YYObxMUIFpNzTLZ6Qpik30dDYOYs9niLtG0brdh1DoLdEQelINgFBBwZ+MuCHfBMJ9RfhajLleH8UgcdaMrkSXLRRRfZzCCEFcqPP/7YVAVRv2PjNisbMLt+3xYD0tatW6VxkyZy00032SqGe9edjcPRCgV0UHzttdelmg4kPF+oA5JX81y/fq0JGuxZQNUNgS9LlmtkyhQnaDlmXJlXHVzZ/P3aa68Z09ihfXtThfED/HbbVyemyog7M7lGqfKfAkoHW7Bz+6lEPv7wQznl5FPMmifPeeYFC/ZKZM6UWTZu2GD7Q9h7x14mI4tHpOE338jxxx1n6pSUFcLDU08Vjw3MnnHoogIbqkjs24Mwmc0qqV+pYoXl2mzXyk9R+MR5V+G7pMi997oyi5j05cuWmdXI50s/b4w0AjOqoIsXw7hEwpvS1GlT5eabbjYB2jNcyQxa2hLs8ubNJwtUoDHS577MUGvMmiWrtG3Txpj7F1Wwyp8/X0ywcZbq3Gw7TA3tg3dg3FqrkAW5uFzZfaUCDe2BFSmI72wz7dH3fvvtt2z1dpIyf5BnDllJY/8lq34Q6rJ8SxhXrGV64Id9tRxR4s+QIg7yg9l13EhXbhWiXtCwKirT+UuPbrYP1ee5a7dupqJF+0U1i1VXwkYVlAkSBn8vgPHdb1PmzjOU1BHiQwDMmzdiZtXt+eefl+ty5IipuzaoX19OPeUUmTBunLXXrFp2r2t7hVjBsO+v77HSjFoo/UuhQgW1Pt1kfjD1DnOLiqyjZJU2+pfMmTKpkN3N4rawIui//cI/D4Jd2kKKb6f0Z1bsaFNMAt5yy82xeuHrNwLYNddcLSVLlLD7t95601Qj2U8L+b3bT2obuvLKDLaPc9asWbZC9cEHH1gchG9xKZUvV04uvvgimwRhjLijYEHtU7Rv3L7N2hxq8KgtzoxWCCfr2IlmCmqRkBPMxFbPERBZ2WNSDjVn1OOt3WqdJN8QE6isjDFhCpEW8hYrJyX2/9E+2PcGDejfV05V4dVPCuLPlweWr1HHHjNqlLmxQohgh9Dqw+OooYkTJph2DftYv9ExB20P1FWnT2cffJxgF1bsjjwoBcEuIODIwF8W7HzHj6DALCZqeZiJR2hgoGmKyeWMGY2hhTBLDoOPighCBZa1wPOlnzMm9B1lWL9v/L1s2bLJVhVYGerd2wl2zoCJoylTJptxkGdLPSt33VVYnixe3AS+jRs3mjDHmWOF1Z2BpmLFinKzMpUYmoBIF7R23Rp5SNPJeULM1LNiB1PasUMHe+4oKSbYeSY7Pv/7QOmvCHa1atYywc6rofKMciWtftBs+G1DueSS9Lb6Atl+CfWHwEs+mBWFGKxPPPEEE/Ag/z4DMyp+o0YMx9VmXPPnL6BMdZxVTaUff2xtqkS9e/a0e2aVmUn2QgpCFgMz5QXxrRCkGeQ9EwDBoLCnhNUSCMGN/WPJKq0uXazYsXJSTRlj8kM6YvUvuk4TqpgqdNgeO1awIkHATyawMoeaJQySX7FDaFkala0XaFCFROWrUaPvpF37drZq1q27ChZKlJ3Lv1vZQ6BBMIGM6fTpUvq44scWH7PkPo360Fb7ENqef760uaBOyURLCWVwn332WW1rz8baGowmlvPMKEOUV+Lx+8agucrEsveyrLYRzscrWKiQ1Kld2/b/waCx4o1Klm/Hz2kcL5QubcIXe4B++22h5muPTcQg5Pvzsmx/ohKCMGGwUodwBmP79jvv2PeF2BvKvlgmiBD2zj3nbHnz9dftGfll0iO+zpH2AgVcXFAXZWqZWPLqnqZuGvnH3Pq1Wo9JgytDt2rpymD/dco/C4Jd2gLlHftuSn9WFZO6edNNN9o17dq7o8qL+6OPPGL3aB4wATk3Os/Tf/vHHntErlLBzqwV/zpdcufObatvMUExqstYY7700vQmMKJZwkrySy+VibRDkqTC+xVMw8GPU9R5+stPPqlo9+7MUxW+BgyQK6L9vJs3bZKC2icxhlk4mva9Uftt1bq13JD7htjKGOkx4TAqA+jnn3/Sse3imGCH2ihaHRgmg6i/vo9rrP0vKs2MP2wFQJg0wc4MQonMnjNbXn/9DXlc+4mnnnzSJre+/e5bG5udwOry1V7HJ8b1INgdgVAKgl1AwJGBvyzYMVjQ8ccGDSU2l2fOnNnUttg3wD4jVDkg/LGvgBm8DSp0pSYGD6wuaeCmVnbd9ddJd3/GjuyVyZMny3c6WCxc6FTUoNVr1then0suuUQ6dXKWtlitYx/frl27pGWL5nLxJRebZS/ID8jsYYA5rlChvN2jmonxl06RQEQaGOiJj5UJZiGdc+KyMCj9FcEOppBN57F3EtDYcWNNEECIi1e7+eGHH0wgZXM7xIojgzMqmZBnkr/++mvbyI+1MwjBmRlo9ol4Yla1uArc5557TswYC0xDvrz5Yit2MPTxAvfGjett1phvviDah7dbGQL2KbKv6sUyTi0QhuCiiy+2vBoDpQSD8JIKjqeffprUVsE8LQt2CLjsj0Md2NIZ9xzrjlmucfvFWLWkjjOZwHl4kGfKUNWEOWRPKWqJ559/vn43p2plcSohfFSoUMHK2BtaQYiHyfJtrEnTpra/zgt++tB+5syaJZdqXaVMIayiYrTEry54Qohqq4LNhPEaPvlQJAsqSWYhsHKlz5xFuzhiLx1pZq8qB9Wz4tWxo28vycSqAivgqObaKlrBO2wVzR/Q7OskR3WwwvHRRx+ZIR7aI8ylJ4TDU04+WcaOHm2TNBhYgnFklcNI6xGTMqimEt8WZeYx0GOTHPqMiRImISpXdhoDVoYKqLwy2kwwTdE+xUjzTv8UK4foG6eGf5ZcXkGwSwtIUd5KGDFi/GHigT7ZyJ7R90QMqRKq5jfckCu2Eu+/6QztC1H7f+PNN+z+lVdethVp05hQ8nvemLjKeNWVZskWLYW8t+e1FXPUnj0x+YagQz9tFjIV9CVMwFB/Sc975d4zq5hoMEAIdkyKUk/jqW27drZCjho1x66wvw8hcRtWXqFowgytACYumNyA6Dt8v+XbAGMdmjM/RUIWBovYdoCFYtqPvmXuEKuQ7O1DhZr+jImiu++62/bWQxj2YnyK9UkRYQwJ9c7Z2jdBfo9dx85RvxF9Oyv3KH0BaRRKCHbwKkGwCwhI2/hLgp0fSI1Ji+6h0WNG26wlVjDp6KtFh5a7QTdJGcKetj8Iy3+oXEIwZB99/JGcccaZ0q5tG3NDYEGwi9+n1K1bN1MVQT0s3kALe4lYmYDJRNBkvxcHwJImhI2cuXLK008/HdvnB2OI7j+rBTChEJYNmd1vEx2cSp6g71XwYYA/6IKddop+gK1br56m/zJ55JGitppSmlUVFYieL13aDq3t3LmDCamolZJGZmlfeP4FKf7kk5IhQwablR4f7b1rpwP/McccHRPs/Hdhxe6oo46SgZH1UKx3wvSwGvmMxoEQUFiFYQQK1AC98RQEu9tuvS2214q9dewf46gCVk1ZVaxXv56cd955JuCRflarSBPfmXImv+zt+uijD2xPx5NPPmEqtxjJyHP77XL5ZZcbY+zSengFO8Jzgkfy92H2npVmU0ldlGw8xT+nXmbKmMkOb9+qwgx5xlAMddybWkcw5pxH8rtS6yECIBMQ7DflqAJPMFkYDSqhDCMz8hCqnMRleVViXxirUnw/L3BzJiBqxaz0vVjGqWK2V2GHSQnaB8IchGEU2s+pp55iwlAsn5p3nx/Uqc7ROvDwQw+n2GuDCXVUO+tpeOwnYs8hqlacZ+gJxo76wWoEq5cQxlpIr19lZhXDr569V66cPWdlpEiRe0yl0lN9rVes2I0eOdLew/ol+4tgDj1R5ieedKKpp8JMF9JvhGodDDOr9yVKPGVtxLdz8jtYr5l1hvF3K/iunrl0ubLYH3x9C4Jd2gHfgrL2ExSQ+/YlUgp2MUoW7FjRYkLv2eeetf3CEHsz6XepN926dTU32haTMu4YBK0vxK3ERAOWYNdoHAg87AlnXPHCEsIXk2EIM/SHqGLS/vPlz2eWNtkLSliMlxhUQZ0T4qBy+gFWoGnbEGMrk6KkF3VtiIk5rNKyL9XXRwQ02gDx0TdRRpQPExf48f5Yrb7k4oti6uCsxBcr9oSNd37cxW/nn36yCaKntDwRmBk/MapFH79G+wGICRXaFHEb6XsddQwi36hiIyhDGPdisqVD3MSjbyeWLso1IG1CKazYBQQcGfhLgl2sQ6Zx672pRel7CCCobREmM4bjURdTgQ71K96BkcJKGIMk5vAxM32rDkLMTmIJ0DNaqICxB6mnn8HXONgP9mKZMnLhhRfIrbfeYgMGYTAAwzRjPAGGjr1zrNixYkDcCAaYar9RBU5mN1k94B0Yb6x8Qax0nXvOucmCXdRpsVkegxR+E3p8GewDpQNZsfPlwn4JmAMEKvYqsfeQVTOEAxjpiir0Qju2b5UvdUDHsAbP2B/xxptvmmqqm5FNMquDWDDjl3sGc4g9dlhmG6sds0ZubuzJYqaV1U4YecKCQWVlz+/NwGQ/G+cXLUSwS7IzkvgG7NHC2iLMO0IK1gkxuY07AhDCAYIq+7j8LPImZXzrqRB71VVXmiECBFRUhp584gkbKHx9itW/6PpQC3ae0fBMIkaAEEQpd6+Sih+/EgZzmF6ZK85vQghkFYBZao7coG6z7yu7CsyY4sdiHIThg4kTx1t9ZLWPskAtjAkKrI56IwR81/j8esLKKN8NS3umTkZc2iZgyp6JLKQiaGB6HUYTtTIMONBeUL9ilQwGjbDdflJfV5JMoGSGnr08qIchsOe9PY8yildoevPK9Glu7xxML6terLqxAoFRI/IJ8zk7UlkjPFSxsPi3hyMFovK1Mw+VMG6EUQb25TlDRphmd+WOKib7bocNGWL302dMM2GYPYPkA6M+pPHmm2+K7eejbcN4uH4E1bX+cqPmHQuc5AMT8OxPpO6OHs2e1ijf+r359d9+f/D1zX8TKAh2hxcI5NZW9dq3Wb4FB5Sff/55VmepK4A6QN1hoqFPr542uciEAatgtG/aUvbs19oEVOVKlWzvHMQEF6vHsyNVSf249vPoo4+YcOTOqFSB7Ndfrb4zucFZbwhYhMs9bQMNBwwn0WYwBoQ2ANsYqPusnmFgimN/sLDJOEkbx0InbYvx7qnixW1fK1oq0No1a+xIGgSoIipcoTZPW6NfYUXdVuwYZ6Ky8YCY4EDIuuzSy+TFF57XdOwx1XhWZGhj9EmUFQIi5TImMorGpCr9A2MVe2QRAht8+aX1XeyRpf0X0PgxnEZfxLjDCh97Atu0derXTDpBtBHfTnzbCkijUAqCXUDAkYG/vGKHUGK/kX8/YKA/b6t277xtAwpMVoxp0s6A2U3Uupjlu+bqzCZwsWEboXDXzp3mF2b5oYcfijG4Ttc/SRYvWmT76e4okN/U0RgsYapYuUCQwZAEe4JKlXomtpGc9P3yyy/GfGbKeJWdc/dDsx9keUylMckEGQbF3n16ORd9h1UF1OtgCDA6Ej3YP5QOSLCLym6jCqyLFy00FctlS5fEflntIb9uNpiyTbLyYdYXNTbi8nkkPMoNJh3LZbjDPPMecbBiw9lyPMcNlULM4aPixnuu3HcZM3POOWeb6XqIYwtIz3ZlgPw34KxAZp2Z4TX1uihu/LHPi/xQN8xQgL7PihNpMNJvhB+wQd+nfnAsg60MxZUJ18TF9eES7CxspfVr19o3ZZ/db36PHc95R4nV3AcfetCsYyIEwsSwYsw+RPa5XZ05kwl3TA4QJmWlgdi7CMAIjUyCwBS9+eYbTkVSKeZX4yFN/j2u+b6oHrNigHVJ9rxQR1H5Qr2YtoBf1F0xQpIz5/XGsGIsomXLlrEVPML0qp7E46DtbPFiadasmU2SYHUPAfXtt96yfX0uDU7gRCUXBpo05FLBlXPt5qvwD/mJBVaeEfLZj+nL1+pzVBdgmhHI/B5T3iH8bxt+Y218opaHyw9GJSabmi99xnXKBDMx4d+j7FkxfuzRR62O2vdRDNE+xAvbrDwQnxcESQfx2bdWv9Rxf50I/pmvg1AQ7A4vKGuD1SvXRuh7Pv30U6uTCDoITLQvrhkzOE+ze3QUAP0WZ5WyundN5qutzjfT8cEO2td6R92rWqWKTXJwjhuEMIY7+8Ix589Ks31vJVb1y5cvr/FkMyGPfuBZbZ+XXHKR9eUIRrRXDInRPgkH415MmDHBySQctFnr8wda1+kbaINVNA0ztN4Wuedum0TyRL1H0MMfQiAGVxjvWLHkeA9Hri+lvEgn7Yu9h5/X/NzeYXKNcRo/I0aMsL2uOa93ZcXKom8vtBVWIelrOJczc8ZMZuGaPX6k4eabbpRrtY2x53aWCrn0l3ffc4/2iaVMsGNF/+GHHpKePX9h1sraqP9+Zhwq7rsGpDEoBcEuIODIwF/eY0dHzB4arumgGTA4Cwdi4GA2Uh+YO34ZONyg4gbAHZEJdgYLR0mx8Fh5s4HG/CqDqAOHYwY1bu5VWGAFAEbM3lEiHIxBWHxxDJvfwE58do9/8gj5dKtfSy8DoLqhVkMaCMcLNBb370Hpzwt2lIufPY06yP2SM+xg+bDVL30/ItwQyPwAGSMN35eXPY8rI55xZhMqPa+//prtp+M8QQ4Oz6wMOjPArK5BPsxYufly8GThO2YqnnyZQ6ZKGKUlNbnwHdNhzJL9qpv5de6Heo+d7WXjN6pH3JNHX3+p4/HxUz+MQdP0I9QiyKCmxOHYECtQrg757+UFXVdmhEs7sPisLLXMlEHdpf5idVif+fJ3e9Xcu+amafXf2sKN8kD9NT/6zOJQmD/ciEuv/Yog9z4/+IWoMxZ/FK6FrURayY//xrxvBmKisCDXhly4+OU5YVn/oPWPNPKcMFP8Ru60RVY1fZp51xuhccTKXnK9s7Tpu/gjTn5duPpNI7K84M/cXN1iQgP/1tdEYfwevB+fZigIdocRWs6x76z3lDvjAWXPxJb75u4Z/aD51T7U6on6dUa5XB3y7xGG/86salN/fR104bi65eDqGn4QBFEbxiKkt1QLcXg+Rr5YMV+zapXV6/h02R5c/YVi4x7xR+TqkWszXFPvfd2ydsi1Eunx4dB2mcTjGYivj/zyzOeRX/JOv+TbPmWDPwvTKBqD1M35ce2Hax8+YQFfPpDFGb0L4t+xstP040ZZxIcRkAahFAS7gIAjA6kEOzpZBgA62d+HMXbWKcO8aWdvAeq9dfQuDPzQoe/agVCl7jyjU9fO356bepYbGNwA6laO3OZ0Bo/oHX3OMx8OzwwaBoOzDQo6ONiAoulwQpMbAHnHxefc1aOlG4bb/EQDjpHPl/6m8K/XbuD5HSixd80JdpFRhkT+PKI8kVeLR+9J724sFWoezZ3ys4Fc06jP9lqe3ABLGL4s/T2Ds5WdptcECBWwXRm6MiU+mAT2k2C4A/VJ1N0A1jBZbfKGBIyR1jAJm3i41psonQgrynRHg7h94+jef3PiQwjZQ7xRGl38Pp8qEOm3M0ElKltXF6K4tNy5TinYUWbue6Xwe5BAuKTf59nqBnmP6pvlR/Ng8UZ+7ZqnWuZYveMwc2b/k8+AcwMgfl2Zunz5snLPnRtkaeB76z2/MErA0ke69DnvmhvlQPrsezvBhXe88EcZb9uy2dwhlzcXNu+RHguPehXlhTPpktPliHeIi3Q6ZpJ66b6r5cXKRNswbU3fJV6gjj4Ac7c8kE+9tzTor5U1v/rcMbUubeaPNFBeem95su/k2i/PXJrduz7N+LU8Rr9WVqTFyL0bS7P6Sc5DFEZUFxLB0qS/rg6675Us2EUGoSJ/VmZx7wb8s7A6o7C6p3XTvnVcHdaP4i/027g65+u9f5ZkQpYKH9u3Wr0wd+paVGeo+4TPt02uK8Shwov6qVC+vJx88sny5ltv2ipgo+++M7VfzmRlLxsC07Ytm2Jhxrc7woBIO+70p34yw9cla69RvXZubsxzaY3KgXRqO/Rt0MYBwtf4CNP3G74P5pqycGMEbULDIS0alsXhr8mv+uPa4tVwDNb2KTctqwj0+T4Ontm3sXcpZ9dGk99zYePmwg5Ik1DaV7BzdSMgICBtIR37okpF+3K0h1U3OnAGgv0DP8AEDe2UGXCMQcJNBxITTvQa5m+3PnMDiGOiGHScsAXjvzV6FybRDWi8a4MnA0kScblwcdcLi5NrfnnHx4N/4tqlDCBuxIcffgHxEJ9/z/26sGPx2717D3d+PfRhLKyEUFq9aoWpAE2dEh3GnMhfBMInb1y79Lg0+bhxt7JTmJs9c2l17yrUbc+uOIEqli/nx5etDw/YNYOv+sNaKJZDmzb5Xn7+qbOsWYOhAVZD3Df03zFJw+bXvomGQRww2ns1/Qz+xA8DYQyFwse3fetmC8PSp359WvgO5i8KTx/E0ubf1Qu7btmyhQp2kfVOdfffKIXfgwQfHr/uW7g8W1zcE3esLHgefSugtHHDOjPKkee2PLHDfL0/y7uG7cuAdqIP9M/XPQee8cs77nkkmETXFpb/LordOxHEnF/ud2zbIttVmDPmUL8/6UaApp64b5FcRxwDBoPnwtNERfFreNr2XP751lvte/g08g7u9r01XOJ0Ybj8OcYyue5xT9m5MMmPqyMeuBEX+fThG+L8xPv14QLisbqo7rxDWkmPD4N8W/r12sXNu77NRX2JhuPCdGHsD8THr6uD7pujtmyC3UaMbyijE/nz6Qn4Z+HrAXXX1wt+rc9JVVfwz7f2dRM/Hvh1bd2F6+sG8O9znfwsuR3wS5+KCjMTZhi58hNmmTJllGY//CA7tuvYpO/48Fy8mjZ9191reNH45rFT6zHpsXTQliN/vMu1SwcCoJtAI2/0ufjxv/4d8oY/+gQbX9U9PgxfBv4drvVfrG/m3tpwlF7Cwy/9uH/HtXuXDxdm8jjiw/bh+vh4D6iDiy8gbUJp9KiRKtjlkM9r1NA7hHQmPhL4DQgIOKxIx/lmpZ991houHTKOnnFO7Tk1XKfsf911ymdugPCdOYNv8rWHixP4jl7/ud84f/7ehxvvHu+W+nm8v9Ru8UgdRiL3/cHypEzdmlUrpVKlSjJtilux+6P3PGL5ju79deq4/b0r8+j92DdL5C++7JMBs096ExECh70TMRkp3ouLw2CCN26K6JtZ2FGa/Ds+PO/m7+PrC26J4uNohsaNoxU78+fSkMj/wYblx/IX77afZ5ofmKZfp0+VCePGOuEiyiP+XJ7ddeydKBx/7fOTOmx/nfpdQ6qytvL3v/HuCC2R31g4qe/tOvnevZeclvhru7f27Jg6/5w82L3lPeX7Kf24a+/ukLJOgNTvxj/zbuYelxcYyZgf3KNnHsTh0xl7P+55IuDHfx9fB6FhQ4dIterVoxW7ZEbH+/8zYQf8Pfg6k6i8E917t9S/7trDfT//zVMjdT01wUSJVbHx48bI4EEDZPDAATJzBvvTXF+LYKMvRu/Hx5lct1I8szbkf1OlO3Lz79j76hYvPHk/Ds6f87tvnU99nxo+nPh7u9Y4fHy4xffP3s0jPo+J0hCQ9uC/HTRm9CizMl6TFTv97uphH/8BAQGHH+kwKV7qGbdiZ6oREfxM4sFBfFgHM9w0AspMCWMhrNh5wc7KMZH/NIkorYckzfvGwaAfP/D7skOwi6liqhszvan9pBVYmjylYKoOJQ51maSO78/E/8+m8Z+qF77O+RUTiBU7LPr+nmAXcKSC73hgdUkbvtWLFOT7gn+oXjq4sH3dO/xIK+kI+HuI6pUSRnNQxaxevXrE8wTBLiAgLSIdJvWf8yt2Oih5XXjbu6KNOuCPYfuHlDiwlWMUJk92qpi2byeB/4B9Yfs8IlD/ANc/tmkjTZs2tfLEze8l888ThRUQ8E+AOqdcTnIdVBo2bKjtOfGWRp0fVzdD/QwICDiS4fsxaNSokXYcRo1gPCUgIE0jHYcaP/98addIIwMk1pATeA7YF1j0Yu8EhFVMzFhPjVbsTOBL8E7An0A0ydC2XRvbo2Kk7p5ZDnU04FBjn7qnNGL4cDP1zhmGRqneCQgICDhSEevvlMaMGW3nsZpgx3Molf+AgIDDDxPsXnwhEuxSrdh5TwF/AkqrVq6Uip98YoeGO0ra119AQlDfUtc9flv/2DpOFZMBxpWp+QnlG3CIEat3BpHBgwZL9Ro1YoJdfN314D4gICDgSMM+gt3119ueYu8W7zcgICBtwFQxOUB1H8JDoAMiDu2uWq2qTJ8xPXIJ9HepfYf20qpVy+guUKC0RaNHj5K69etF52AGChQo0L+N3CTW2LFj5MbcN0rNWrWS+cM4ZjIgICBtIN1pp54qRR9+WKZOnSqDBw8ycGA1e0eGDQ34M+Asq5EcTqtl91SJp0x1cMyYMfpsyD5+A/YDq3PDZMSIEVqWI/R3uKHC++/LW2+9LRMnTpDhw3k+POU78WEEBPxToD+M6ujw4a5uTpgwXr755hspUaKE9O/f3/agUHfBsGFaT81v1JfuB/QdidzBUI030XNzi6UptZ8/jg+QLv/rn/nrlOEl35OeeLffzZsvt4CAgCMW9HW09bFjx9rRQ1mzZpUvvvgCiS4IdgEBaRTpzj7rLCmQP7/Url1bPqtUSSpWrGhL7ZUrVw44AFSpAqrIRx99ZGcZcZ3IX8Dvw5VjcnlSH9m3yFlh3j3RewEB/ywqWR3EIhxWMP31q6++Inny5LF2X6NGDXsGqLv0pzU+r2H+7JnV4SpSRX85FoXVfX6rVa8m1WtouISt11XVD7+Voz6kuj2voe/xrob72WdSSd3tPX2HNkKYhP15zZqurZA+DRO/ru1U0fiqaZp4t5IZfPlI2xW/Pn3EYXFqmmhn+Odd8uHzQ5iWfg2DPBcseIdds+8Gv+SJNO5bfgEBAUca6APoE+jTXnnlFbniisvlyy+/dEIdlICpDAgIOLxId9JJJ8nzpUtLUhL765J1qv1vwJ9Fsi66XoTyO0jQwjSE8gxISzAjU9pnDh82VGp98YWsW7vG3Hdu325WM6mve3Y7i7m4u3tnJdfeVz87d3BoNf6jw9n1uR1iHVnd9O/4aw9/j9+9eh3/3F/zC8yP3tsh9RoW0AcWvw/Du+/Y7g6wdu7u14cDSJelTd8Hs2fNlGdLPWP58H4IJ/V7AQEBRyboH+xa+7oRw4fJTTfltv7Ojcv8JGYsAwICDh/MeEqpZ56xNsrhpjRiR1HDDRQoUKD/PCWZ0OL7x50qBEFDhwyxGe2YVUwlE4AQoP4EIUgRtoVLp+xJr42hioCw5AUm598dv4Abv5w3ZdecLaXPvX+eGWJEv+4EM0+EaQKfkv0SXhSv8w+5CZZ4twXz55kaP/d24HQK/4ECBTriyfoJ16bHjRtrVjFZvYu1c9+/BAQEpBmkEuzcjKyfBWaQDwgICPivAyGJXz+D7QU39pPVrFkzxTl2+ENwYjXvvXffNXXNl8qUkbJlX5LnSz8n77z9tnzf+HuZNWuWvcJqnb4oq1etlLfefFMaffetueMGfF9M2F5gA7jbbyq3+L7b32/csF6GqBC6aOFCvXeCW8tWLU2dcvnyZRZ2bEVOn/l4PQgbP8Dnb+6c2VLs8cft3o8ZwMcdEBBwZMO3aYg9xBxQjto2/YNR1CcEBASkHaQ74fjjkw8oVwcT7GwQTx6oAwICAv7L8IITK1O7I9VDCMHu85qfy+ZNG+25U63cac++/fZbYeLsk08qSs+ePaXnLz309xfp0b277a27++675ZcePTQsJ2ht3bJZ+vXpE52DGbfqloAsLlvti4gOPTWpm0/nvLmz5corr5SG33xj97w/Z/YsGTVypK02en8QeUxNPGfijzBh+FSy0zDnyCNFH7Z7wuPXVD/1F/8BAQFHLmjTXs0awrBZjhw5bF+ud9OLgICANAYT7J6NVuyY+bW9Yvzu0cHZfgP+LVCOy2D3ticwsVuKa4U99+5ROP76oCJVPDG3uHsfd3K6D3I9JcxUcf4p+Hf+6vsBaRp7d+80wYb6xvXO7Vutz8QypBfsWMXimRe4Gn/f2ISpfv362n08bdu62Yws3XrLLTJpwgRzI8w1q1bIlkhI1B7ZsFrd8DNx/DhZtGC+Co5uhY96tnrlcpk/b47s0HfnzJopUyZOkKmTJ8lvC+ejV2n+1q1bK21/bC0nnXSivFC6tCxYsMD2023asE7Wrl5lKvh79+yUZUt+k3VrV8uG9WtlxrQpGt9YmTppoqUHIv/4tbanNF+FxYcfelDzrYyglstu9uVp/g+kTRJW6vvUbocDaSENBwOWj7+al7hvkaI8/mp4fwYHM+x/Mp1pEkyoHMxvRjt2gNBAuP7666VWrVr2XCOwOAICAtIW0p104olS6pmnreF6xkX2gpQNO+DIBt/UMac74tx3mptnxlJeeyT70X/2LGUYBxc+/v3fw1g6d7cnNPnZwUPKOP8M4tOZOs0B/wJoW6C+oTbp6p5blRs6ZLBZi9y4fp3d49eveDX67ju54PwL5Jce3e1+r7YfwuB9aMlviyT3jTdK+fLlZNeuXTJj+lTJnv1aKV+uHL5l69Yt0rVLF3njjTek2GOPqRD1kDzwwAPy5ptvqlA1x8Jo0qSx5M59g3z08UfyyssvS7HHi8l9RYpIEQWrgYQ7cOAAKfrwQ3LWWWfJdTlymLW7lcuXSaVKn5lgiUrlls0bpVixx+09LGc+9eST8kjRonLnnYXknXfeVuFxrsWnibc8QvP0vUcfKRoxjbtkx7YtLm8HMHb4tuLHHO692+FEWkjD3wWC/V/OR6rx4lCWB3XB/2rE+zwP2A/+gW/myx8aNTJ5xQ53/ed+AwIC0hScYPe0E+xw8I054N8DvqmfbWdWnXt+zRLfru0pBgIn3CczWCkEPPXnw1CHgw4fn793aXIDDM/sV+PneteOrS4dSXtShPG3oOGzapIcbsoBjuc+HSncFS7dyWn1/vzzgCMf/nvGJsCUEOwwCb550wa7j/lX+qFpE7n4koulR7dudk/biT1P2iubNqyXF198UQoWLCirVq6wlbdrrrna9tlBY0aPklw5c0nFih/bPdS5U0fJlSuXNGzYUMNIkh9btZR06dJJ4TvvNNVKaIum5ZFHHpHbbrtNFi6Yb27TpkwS+vrPP69u95oI2/+XK2dOew+h7O677pLTTztNatepI9u3uRXJPr17SYYMGaRG9eqmauknPSAv2BEWefJ1n3YSy2cCxLcL375379im1679J08wOr/x/g8FSMfundu0fF366CcPdRr+GpLT6Mp0u/aTrlwPOP1R3vew/1Pv/bgB7Bun9n8wEIXt6wTXKdrMASI+nb4MwN8JM01DxyzyuUvHMFd+fhLqINRfpdHRHrvP2WOHylcQ7AIC0iTSnXzSSTHjKXQMtpQPUxvwrwHf1Jk110FThTYT8riOzLEbI2Xf3ZlBx+KfqWKo214dELwghztm0/GXOo6DAvT2TbdfBSxlSEzlLHpGerhHzc2n2fuPvf83wb4BtyKjDIBem7oJv75NRNdWNtEz0urT4p/hF3fc7L2AfwV8PTABh2slDu/FShyqmEbev9IPPzSVyy6/TLr8/JPd4+4Yba0bSrRJhLh8+fLJ0iVLZOH8eZI1SxapUKGCPW/W7Ac5++yz5ZmnnxYOHl+9ZrW5L1y4QObMUSFO61fz5s3kvPPOkybfN7ZnEHWXPXyZMmWU0SocQpMmjpdTTj5ZqptFO0gFu/fek9y5c2tYs6293XPP3ZI3X15ZsXy5+SCcFcuW2ape8SefVIbRWQL1tHzZEilZ4im9Sor2ZsNMurYTK4d44G7qpfy4e1eOSXobCVHaxn0b9OHZe6nD+odg7VbLhvS4iS/6SnVL4DdNQmnbls3Wv9s34XvQXx1oGeJf4fux5P7OlYu5J3rvL4P9oPTx2pdGQgPxuLhcuztQ+DTrjdVvyoRyOPhpTxuw7xzljXKjPMmrqYan8nvAUKIvue66HCrYfW5lakjkNyAg4LAilWAXbbY3xj3gXwHtfE0QYoDXb+t/cWfABP6b2x4hvY/5wU1/PXNl13H+DxYIzzFP7hqwadunIz6dqdPG70GFlgvhwmDEh8+1lU1cWmLuCtLFM1+Ge/f8A2kLOKzw3zxWB5WSBbtkq5gGJQS7Sy65xFQijZKcAOTfRRh8uWxZyXv77bJ48WJbXUOw++CDD+z54MGDbU/LGaefbjPl+VXoYoXv559/VsZNmTWtq02bNpHLLrvUjLJAnJ0HNahfXy688EJbUYTGjx8nJ5+EYFfV7nn3vXLl5MYbb5S58+bK9m3b5O6775K7VbjbaUyha4drVq/WePOZ9UvOsho5YriUfu45E/Tuu/deuaPAHWZpk/qOERZjzDXsWDmkAtZErfx08CF8N+GEEOcEPGgXAknUlqysUoXxT4J4EYyI14SiKP4dWj6HOi0HCl+e7J905Um37fpz9bCP/z8C4cXqOm4RmTvhp/L/d0CYu211KdkyqxNI/l4dQLix9Eb5sGNKEvj7N8DK0Npuyj7KKIH/A4LSKBPsrnOqmFFbTeg3ICDgsCIIdv8B8E0Z4I1Ziq759dfxg6kBt2hgsPdgDDQc/OFmjEKqOP4OLMxUYfNL3GZlz9Kz0xg+nrn7g5uGeFgZKLgmnt27OKzZxYc78ftf74YgmvqgZp4F/HvAd+WXb2vXSn9GsOvVqycPYs/cu0kqNK2y1bqnij8p25XhnDlzplybLZu8/fbb+tgxTjNmTJd69erJPXffLZdfdpmcf955kj59eltt27Z1i7Rq2dLi6NfXGWixOqlUs0YN84f6FDRuzGgV7E6SqlWq2D3xly9fPrZit0WFmQceuN9W7TZuWKePXf6Wr1gut+e5XR5/7DFj5lfpPcLd2DFjTC30/vvuk43r12sbcRMbvk3sA6UN69dJxYoV5Zabb5acKrBer0ziDblySbasWeWhBx+Ub7/7TpYvW2p+aUsmJFIOicL7J6A0YMAAeaJYMenQoUNsMovvnebbs1LrVi1VyL9Mhg52wrxPM33rfr/L70HrCN8A4zmERR1ZsXyZfZuE/v8mmDjo1rWr7escqN8BAcWPS/H+/hSU1q1dI2+8/rpkzpTRVrCZvGAS7i+VxREC8gZQpeY70Z446iSR3wOCUhDsAgKODATB7j8AZr4RkOLJM6eAgcBfm6ql77SVmDVlBptwvJB10AfGuPj8jL5zj6O4e5/m2PsHEYTtr2EqYjPTEfE8WT0oEjJhQCOivEwFSPMUH1bAkQ//PX3bgf5IsLvs0kul1y+/mH/qhV+hgsaPGycXXniBNGzojiCYMnWKrdC9+847xuRi1GTa5EmOqd68SdauWS0D+veXW2+9VTJlzGj3LVu0kPSXppdePREelaJ01apZ0wRBDB5AkydOkFNPPkWqVU1esavw/vu2Ysd5ejDtrMA9+MADJjCaD2WsET5ZUXy+dGmr9/EE0/hU8eLm3/oFTSe/Ceu90vp1a6W4+j/7rLPkNs0D4ea9PY/kyZNHbrghl1x04YVSqlQp+W3RInvnkK+uKHXv3k0yatn6PYzkJ769p1kotW/XTq69NpsJ86ygUt/4pR/DcE/C9/4A9j31l2/63bffmlDuJxFS+/3bUGKi4uxzzlbBur3d/yXBDtJv17hJE7nooovMYFC9enVthZw6vY//fxHoX9wE415tRwsla9Ys8vprr7kyYZxN8M6fglIQ7AICjgwEwe4/AAZ3mK5fZ0yXnzt3kqVLFqt78gHEDAb+Gr9rlGHs3rWLMp5jYwMr0H+Rn7/J5MSTpoOVuC5dfpa+fXq7g47VD7OMmIn/+aefzCIfB0D36vmLTJ400eL3+yWSw/wbgxaI3o8P05uVJy19e/eW4cOG2Uwo6aNc8IPgt3btavn55852ppl3J5yYABCFF3Bkw3/LAxHsLr74YhmmflLTjOnT5YknnpDnnntOfvtN26PWs9mzZ8m12a6VDz/8wOrYxx9/LKeddpoMHZLy/QcffMDOwEOgat2qlRlo6d69qz3jPahO7doWt1+x42w8jKc0aFDf7iFW/W6+6WaLd+uWLVLknnvk3iJFYoZT9uzaZXvs8tyWR5599llT8cOYBm0Umjd3rjz26KPWBigTP/GTsM4rrV27Rh5V/4AjGOJp+fLlUlWFzgsuuMBUUfdoP8SqofU1nonch+La/H4p8vNHFPnp8UsPyZE9u367H9QNwQ4hfH/xK9l7v/Pc0x+l84+eG+0nnlTvIsTxDSk7vkli+jNlxwSg9rORn1Za16655ho7z8zRH5StD9/8xMUXc9uXfmzdWi5Nn15+6tzZOag/VwcSUYIwQUTVa9SQvHnzyqLfFkUu+yk/c9/fM6UEYe+X/sjP/p6be5Sf/RHP/kT4vryw1MvEUtmXXrJ7oz8TfiIoBcEuIODIQBDs/guwT7tXGacqcvFFF0mnjh3NzT/339wzq6NGjZJrrr5aPv3000hnP1m1kEHDw80IJwt5sXvt9Hknvi7FrvXZmDGj5auvvnQz80rM5J+k9RC1NPe+SKPvv5Pzzz/PLP599eWXMnfOHB3wL5VXX3vNxZ0qbFtN0Gue+bT6Z/4+xpBHz4BPf/zMsP+19zS9SxYvlttvv10KFiwkK1essPThxzM89Rs0kOzX5ZAOHdsrI6XhROnz6fRxePj0WBjR89R+AtIe+Fb8xuqREoJd1WpVZdPGyCqm96fEcQfsj2N/2kcffSQfqcD2oQotn1asaOqWZcuWlTlarx0l2cTLVVdeqe6OEUP4e+GFF0yo+ujDD6VC+fJ2rMGLL5ax/XfQN998I6edeqoywp3snhVvqJq29VPVffCggXa/csVya1833XSTCS1M3rxX7j3b0zfz1xmyeeNGKZA/v9XzDXFC15Ili23Fo2jRojYB49XjIFYUOaDck9XhqIz2gdKGDevlcS2Lhx56yIQ8o+gZtFPbTunSpU2wmjRpkrq4/cHQFBVMEVarVq4szTT9s2bNNHf8QKRt3Lhx8vXXX5mBGPqMXzVfjpJk0cIFJmjzHnsCv/7qK/m8RnXp26ePfrvI8I1S9x495Nprr5WWLVtGLi5fY8eOkdpf1LIVzy+/bGB9pOVXafv2rSpYd5cqlStJ/fr11N8XMZCWcWPHahJcOjmEvm3btlKjejWpVfNzad++nQr2keChflauXCFNGje2d9auXm0rWFU0z7+owOmpQ/v2Uvmzz1TQaikLFyxwjvruOE0jeyhnax75Tj591DHKhbJj7+X06dPMnbLHDwfmo1aLMNhRxwbGCcralzGCPKuBDz/8sNVP6mPXrl1jAv6y5cukU6dOFjfl079/P9m1wwmUri0kxYR+Dwj14196/mLlWq9uXZk9e7aFc8nFF9uEHu/5tsS3ZMwgD99921Dr7K/mDuHHQ1Nr4TfTb33XXXfZOPaajhkDBw40dw7o//mnzqYWTJlg2MjXMb5x/Xp1pVatmvKFYsyYMbH4XZqd4IWaKHmlLDEowiRFZ21/lDvfoXevXvJD06YW7iBtf7TF5s2by+pVqyws6nbNz2tInTpfWFntsckDtzoJMUnEGE39ZOW9W7duttroyE0Afd/oO1m2bKmNi5RLDfXbT8PCH5Ozc+fONeuVqG7fniePNGrUSJYtdWrO5GWkCud8Y+pnx44dZOGihfaM/LryiIRMDyUEOzQKgmAXEJC2EQS7/wD84MTBosy4MlBAKTpxI/c7ceJEO6/mM2UecPNCjx94kilZ3TA28Cklqy9yr9Br4vEDaO3aX9hqAoc7Qwz6qJJxAOoO9m8ocWbXVVddJT/rwLtw4XwbPGHCJk+e5NQdNV6fL0cubtIBw5FsAS05XRBCF0RevMoKKx/JeXPpJQ7Si/DG3gxWXdhbxKoFg7cLlz1QM+RhZW47KWPkiXhRI4uFqWHsk9a4MuGZlY26BaRd2DfUX//NIFbTqimT7hkv6oVfJYH5hEFr3uwHFfK+lcbff2+/3yuTBWO1MRIGeYd6xp4gmCyOOaCOQahg9u/Xz975VplSwoOhc+SYPNTWFqtw4NXucEdIhFlfrkw3+99I9+xZs6Rpk8bSWcNAxXLy5InS85dfZP26dSYY9e7VUwYoc7hd24Ov59uU2Wc1ffCgQZYv2rbPOyvpnHXn6A9Uj5XWKzP92GOPmWCHURajVH7aq9ACM96qdWu7x71Fi+YmkDLJA8488wxT5fTCDsISwtb1OXPKcccea36OPuooKVSokAreQ80PAjiHxb9YpowJKDzHH6tDrGiYFoNSDy2P7CpYNlbhCkJA+f67Rub2vyj+Y4452hjcZs2b2XOEhKd1DOXZUen+J0f9739y4gknmGCNGwIANHfuHBWKSsm5555r7gCrp0WLPiJTp00xP1OmTJFsWbPJO+++a0Lu6aefbv7oC9vrd66ude0cfQc3fp8qUcIEVaiBCpW4o/oLURcQKDge4wRND8+OOfpoLcsbYxMB9IEIarfeeosJNBjcwR+g/IYPH27+6I9xu+gC9/zJJ59U1ySZrv3fY489miJPGa7IYPtCbVVWvx91xqvY+z533dq1dl4i+0B5h+/B3jryfDVjVJdoBVrrNBMRN9xwgxx/3PHm9/jjjrOVOAwGsbJLvfOAmJi4MfcNltcLzj/f3sHoEN+JfGLZ8cUXX5CjNM6STz9tbZc9lYx5Jxx/vH3n4zSO7Hr/hQqdZowmmtBo0KCBCbeEeeKJJ1o9+PCjD6yMMWoEPaflmTFjJqmjwir1Br/UBc6f/En9FCxU0NxA1mxZ1e0n2aTtnHFr6dIl8lLZsqauzHPSgtXbcuXKydo1bjLkJxV6c+S4TiqpkIvweswxx8hJJ51sE5+ffvqJ+kgyAZm6RTgnnnCiqRdPmDDB3m/erJnta6WeEsd5+u0KF75LRo50q/vWH2la3LeK2rRSWLELCDgyEAS7/wD8ylLNmjXlamWaepiVvmThBIYNdcPNmzfb9aSJEyRnzuvl44oVzR8dPETdYPP8Jh0IGQxNgFNiwCYsDlRm5YJr3sGPm0F0AwVgkETAZBDt26+v7NgZbexXIm5m7Qkj3+15JU+e28wd8mmA4hlrmE/SDlPsmGsGHGUmdBD2e4K2btlkq4JbNH8YAvDv7toZCW9R/MxYkzfCgqGGGMydfzeQWT6jZxAM9dgxo90G9Yjwjxob75qlQBUysVbIIdDsizJVt+jbxPIS3YPU9wFpA/67xNc/BH5UCP33p63x3c2i3x9StCKl77C31YdphBqirwcJCL9egHSU5CY8tH7u2JF8LAH+UrQXTxZuxJzxGx+PXvuJCd82IcIhDt8WD6ZgZwaalFipwoBMTe0jINSbc+W6Qd5//32ZMX2azJ4zW/r06W37DNnvBROPwAqjmjdfPpv8marCEStMCHIILaiZ4pZRhSNW4z7Rfo3VvQnjxpq6K6uqNTibS4m+EWa8adOmdj9t6hQTKgvdeaeMGD5MheHJpiLOvkDCoj9EuGD1kn6AfZNTp05VYbiLnUlYoEB+CwOqW6+uTWhxJiCrNpMmTnSC2jnnRMyy2Goa+w0zZspkB9Mz2cUEGEdOoKb6eLFiprLO6hyqtBhLaad5hRD+YfL79+1j96it33zLzVJChT/SRjmxwnRX4cK2R3OSPmcvJ0Z0Ljj/PLn/gfula9culrZvvv7ajsdgbyX1kNUoVp1h7L9p+I0Jk9SDZ0uVskP4WSGdOGG8lc87b78tV2pZO+HYrda5ehjt9VNq1aKFnHHmmSZUDx08yISORo2+sz2fCBq/dHdC+wgVLDNpWSDwTdGwWX0cMmSwnblIHZgze7b504oaq0toTTCGvfzyy2YcqHXr1rJo0SIbe+66q7BcqOX4zjvvWtlijZa8sTcRgbevlh0Tm+wjLKzlhODmVy6Z4Lg6s1sBZJKP7/fVlw0km9bXKy6/XHr37mX+Xnv1FatTrH6zak94lT771L4f4fHNyW/bNm1M4CpRsqQbn7SevvzKK1a3enTvZsaU2P/6+efOEFLt2rXtW2Dplu9+iwqprHSOHz9eRo0aKffcc4/kUKGVlcf169fbpA0TF48+8oj8+uuvNmnaR/OXJUsWKVmyhPVd1IFvGza0esmEx5IlSywPtHtr+1GZQkGwCwg4MhAEu/8Cok64Tp06Jth100HDE7OqMBpXZsggV1xxhQ2g7dq1tRnxTz/7zDGXSsuWLpEvv/rSGAIGRmYoYYZQU4QQiN59910p8+KLNqP49NNPS/pLLrFBr36D+rHViddefdVmUVER4Zczu1asWG5qYK/oQMxgxv4hBkaeM4BxnherFEWKFLFBxRl4EVND+qxSJWXErjUVUwadls1bpGBkZ838VZ577lm59NL0lh7S/fU335jwRt68xbjevXvL0zrAMhCmT3+JFCv2uEzUARNChQbmCNU5VjdghlavWmmMy52FCmmZZjbLa8zusq/Blzcqpzxv3bqV7U9h1vmSiy+yfUkwhwgBCMfe4mZA2obvG+Prl63YVasWmwgwoUf9MKmAcOT9mlVXDnm299ykircE65ko589NCPDr3fRfLH7cfZhWf/WaVTXzj5t/pu/CyNrERPQuIH0+PqCOMf+ky1+7M7CcWjO/vOfDcH7/mRW76dOmSZZrrjE1cNoZ/UmBAgVsfytCFBMpMJ9ffPGFXK7MNGqEU1Vw4vr++x+QVStXWjhQt25dpYkKaKu0/SLYYZwFAzHx+/tYxXng/vvl3nuLqHC+wVYmUQX9ToUkyBhfZc7JqyfyX7r0c7a65Q+Ajye+A0IZq0Oe2ecdViMROPkmntgDmf6S9PKqMvQQglHOXDmtn5o3b565Qe9/8L71cT16dI9cRPr3729M+uc1nVCICieCnTviIkkqV6lszD99G30sqnhLFRycf9ppp2r/9b2999bbb9kqqV9xglBPhdFHgGLVF2L1L2fOnDJchRqIVecc2XPI+9qHU088MTHHah8CCu/yHX3doL+jzFExZnJvVpxKJWlmDGBFDg0OVvnKlXvPhL1BKvyRBwz2EGbDb76Wc1UgbqfCEWT1XsOPn4z4vGZNE8oRaiA0M1jpu/6662XB/OTvtmTxb/Ltt9+qQDQ2ctGUaJorflJRBaXrZERkgIgjPkjLokWR+qtRkp1FyYqq/zZvvfmGrRbWVaHLE6rE5PeVV162iUYIg0WUcQYdeykzBOMMGa409UvqOKt37D2dqELqXXffJQ8++KCNo9RR1K/LlHlR23jyBBLf09pElI71OsYxnr2k/iC+weOPPapjclazthtP9evXt7G9iwr2UKydx7XNINgFBBwZCILdfwVKrNhlzpzZDARA6PK/9dZbJjwVKljQ9tHcW+QeY0iYJa0RdeDMJL7+2uumxgkjxz4ZDDggnD2jdYeZQGZlUXfJmjWr3H57XhNo8EtYF110YYyJQEUHAQchi/OxGFDZ/5NBhUr2Ii1btkwHv1dsth2rfhhaYO8AM9kwFcwaQzCJPMPPg8qY8S7CYaaMmWwPC6ozzFDfcccdxrQ8pOl94olitt8A1Rbyxkw7xCwtQu1NN95kZt0feaSorRrcf+99xkisUiGOQZX4Nqx3KzOVK1cyYZF84v7AfffZrGqF8hViK4cM1Mz+w+Qw+4vKUtGHi1peb775Zpkz1802x5gemKPU3y0gzSD+O9m1Eip+VapUia3Y0RZQNeO59+/3XHINUJnkHsaJXw5PtoO69Zkx/bwTvW9h2TspBTEErVg6oufuDDu3+ubuVSgDUTyxMNSPraLotQmRkbtdq38D1wrec/G4tOPH4lQ6mIKdha+E2ilthn4BJpY+6QRl9FH1w/gLDC1jFsw/anOsguGPVVOsbJZ6tpSprXVRIYVVNMoOGjVypBmSePfdd+ze4o3yZkZktD3O0/wQf86cuaTR99pfKXMPbd261VbJ6FeYZPqidm0pqP3lFVdcrgICwpffC5hkfpngoh9i1QXy5Q+Rpo4q4LVr28aY6U9UgD3zjDNtwguaOm2qCQCUEeTTj/DE8RAYsyFdhDdw0EC57vrrIpX5ZMFutOaV91559RUN+wwT4k4//TQrP8rtrLPOkuOPP85WnhAu3nnnHSmg/eR8E1JdntEqQN0SgzorV7l9xQ2+bGCriYNUsIC+/PJLHU+ulgED+tt9fD5rfuG0MtinBuHu6p6YgM6ZiUyW+f2NNiGi9O23DU3VlokvBLFnSpWS0087zfJxyikn2/UZZ5xuv6gRlitfPvZufPwIhZ988okJYm6/ptMIyZ8/nxQsUIAEuYmQKE20X1awEL5ZAa2r41SRe+81wXD06NEaxw5b6SxY8A7Ztm2LRrY3Fi+q0NTZnpFl2jffeN1WO1lVJR6IMEgL3xwiXlSIqa8XXHC+qUYjzPLe2WefZb8nnXSi1vET5NRTTpETTjhex8SrrI4i2F188UVWVo7cN2un9ZOjTzr/5AzPLPltkY2zCNEQezlv1vwwvhpp2nz9YgKU9sFxJEZax1y7j9q0UhDsAgKODKQS7GAkYB5ozAH/Goh+bCUv2Pm9KewLy5DhCvng/fdtHxkEY/LyKy+bfj7MEtTmxx9V6LkxdgiyJwapq6660mbNGTTfeutNOfXUU8xIBGqZEDODt952q63gsUoGMSChkjJBBR9okw6qrOw9rMKTpwcfeNAEQE8TJ0wwxo1ZVAZFrKehwhRv5W/x4t9sdv/2vHmNeejcqZPceeedpvLiCSGS9BS5p4gd48DsfdGHHzYDEXNmz4p8ucEawZU9FaT7PhXcnnqqhA3G7F9igHtG87RBmUpPlZTBOvecc6WjvgtxKDRCXC4VSIdFe30g9mQxw9smli7HqHlVun2+X0CagO8bHcPjGEJWR/ieG9b7VSAEKxhG9RN9S1u949vqNwamkqZh+F8T/PAbMVHUb4Qqf09cxOlXdvfqe1hsxd2t0Ll4LMzoPVYHqU/qaO+iGrxdGVLPrBEH/vHjr1lhpB37dFlcGqcLh/CdsIc7NH/eHBXsMJ4Ck+fSSToSQmm9llGyYOcMSfjnln8ljE7QR7Hqzyr93XfdLTegiqmCzUcffWh9SzkVzj7TfgADF/1VAPDEfsPvvmso5cu9KyWeesriQqUQppxJFsKtX8/1F55hZW/h++9XkHzK8LMHDqM0znhKC3zJbGV4n3/+eZuEevmlMvLhBxWkU+fOdszDJZdcLIt/W6jeova7c6dpRcAgo2oIIWyjfkgZs7eJSR4mmVjRQyWd/YNoQHDEBYT6JH0jKo72faNyefutt8zQzVpfbkp9evc2DQzfTzdp/L0JBEMQvPTdp54qbiqGhE35vV+hvLxfvpx8rOX4Rc3PpWevnrJ50wbb04WgumrlChN2yDerahxNgXofK2VQ4yaNbYXOjwP16tax4zr8N3D13dWNGp/XME2KEdHqHvVoj1kZdsdk3H///WYRduNGJkRcm4HYQ4r2yC8qFG/SZ0yasYL6ngrLWIutXOkzHa8qmAEiDJhw+P/WzU693tVzt2LHRAFn1+VSIX0MApYSEyi5tGw56D9ZDX+PnePIxCWrZ2XLvGjHA3Am4Jta5rlz3yATxk+w9nvfffeaYMRKuCOt8xoX4wvjgd+7/roK6afpOPjrjMhIjeaP1cAbNCyMHfmjJzC6w4TkxRddaONV+3ZtTUsFfgzVY77Xx5rnD/TbYWwHIzMY1+HIE1Zqf4oEOKvLSozTqFQyqQEh2KEi6q1iospM+hGGHUWTMUpzZs80ozWUs5G1fU0nz6Nvs69gF323gICANIV0zOKVUgbVSDucJJgHOp6Afw3smyphpc1UMbs5dYv3lEFiNtfvAbFKoTR48EBjIrBAxv4w9gxkypTRBDc6/grlykm5996T558rbYMBHT2qJC+/XNb2NPyqA4iRDq5r16xSBuMpGzSXL3P6+xg6YGDyg/5GZfhYVXtE/RjpYFKo4B1y44253VlWSlMmT5Kbbr7JVspQZSlTpowNujCXRlGFHjFsqHTu2EE2blirjMpyO8vHGFPzs9f2q/Be4TsLm0onexOIm303zg/h7DY1lo4d2tn+hTWrV9rhzcwwc3jz999/Lxm1PLBoZkQ5Ky3m3CAVUNljwqDI2WEwea+/nvIcod7KGLFK+tVXDcwVhplvlLSXFRZ37b9dQNqB/y62khW1qSGDB0n1GtWVuUTAT9LHOxQIQMrEal1CQPICVxLCkoUTfW/FbmUwJe67O7i4AOEArnl3tzKn/p53fFyEwzW/wPsHdkRB5FcfaHvYmuzH0hjtR4U59mERR1xafZz8Amj+3NlS9OGH9IpZQoSz5Dj3gdL6dWtM2HpY3+HaUcQgKmEl8ZFHHrH2uWLFCjehcu99ytw/Ys/jiXZdp/YXynSPlX59+5jgsmhBsuoi6qkIAKxUjVfGfuaM6baawWpePLFfFrVrBA2Ec/ZWMaHUIjKM8rb2eaxwDUt15AQCACtLtHlPbdv8aOps9b0KHn2JMc4qIM761QTLkiVLxgxEQYsXLbA9Za+/5lZRUBllpQsDHAhDexGk9X2sojL5tHypU32HWEXMkuUaqVK1st1jGAeDHoMHDtBX9sqLL7wghQvfaXsM44n+9pOPP7JD6wmbvhTDJTFrqJpuJtvo7zDOgdAB2YRczutlkI4PENYfyZM7h9EJdBD1l298e57bZLUKIkZx9WDH1q2m3XHzLbfIksWRRdDo/YZffWVGYX7p0V22bd1s6o+s2noB19OaVStNyJs8CYMgKqBoWe3StrFThaU91hZ2SZUqlW1SgGN7oN36PVmZRbCjjkOEW678e6ZtMTBaefRUtVo1E7L9kSFPP13StFYQmIz4vkrkn4lJrwJJncFgydTJE+0eYmKBes1+NpUorYwwUlS8+JNyuY4RG9ev0fj7mbEThNrUxESj1UlNN8f+MGbF1HIpG00L9Q/Brns3Z3jmt4XzbcXu5cjKLnvMmdBEa2WN/y5Rubeh7uqY1qaNM1rk+hWte4QdfTfKAcMzWNt07yn8dw0ICEgzCILdfwA2k66ENUon2LmO323yPiPGLBjjp501K2kwEWzyxuAHM4imBqNM0oknYu3tFLP6hkoMzBL+Vq9aYZvVWSFjz4KRMhcwcAzMDPRu/xkrffVMsPOm2BGWYFBMrUvfgQEueEcB28zuBTvSxL6Tmp/XNEGLFbQSJZ6yWV33TrKxlHhi9Yw9bTAIrC6gasIeA1SM8M9qI4MkAyd1H7hySKbly5bJ/RZfCZvJxqQ3Kp4xk+tR+aLOgxBLulAjmqrC6JVXZjDz4ZClTwfgQcpAMAB/+607mNq3OX7xE9pg2oT/LvGCHSt2latUUUaYur1XmdYt9oz6qBfmxkSBhcE7Wldxw49jnhCodhtTyj0MnwlWkRCIoIgwF4tb64fVzygdgPu9KoDhF39OSHPhWPikQ+89XDwuPGDpje592Knh3WN+leYdoGBHu6UtsgrDnl1UQE1Q1F/UOtl/hJDjV+FRp+ZIAPaW1a1Tx9QDsfA5d/YcY1CxTrhg3jzp8tNPcsLxJ9pKC+0TFWtW1surEHfyySdrPzNAhdA5NglFW/+xdStbrccfTDkqbvRJmgnpaefY5ZCmTZvYBBIrKqiBjlGmlvSsW7PGVgEzZbzKmHzChYYMHiy5b8glb7/9lkunlj3flF9WRQaqsEVf+dJLZdRdv4vmefy4MWYl89RTTpX3okPpmWRjVaT0c8+5srayS5KPVRBj5Wq5We90gnD//n2t32SyC2rc6Duz2Nm/nzOeAoNv+5jLl7e9wagnsgpKnPQ/qB5CrOgU1n4bw058R7BN8/7kE0+YYEffDvkJOYzXkNaNKgiy+npdjuusL6c8meDjqAFU2/1kGavL1FsfNoRl1oxahh9/9JF9K1Y2MZSTL29eUxlFeGEltGWL5paHypUr2yQh35/9cUwUsl2AMjTScorVTYtnt/XTrNixRw2iXbA1AMHOT05Qr1ndveyyS6VXr56WL9owx1CwrYDVWwzPQFisvVzzVb7ce7a6SVqYCGACEs0MLxgyrp6iY+QUEzodjRs7WnKqkMgRCzZemSrnNhuXqJdrtW0wEYlq/92FC6vAOsm+F6rP1DcEdtSIiZM6miWLjuPRfjiX3yS34nfBBVa/od8WzLewXy5b1uouRPzsNf2iVi2byGDVcsK4caZyilbOnGhMi5VlXPtlEtSt2KlgF/VjsecBAQFpBkGw+y+ADliJTdkMhqivQKg1MWguiFa9vAA4ZcokG4QwjoLQxd40rIlNmzpZFi5cqIzVTNtbMk+ZGiyaofe/WQd0M3SQP78sjJs5X7ViuTz2+GO2R42BGULAZIDAshjEAAODAtOnqbBBo5AKTrlyXh8bgFFrZMUOQxUrVyyzgR3VGGNGlBwDu9fiW6qCJQwVqjrEw5lVzOxOmzrNVDExzoIRBQbEXr1+sVlnLLL5cGBEmBldvHCBbNq0yWasEToR2LBehroV4aI2BRnTq7Ri+VK57bZbzRACAymW2VB19YIdTDv569u7l80Q+zhxdys7ySp2sW8XkGbg+8bUgh0z+6Yip/XJVln0O+KH1QPUH6mLrA5v3bTRzlP7TcF3dipjyWHznvt1wpkT7pRpi/yYEET9UD/AC3AwsSZERM+dMOHcSAfp8mE4pL6Px/6epXJXOlDBjlVw9m0x5jDzzz5WLEciLFydKbOtgqMWCZNradb2zKodAgbMKH7QJEA4Y+KpgzLfEGqdqC6yOoHhFZ5frW2aNoYa5TrtI8aNG2uWM7FUSPvPrnGzQoEA8tJLZWVRtPKGVUiMWWAYCYGsaZMmJsDB+DMhRPilNC6MTGHg6c5CBW1lHlVGzMeTJ1SvSUPWrFnkcn0PVV2OU3jj9ddNSCVe9svBSLMfr5CGwX7Br1SgXaB9aWbNJ+Vk/QXloPTmG2/Y6j+TcKaSq4RhlkvVze+x+/qrL23fWT8VvCD6ZIyRUA7XXJ1Z03+tTTSxIokxJ+oXE2eltYzy5r096p/dCioqmgjgWPX0K1QdO3SwNJx7zjlS8eOPzQ0BDKGAMqNsMuv4ggGP1zWvc021nVVsv7K8U3bZRF2SxrXGvnXGqzLqd81kKqN8H85atKMdVEiBSBPlbXmIvi1C1C233GJWKglXK1iqusYYskc+0PGNMCdMGGdh0T6oa6ycWTpMOBEVHlvYtyJvOXJkl9y5brA95Gin8N0RbhfomEafXqFCeZtQYMxA8CPP2VX4u1rrMXUHelkFZb4D9cKT1T/NIxMUSdE3pW9gXGHiYNHC+ZqcvbbHk7xh9AQLnNk0XVjOpD6wPxPqqvlmbznn8UG+PrRq2cJWlzmbD2KSA2uq7OF8WOOZNm2K7NA+A9VcVDQpG9LOfvasWbPZ+24ccn2RhRvXfsOKXUDAkYFgPOU/AL9BGpVJGB5mJiFMcmfWgdLNVicT522xzwGrart377bN9aia+D1xnjp17mSDEGfNYRWwbLRi55kkiNWuYsWK2Vlvq6P9IVgLIzwszkHM8jLgesGOAe4uDYcZar9BHb/EBROzfft2s6bJAIvxCk8cuvzAAw/YmUtsBmfguvmmm3VAdwMfxODIe6wgQpxDd/3115lBGPbIeOLMqGxZskrz5i1kzapVFiarcaiLYbSAGW/P3HhidfAidecgZIg0o5rFbDPk969gbCD9xZckr0wg2CmYPbXvFdpgmoT/Ln6fGoRg9/nnNW2FFqMo7FHzjNagQQOk4iefmIBPG2SW/+OKH8XOvbN2qfAGSagDdm0Cn9uP593xB5wwmOoZzLP+xj8jHYRlq2I+vVEYBwVKB2o8hRXtKlWrmjB0V+E7bXUCoYa9s88/X9r6Ea8OSF689Vv6B8zpY+Apn/p9SRlnjKGwSuHzP3/+PLN2i1rlHQUKyIPaD2AAZSmCkKZr5MgR1hbpA7ES+fjjj9nKDas6Zn3SwtpjFhAxCMVeL4jVJFZqUMXOnz+/HepOXJihZ49tyRIlzPrtQw8+aEac0AQgfwXvuMPyl+e227S/q2PfANP87BMrkD+fWeHkfDbqAYeQI+Sx4sbEE1Z8mcBK/r7O4uHTJUtaHeKbQqQVVT7CIf1dtT/Pr4LYyOHD9dYJaJwX16xZM9tHjApesSeKyaCBTlOC59QRrGq++87bgol8wuF78a1YCcTiI1aBCQ+rmpx1d/vteaRqlSrqzX3XYcOG2YH7rPpR9pSx7+t9n+brILDJK3XDEBUHwSM4oQr61ddfad86SMq8VCbak5xkwiCru+x1xnqpGcjR7zNY250vG8JPgaguIpxjERKBhvTTJl595WV5/bVXzR97SQmfI3AwmFJM6wQTcxgUYwKGb8NqJkL8Qr33xFEY1Nt7NN1MGn6pYKziDESobu0vpEC+/DJTxxbqFGU6ffp0U3k1q6iUiRJ79T6u+LEdycHkBN8C4lgH9nCiyoq2C/vy5sdZSGVlE2HXabxE+dX89O/b18Ypzh70fUvnzp3N6AtxeEuYa9eukYYNG8o9d99t5cn5elgd3YvxJX3Hv5ui31AKxlMCAo4MBMHu3w7tgP0AiEVKZhp7oOaihOGQYk88YbOtnIfTUZkZ1CoRoDAc4s+SwlQzKpxY9ULPn8NcUQ9BTQWGgZlBBk1mfgvrYIf1LU/E8cQTT5pgB5MB1a5dx2bXUdXhjB/8MBPv99KQXpiE3DfcENuojmUzrGJi6QyCmWAm8zZlnDDfzcCMKuh5550rX9T6wkycw2QQD3sLO7RvL3W+qCUlSz5ts+U35M5lAu5uFeYqKrPNLDRMDOFgXY4ZePLL3j7SzSz/E1pWWOBjjwzMJeVWo0Z1s6T21VdfWrmxkugs5bHKON7OzqpWzRk3cIKdG5iZuTe1HCXP2AMGU/teib5lwGGF7xtjDI8SEwus2FEvmECgPhkzq8QMOBbvMNVvRDgR2WpcHFEHTDCM238FURf85MY+FKVFL2Jx7kvRsyjtBw1KByTYAc8M/h6pP1bL8etXD/ZHlA3lRt/ze0T5OVPytFd3Xl1qIgxf9n5lPVamlvaI4q8j8gz575GvL79PMNXJ/sif/74+Xp9fhLv4MOO/P+/xzK3+J47XfyvrazR88s6KFL/kn3hMfZKn6s9Wh1OVg60Gm2CRiFx9IF3xkwveEiUGbVKEFyMnkIJY/hP6U2d97vOxPxAG5UV+rB3hrkS4GM5BJde77Us+LVCSDBk02AylMLZ4In7O+mOllvPwjKI0kT4rV/11zq5fJy2xvEXkn1l+ElJUBxTkx+cFIZF3cHP1Fue4cSSeonf5TUQ+TbG0RfF5/0GwCwg4MhAEu/8ClNjDwMoRwlCXrl3dwKo0a/YseapECdsvh/qIFzgQUt7/4APt5N1Aw2Z2TPbjB2B2nNnMmTOTzwh65plSJgwxo+0Js+YIO3epYIQ1NAgDJghphMPs+JIli00N5v777rXnpBUVEvbUscEcGjXKDSqs1G2OzgxDEOWQ4v9FaeJcKWaZ161ze/nY98JeOJ9m3mdVgBnuY489VgoWKmQm2Bmo3y33rlx62WUxv5zB5Mx6J1n6EOxQTeL8OggLmli2wwod/o895hhb0ePQWojZ7DE6EKLqWqnSpzE3wkN9CfWbLxs44yn+OxkD4gfegDQH3zfC9HgGjHPsqlevLhvXr7d6q5yrrV536tTJ9mXy/dmnheobKxSszmCWnBURZu/rN6gnS5YucQzvXhjqXVrffpNPP6loddUxf0m2KlTz8xqmkofRCKubUbr8GXpYhcWaH4aN3nzzDVvl4dwy/NgKTuT/oEDpQAU7GEbHbLq04N+EouiaXxMoTA0sWr2MC5MycuXuVpr8sxRMaBQ2vz4MaOyYMabOh0ENyIVjF8npiq755blngr2b/otj1N0qCXGjzhhLJ+R/lbx7fLjuOYyxKzNbmVSBDqEOIQi/hujb27vRe0x0ESfpgKnnWXyaoFgcCvrPGDOvwB/PXTm7PVz+0HDiM2FN/dk7kF7jzwvZFjbxqDvXlk5WqOPC55d3eO7jsvfi3C3MWJpViCYcdd+xnYP6cU8ZBu/639izKK5EwK/FG93j35eDj19vzI8vCyN9Hssn7yrxHMLaJGqNrNZhpZJVy2eeeVrOOvNMefe9dzUM0uPqBeTLmnvi9vHzSznz3MWd3AYsHdH7Pg0uHJdXxgf3bdwKJMCfDxu/biLIrXYSnitn9325tvtYuC4OwnWCerJADfxzKAh2AQFHBoJg928HHbx21HTcCGFYMkOlxjMIECqMCEEd27czBpKBYYQKX5MnT0ru/JVQR0EoQYd/yJDBtv8F8gPLhPHjLBwELwYswkG9cdSIEWY9EAbUZn81Xlbqfv6pk6l3ou7U85dfbM8dacIa3aCBA+wdwiAN7KXDzDMHGGMmmnwRL2fVkSfSRJpt0FJithqaOmWy7cVg/wN+IfKLwYXhw4aaoQNMwZNmrKf91LmTmfNGbQoiLajkIKSxxwBLbX7ghjlHremnzp3NUIEX+mw2XYHQyD4YjkcgXU5db7cJiuyTIA6YOT84w9j4AVUfuO8XkGbg+8YYw6PEih1WMdl7ySQI9Z76MnLkSHmpTBnbK4P1Wczo//abO47j0cce07qzwdQSUeml/kA+zObNfrDjRlg9hjjg/vFixUwNGbU6VOeKFLlXGtSvb3Vqp9afqVOnmtoWZ7Jh9hwLhqhFYxgCtTJHB7FOKR2oYGd1XOu/h3enzIBnwqn71g9E7YJf/OPHqWdGgh1hRPHST+Dmvw1hWVsyP06wY/WcIxMgmFifXvz59MSnzYfHNcC/pUH7ThOm9N76D+JRd64tbgVhxIdvzHZcGPzi7n9NDU7zwnvk17ntMkGHuLxwwPNY2tU/cZIe7lOHaWHgX3+9EMh1LHwft7rrS+69KM+4edjeTdyid/AXe0d/eebj988A6caP5Uv9mOCg91z7MvBCqU8Tz3GnvHxY8enBzceH39+DhRMndPMbW8WM7n24/t67+ThIpz3XPGzVsuaQdlRR/WQiRzpgkItjCCD8W56ivPjxi/DIo4/HvqX+4s634d78Rm4e8f75jXfz6fZlx73Vz6hOYtGa+mHPo/L27pYmEOWP7wjgEyxcza//BsQBBcEuIODIQBDs/gOIDQhxROfN4GPf23fSCcgP5DZIJyBfXxhQPDG76AcZmM4YqT+LN9qDlEzJ8ZNOlyZHNujE3RNGCqSmWByOWdiHyI8+80QaXdr3LQPi3eeZhk8aU5enJz+Qg3giLD+IkgZP8YOyz7vlNz6PAWkC/rvE11EEO/ZDoYrJBIH/llDbtm3MuMWI4c5IEEZ47r33XjvTEYGM/Z7p018aO8OMVTVW0jlQuFDBQrZPiX1UrFzX+uILbYuajoi+ilShu3Z1Fm5ZqcYiIocce+JQZFbdhwwZoumN3k2Vp78MpQNWxYwQX46+LCmzeEaSe679M/zRFt2vu/arDP7d+Hf8Koj+sz6MyaOZv84wrQHKIt6vj8O9l8w4c4078PF7dwQGe+bfjfz55/wSDuAaWJpJb/QO/oAJbpEf0s0vz02g0l8v/JhfzbP36+Pz13ph1y6drv+ljHDnOQw/v/49fRBLk3/XmHt734Xp/Zp/8hN9Z59Hj3h/fAue+/d9H+fLSP/F3vHv8UveXdzJ30f/pfhNHa9/tj9YOhR6Y2Fz7/PswzI/cfGbEKTvxtLHtYXhiHP9pk6dYmr68+bNMcEa8mGRT58uHzbjIG4uf8n5N3+UKXHpNWVFeP6ZT6O/BzZpGeUP7M9v/DPCJx7CZ/wlHb694Qe//trSzDtRGAalINgFBBwZCILdfw10yKnc/sw3j/dj17/7Tiq/CeL8q0iU1n3SFn8dxf277n+iTFLfx2Of8FI9jyFBnCn8/967AYcd/lt5Bgpygl1Vs+yKYBb7nkoYb0A9mNVoCIawSJEipn7M6jWMFdYD2Sfq96XOmjnT9sHWqF7d7t94/TVTU/b7d0zdS2mLCiq8hwEPCJP2Rx91lKmJ1ald21a7OevNjLT8E/VK6a8KdvvDn3o/dTz7fSeVezzFu6fC76Uh4bOoHf8Z7C/sePd9rlOFv78w9of9hR2PAw3zj5A6vAMJ/2CnJRGII2U8fyJO739/lNp/Kvj4fjd/Ud1O4SeB/98N4w8Q/+4BhaOEYMe5fkGwCwhI2wiCXUBAQMCfgO8bUwt2VatWNcuNEM/MvxJqW5xd1qe3Mz+PYIe6ZLFiT5gaL8TRI1muyWJ7WCGs1XEu1kwV8CAEJ0ybmxozKxm2/8jNvGMlkuNFUOXyVhoxwX7csceakIdBB6wVzpodGXU4mOq9SgdbsAsICEijUAordgEBRwaCYBcQEBDwJ5BIsOOQZ44FQRWTZ17VCmrSpLFcetml0iMS2hDsOFifFbsNkWDHvsz777/fjKUgeJUsWcKOF3GUZMJahsuvMDP4SXucuhXu/HJ+2KNFH9E4nZoYq3OYOq9Zs6a89dabZuzo3HPOkVdefdUEQaO4/PwtKAXBLiDgPwKlINgFBBwZCIJdQEBAwJ9AIsGOFbsqVatEK3ZO4EK4gzgCg+MOOHQYQrDjzC4MmpggqMRqG8dxcHYZYXGulDvDy1Hbtm3tTMlOndy5ap44sB/DDZxxhRVY1EGbN2sWPXU0duxYufXWW21Pn98H5PPyt6EUBLuAgP8IlIJgFxBwZCAIdgEBAQF/AgkFuyFDpFr1GrEjB3D3gl3nzp0kU+ZM0qzZD7Jl0yZZvnyZCXbFVbBzBzg75mj69GlS9JGicv8D99tZjKy8mdqkEiqb7MPLly+fDB02VNZv2CDjx42Te4oUsUOHV2qY27Zulddee9VUNjkigYOmN2l8/VSgzJ07t53h6MJTpMrTX4ZSEOwCAv4jUAqCXUDAkYF0J514opSKNuDL3t2ShMVC9nEEBKRJKPOY0D0g4J+F7xvNal5k2XXokMG2Yrdh3VrtT50f+1VBasXypfLuu+9I3ry326rc2jWr5KWyZaRs2bKy3o4KUWEoaY8dofHWm29Irpw5pWOHDhoFlhKxjOfULjesWyf16ta18/CK3HO3PPboo/LZZ5/K8qVLLL6tKlRi9fHHH1tL0aIP2/l5+HvxhRdk6ODBkWXEg9xulObNnS1FH35Ir3Qw4XBtrOsl8hsQEHBkQ4njfq67Lod8bof8uzaf0G9AQMBhRQrBzpiSCIk8BwQcCsTXw1hdTHLP9mLGPM6PPQsIOATw9Y06aNdKQ4cOlqrVqskWVtlUCEMo4/nunRwPstd+t2zaYOB6uwpxmCvnmjD2YNJesXPbVnvmwk+u185MObRXtqvwtnnjetnImXm0gyg+lxa3IoeQt3H9OhUG18gW1D33sLL4DzBgSvNVsHv4oQct3r17MBP/DwiQAQEBhw2xMVaJs1yvy5FDqpvF3iDYBQSkVaQ74fjjpfRzz1rDDRQoUKBAf57GjhkpX3/ztRNo/mO0dPEiKVniqeguUKBA/2aaMH6c3Jg7txPsrL8Lgl1AQFpEurPPOkuKFLlH2rVvKz/80FRatmwhrRQtmjezvSEBAYcMWv9atGguzfW6VauWplr2bcNvpHmLZtKmdWutly2lQ/t20rp1K1dP1Q/vJAwrIOAgAaMkTZs0trpGveO3ufaP1MdKn31qh443+u5bq6+444fDyfmlT00U5pEO2iDqofny5pWW2mbJK+22pZYJZZDonYCAgCMH9Hv0aY0bf2993YcffSAZM2aUevXqCYe2s1JvAl5AQECaQrqzzjxTitxbxKyv/aANuXHTJtK4SRNp0rSpNA0IOERoBvOsvz/8oHVQ61+z5irgKd566y15+ZVX5Mc2P+ozBpxmKug1l6bKMFNfQz0N+Meh9a5JEyYdVFDTOtfo+++tfrZQZuezSpXsbLpGjRppfW1hdRf/CDhNm/7g7hOFeYSDtklbbNCggbRq1crcGqvwa2Wk+U/tPyAg4AgD421zHY8bN5bWrX+UTz79VDJedZXUrVtXvPEob6whICAg7cD22D37bCnb7M8sDBbddu7Ybpbf9u7ZHRBwSMBAsXcP2C27du40M/Dbt22Vtu3ayXfffSd798bVTfWTXD/dOwEB/zSoo7u0DlIPqYMcGD540ECpXaeubN60yfzwbMf2rXZuHPg396N+nCDPtFeuXZ4T+w8ICDhyQDvmmBSu4Q9HjBhuVnY5J1O5xyDYBQSkUaQ77bRT5dlSpZIbqS2vRx4CBTpUFF/fomsGFFbqmDVMSVpH/YxhoECHhKJ+MSKzNKk0YvgwZzwlOu7A6D/YfyLc0V4dRUxfoECBjmDyfZ5rz6NHj5QbbrhBqml/F2vjvq8LCAhIMzDjKc9EVjHjZ5fDmUQBhxKx+qYDBrP+psOvQKUNFS9fP0O9DDhcoO6lqINKgwcNkipVqsiG9evsnlU8v1Jnfv4DoDw44sFf8xsQEHDkw7QT6MuURo0aKTlz5pSqVavS05lboncCAgIOL9KdeMKJKtiVTNFIg2AXcDgRzzyzZ+e7Rt9Z9aReMtDg7pjJUEcDDh38pBcwN6UhQ4bI5zU/d4eKK1EnvZ//Qh39r+U3IOC/BuvvlEaOdCt2QRUzICBtI93JJ50kpZ55JtZIw8AccLiQgjHUgYPrlq1ayvfffx+rn17oS+E3IOAQwNe32MSD0tChQ2zFzgt23p8xQ3HvBgQEBByxUBrFOXbXXSeff/45HZ25JfQbEBBwWBEEu4A0A+perP4FwS4gjcHXt9SCHapJQbALCAj410IpCHYBAUcGgmAXkGZA3YvVvyDYBaQx+PoWBLuAgID/FJSCYBcQcGQgCHYBaQbUvVj9C4JdQBqDr29BsAsICPhPQSkIdgEBRwZSCXYwyzAkMDD/NDQBEpeY1Nfx9zEkCuffBM2j5TvRs4ONA4jrEKWJuherfxon1ykFu2SrhCn8BgQcAvj65uqgXislC3Yb7N7727sHq5iJw9k/aGdRu7Q2d2ja3aHBvy0/hwKHurz+6Bsdym94qPP+RziUeU+DUNpXsFMk8hsQEHBYYQeUl4qOOxCYZRgSmJZ/En6250ApUVj/JsRIyyfR84OJGP1BXPGU6PlBBHUvVv+0cnLdsmULFewaxeLfs2unuqfyeySDhugHyUTgeaL3jlTE8qtMUqLnaRi+vrk6qNdKQ4cMdoLdxvUuX5G/vbt3pnj3D/F7dKTXAfveESV6HrAvDnWZWbuMKFF9s8mGiP7p+pgW64unI70t/lUojR41UgW7HPJ5jRp6R3048vrwgID/Ag69YKed9vBhQ+XRRx6Re+6+Sx55+GF54P775dGiRdWtqDz4wP1yX5EicmehgvLeu+9I9+7d7DiGn37qrGmLY6o0LM9A7d6xza7jsXfXDtm5fWuKjtj5j5iupN3u3Z3bzd372aPv4b5z+zb93SW7NGz8+HB8GPzi19/zLHV43Hs3fnGLd+cav+RLkpLkp44d5P7775Nfp0+ze/Lq8uvyHB8GIN5YfFF+HJL9erckoP62b9ls36DnL90lb97bZeTwYXaPX5AirZqGwQMHyJ13FpJBA/rbPc84nHnv7h1WNns4cy6Kb/cOLaconL8CVxbRt9Dy5vrfKtiRduoP+aGuuetkxOqdMTluAMXdyt7qRXL9dmXhvrUvk0RlY/UsIt43t6guu+/q6pK/Tx0GbsDfp34ef+/fB5aPOD/x4Xg/zt39+rT5MLhOC/BpifVBSn9HsKNdu28ssmD+PGlQv548UvRhubfIPXL3XYXl448+kqmTJ6lf1/fY90lQJty7OPnV+rRN6wXPtG7Q3mmj8f64Tl22e3Ztt3LHzX8v78f/4p78zIVFeqiTdh0H3sEPfcaUKZPkxRdfkI4d2tu9f9+eR/ED6jx1m/e5p74SX6yuWtj7litxmZ/Yey5+3iVM3Hze+HVp03D03pdVzC0K04fhf7176jT7MGNp1bKgH6Rc/Hv48d8NP/4d6pF/jrsrL/3WWkajR46QJ54oJn379o6VGXmxsDQu2r7PG/Hs0j6Eaw/Ccn6T0+vjjXd3cSbJ+nVr5OOPP5L3P6gga9estrrs/Gka9Xrzxg3y1ltvygfvvy9rVq2MhWHQ+AnXxwNcfpLLgHji0+SfuXKgX4v6CE3LiBHDpPRzz0m/Pn0it6j+U676Lte8G3tHEWuT0b1z27fe+/wTlpWnuu3YtiXy48vDla+9k7TX3GrVrClly74ka1evsjQSVjz8+6TJx0saKRt/bd87SodPjy8Tnlt/7t9TN59f964bc7n39cb73bF1S+Qnub6SDn8d/6sXcd8m5Tf7XShxjp1bsVPBjtXLINgFBKRJHFLBjo5PewTp0b273HjjjXJZ+vSS4YoMcmWGDHL++efLueeeI1demUGuuPwKuejCC034a9y4sQkgX37ZwDph67S0w0PViesdOjDTQTNAu87KdZS7Ij88262dousYd8r2rZujjs4Nxlz7TtC575IN69fae7wTe2bpd88JR//ZL8DfLvXn3FwHz7UL28XLtQ0khBWBNO7hmfqFaiiDmC5dOhk8aKDd48fi0oGN/LmBQQcdveaZj4M4LZ+kNUoD4ZJ/4mfQ92m0Tn3vXmnTupWceuqp0lO/RXxc/OIXYQPq2L69pald2zZ2b/lVuPgQQBjIojLQa74N6SVtBwri9vkiDK7/vSt2mj/N45DBg6TIPfdIlmuukaxZstjvNVdfrcgsjz76iHRo387Vd/2mO7XM+aa+ztv30rB8HSVcqy/6674H9c3FhzvfdM3qlcqcrIzK0TEJ2zZvMoaU70r7wC/vbtuyyb6p92d1NRaP1jmN1wulXrgnfdzjP+aPOqHX+lFl/PhxUrRoUWnUiG+618LzaeaXe/LDO7xr76UR+Lz7soP+nmCnYSiDNGvWTHnwgQesz7vqyislY8ar5PLLLpP0l1wiOXJkl2bNfrD2QHlY+9Vf3x+5e8fUmbu68S35js7NPfPt06fN1xlX1q7vcHB9Hn4tnz6d+uvjhQHFj3MjrGQG2odNXeF9dZThw4bJFVdcIbVqufOvLFytl+xDxL+Fp/H5Ou0n1TwI18KO0mt1njoXufM++aNdELYJs+RZw6KO7oiYdGB5U5Bm58/VVe4tDo0PN72x3y0q0MTHRbn497h3cbrxhfT7vtbD0hu9Szsj7QgStC3KwLdR70c9WL3q9UsPOf7446Ve3Tp278uZcrL8Ep6GQRy+zfk8qIP98o7/5ble6K8bM7dF46B9OyWEuaeKPyWPPf6YrFyx3NzsG2s57NJ369erJ7fccrMJW7t2afmpG2H68OPBe6SJZ9tV6LCJBau/Lj2kgWu+M3nZqOOtLyvqB5O5V111lTRs2NDuLQ3q1/cJfqz338WFq2UYVweB/rN7D+ceXStcH7fZ4iUd8fWN5xauhoHbk088IZddfpn8tmiBlQ1uVmc1Xa4sojTE4nHlwD2/Vib6DuXhw+UZID+E5e99P2x9cpRHH4b3Qz3hmUH980v48W6uT3Z11qdJ/8XCcHXPte0/hFJYsQsIODJwyIynEK7tTdFOmoFl44b1sl1/t2/fLjNn/ir5CxSQ1157TdboAIPbFu1wtyrMCEFEu+joCIM0JqAddP4MbvHPE/jFT2ri4GsTZkivUqwc4sgGpGgAMWZAkZD0PZfuJPt1DIkbeLnfqR1tIqpft66cpN9j9OhRds+AQce8D2n4xO3Ssie61jhIT1yaed/7pdw8MQCRNnfj0kjnnyg/HVWwOOqoo6S9/kKE45mB1OTTZGn4CyAvyeX+HzCeotSvX1/JnCmzZM2aRQW8u6VQwYJyZ6FChhzZsxuD36plS2XkXH6pu5Sx+6a+vPUZjJNe+zpK+PyaGwO6lufi3xbJPXffbe2MtpKkfnjm643VUb22sPU9X8aE6dquC5Nr/x38L+HxjLrNvf5zfvXdndqeLQ6l/v37y9UqvNauXdv84e7DAbwTf084aQU+Xz7P0N8xnpK0d68yyTvlgw/fl1NPOUXq1qmj4Wyy/o++r0uXLibkX505s0ybOoXAXRwRUXaecYsn+oIYEVcckbYdytClJhN2CE/TvVUFkP2R/0bx8H1hfP8ZT8NHjJAsWbJIPRUOIOqRrw+pCXfCc2XtypH+ijEDN54lioNnvtyt3qQqKyN9TvtJ3X+5/jCZdmxLUD5axqnHln36Zk2XFz5IR8I0qB/LQ6JnTHRonYB69ewpl156qfyAUJ+aNA2UE2nhN9F4BlG3rPwYr0hrgnIzwj3umSvzqH9VWq+C1ycVP5bBQwbbPeTrAWmGrPxTlSOEP8Dz2LXG5dONoJOaunT52U1oNG9m9z6viQh3/11MWNPrPbt9vxeNiQkIYZVv5cLVb5GgbPwzwnn++dJy8003yeLFi9zDOHJxuz4Z/wnj1PCtvPQX/1YO+5SX64N57v0QXmqyNh/5S6aU/qw/tvf3JZ9WF4/rb/Xf70MpGE8JCDgycGitYkadnuuwkmnZsqVSQAW7l156SXbHnrmOY/XqVdJVO/oZ06cbs+nCEflt0SLp3rWLMr0tpGPHDrJs+VJ7Rvh7dVAao51Qz196yDYdOKYqU/Tjj61t9Ynw7P3Fv5lqUKsWzWXmr7/qu9o5ayf3mzK/xDdv7lwNc5nNHrZo1kxGjRypA7JLG+nwzNSypUulU6eO0rpVK+nVq6cs0XBJO34YaFznGTEymj6711863kGDBlr6WZVZv369tNCB7LjjjpMRw4db2OrR/I4YMVxaq782mof+/fvJxo3OUENy55yMtWvXSOeOHW1whDnkffdsrzH2HTt0kNmzZtn1jz+2kqVLl2hak/M1ZswYad+unWGp5o2Z42OOOcapUSkR1nZL+yBp1rSJ/Ni6lQwaOCBWrpSjevpL8Hmwey1Drv/tgl2PHj3kGhV0mjRpbPfxBDOfO3duue22W62NxFM8UwATZvUrAeHPM7KrV6+2dlaufHm7hxjkrRwTkB/0Y2WdgHjfMyxuwmJfRgRi1QQaNHig5Mx5vdRWIYY6yeqxEzz3Jb61pT2NfGdf33wdhP6WVUylFcuWyaOPPmrfZYX2NzGKntepU1vy5MkjnTp3tnvaa2ftb6ZNnWrt1ZXhHm3P2p91bC8LF8w3d/oQhIMtWzaZ3x9bt5aff/7JJs6gefPm2io8br/+OiMSDly/BdFvDhwwwPq+tm1+lGHDhsqG9evMD/H5euO/P4KX9UfaZ02dMsX6QyaDxo0bJ0P13euvv06/eW0Lmz6JcBYuXGBhk7a+fXpbX+rItX0fNteUOdfQdhW8UNdrq/0hfSLXO3ZE6Y/aAePIMP02zX5oanGgRrZ961aXdmX8f1u0ULp36yqLdByh3BlL6H+nTJls7+/U8Cz/Oj706d3LygOi3x7Qv7+W7zDth9drfzna+nDGibVr16qPJC1L1y9PmTxJuvz8s2zSuoE/thOsW7fW8k94vTVc3v1Zvy1jEAKJKxvtF7r3kEsuvlhaaf+3atUqe5d8TJgwPvpWGpOViyuTiRMn6BjRUsvjR/mpcydZMH8+PmLt3/ypfyZRGfNaqMCItsCWzajma5lqerinL7e8RulAOOzbp4/184xzxOO/B/3OGu1Tumoe58+fZ/Wja5cu0lLDp75s2ujaBJMG/jvGj1lc8z0oc/LWScfxmTNnSp++feS6HDmkeYsW9j5p361jLyvbP2lZtWje3Mb2TX4c1LT4+sEvaSd8P4HK2NRPw2SCjO8xd+4c88O3pIwg3BhjqYu0r7lzZusj94xwXnj+ea3D12tdWS7jx0+w8iCv1GGI7xYTpPQ9+If2bdtaO/hF07rO6gZlod8uKlvqGG20qfb9lC3aDK589HnkZ6t+C8qSekK+x44dY990x3aXt5UrV0i3rl2t3BYuXChttBynT59mz3ZouidNmmhthLz3Vv6E+k49YFKdMvLfxuL7PSgFwS4g4MjAIV2xoxOn4zKhyD9TglnJnz+/lClTJuqwkme9evXqJeedd5588cUXdk8H2r17dylSpIgcf/xxpiZ4zNFHy3333WeDN8S77777rtx6663yTcNvJHv2a83fiSecIG+/844MVIHq4YcfNjdwxx136Lsj7N1eOthmypRJ3nzrbYuD8sFPZnVDt5wO0ad7rA7W999/v/zvf/8zP6eddpqtiDBgQwwybtWMTjA5T5s2bTKG7dxzz42l4YUXXpDXX33F4kN1Cdq8eZPUq1vX1FK8vwsuuMBWXFatWmF+GIT9oMmAsGrVSrnnnrvlwgsvjM3y22CnxIw57gMHDjQmhvC6KmMH7VRmBLVX8v6//7m4HnvsUalSubKccvIpNjhAq1eulDfeeMPS4dN04QUX2rdbvHixfR/ijH3fA4DLQ1T/NAyu/5WCnebNM6n9+vUzwa6pCsmOXL49g1etWjW54YYbIoYzSQXuttLwm69lvTKITZo0Ucb1B1mtjB80bdpU+fqrr6Tixx9J3bp1ZOSIEcZIMNHxmzL+lSpVkuzZrpVbbrlFampdXrAApiTJGAxWiWvW/Fw+qVhRGmqbgTEx0nR4RpK6BQNSudJn8tmnn9iEyob1qCA6AY9vs27tGunQob2loUb16tZWN2xwfqCRI0dITmUO6tSpa/l0zJXIQmW0v/n6K/n4ow+lQYP6MlwZZxgqY3bTyHf26fB1EPq7gt16ZYYffewxY2Rnz55pbp7oL1GLm6zMGX0kRNu9/PLLpYrWCw1E/xyD9dNPP5k6exOtR/QDr776qhS+q7DU0f7j5ptvtnZ6zNHHWB0YOnSoPPjgg+bGajz1oecvv1g4EJNTr7/+upx7zjmxNn7xxRdZu3cTVyQ/uSys/4ny21v7a8Lz78EIfqb1JWfOnFYnPQ0eNEjuuuuumL+zzz7b+vABKlgYab7oLwHCmhfYYJAJ75JLLrH3jjrqf7ayVa9efRVCXJtarsJyhfcr2Gq3Dz9blqxSpUoVrYtOGGA1NGvWbFJV6yhjAVsS8MdYwKoy+xvPi/pnwoeZpT6iaXL//Q9oH3uPltFrclkUx4nHnyDPPP20zFIGG+LbVddvxErlRxrWFfrNTjvlVJmjAsOKFSvs3dNPP93ePUrHD9o4bRdBCurerZtky5pVPtT28Oyzz5o/QF9Ro0YNHRtUINMyQhBHgM6WLVvMD+Phvffea3XTvk9UV1FrvzF37pi/888/T95++20bjxDK7tKxi3ytUmEBWqMCEfvu0qdPH3sHVfFvvv46NpZNmTzZVpTffe89eU7TedyxbkxG9fb9Dz5QoWqN+aOO+HpiaVJAP6jgnUPrPu8ce+yxcvMtN8s7OkZTh+jbIAS3b7/9VnLlyiVHa33F7xladqVKlbI+D6K/pE4C6opPH/3IE088YWMz7zFxyp7xMaOcVgx1lglZvjvPAeXHRAuToPSNlPHzKtjddNNN0qB+fVOZx9/xGlbhO+9UwWuY5o0yTjJhqmnTpsZ7+PBOUL7jiWLFZOL48bGJk0UqhL2u4/gZZ5xhfsgX73SJxmO+Lf3zy2XLxuoYYHyuqXXRT4DD81Anyr78shQqVMj8WDvT97/S/pT259+lDKgXnr9g4vlP9VNAKQh2AQFHBg7pip3veAEdOx085AU7hBs6RsgYBaUBAwbI9coUfKWDCTRv7hxbxbircGGbvevbt690aN9ebtWBADU2ZiqZNWYQZ79Kzlw5paoKJ+zre1k7v3OUgcifL58xOMx0NfzmG8msAxOD0m5lIlkdu/baayVDhgzykgor3XSA/UWZHgZXGCcGX2jWrFk6QNxpfhur4PFLjx626nL11VfLtco8M1MG0XF6RpDOn0G20XffKSNzljz55JPy80+dNW3d5B0VRLPqQH7eeefabDCEP9wqa1oRAPr07iPVq1ezjvy9cuVky5YtyghEs5UarpaavdeuXRvLO4MmRLyotj700INazvksn+3attWB9DibbYWYEWZPD/u9mLGEIa+mDCuD2YUqxPkB57tvv5Nzzjlb3n7rLenTp48J3u+++44NtFWrVjE/fOu/Al837F7zwvW/dcXO0q7Uu3dvqzPNI7WjeEKgekfLFqaPVWeIfafpL00vZXXAhxm9X5lhZqQHDOgvt912m30HBvETjj/e6iazvBAqn0yQnHbKKTZ5wH4Rvp8mxgREmCYYFd6ljdyeJ4+1D4j2tGjhAltRJ4yj/neUMnDHmr+KH3/sJmM0TwiDtKOLL75Y/qfhHHvMsbZftsxLZdxMsRJM0HU5rpP6yiC5mekkGTx4sDH5p512qr2HWuLVma9WBqVujNH15XY44eubr4PQ31PFVCZU2yZCGapneZSx+0CZ4fban40ePdoEidQEo4qwQNm49Lg2j2AGg92M761un37yiU3iwLDW/uIL68PeUGHtoosukoLaT3722WfWt9HHXKl9BX0RmgAwyNVV2DnzzDOlQvny1r67du1ik0nnqKBn+/2UrM/RPJIGVxZJMkEZ19tvv10KaF/OyhGr0XxnhAkmgr797lt7d9LECcY4F1Nmt1fPX6wPZ2XsWhVObr89rzG9EOEbrLx3y05tD5Q1/R8TEPRRrLrdd9+9Knylt1U/6ItatSytr732qq2I0DczxuHGpAU0TMvxemVSYdIZd7r83EW++vJLGwtAqVLP2CQKExmMTQiSCNhMtj2tAhzMNkzyD8rE046+ViY641VXSfHixWMTGd82bChnaTkipLBHjT6cCZkKFSrI+dqOPvvsU0tb586drN89U5n8ttFe5gHq91IVqOh/P/v0UxNEWflBCGUc6ty5o/ljvLrmmqulaNGHrSx6an7Jx0UqiD/26KOxFTlWrKg3GOdi4pHv+p4KY7Rn+lcmaKgDCPzrbGVWpKqOodQX6orVA03D3Sr8EX8f7begadOmmVBJH4aBHMaJLjqWIMgwIdlX+x2Iuuy/J/0abb9nzx4qAF5u5cg4SB1lrCOd1MkWLVvau6yQMh6XLFnCxivqC2MtY+NzpUublgrkw7f2p+HjXkTDvvbabNK4sY7RGj71nZU3xkJWT+mzbr31FhMoWcHGD+MmZUrZr1Yhl/7v5bIv2bckrd9pPYaf+PbbhlZXaGPO4Az921Crx5Q9kxyk9ftGjazOImCuX7vO6vFrr75qbQIhjXqBEMkeRtQ9Z/w63cJiQiBz5kxWn6ljfEMEPfbi+n3n47XNwQ8h8FGvumqfzSTesKFDrT/ge8Jf0A6oF0xSlHiqhAq++g2SkldQ9d/vQykIdgEBRwYOuWBHx+uvLS6lpUuWSD4dPJkV28aKmJJ/BiOYPXt2G5Ad0+FWMGyWDMZQOxiYI1QNmAFtGTHIMAB0xKwaeJo+baoxtWyE9jN6DDKsTKHuhBrmmDGjJFPGTHKHMh4+LRDqNDfemNsYkj179trqAjNgqG7EU2cdoGBma9SoHqXPDTi2cqeEKtQj2unny5c3eVVEaeWqlfL444/L6Rrm+PFjbUCGoaAjX7fOqUBBa9aulmdKlZKbb77FqZQoWVlq2VgnrZ015UlaS5R4ygYliNVFytHPmqOygYplb2WsCBtBgeeo+nhC5fKVV14xRpuBF2rWrJnNntrKZUTMQl944QW2D8Eo+t4Hilid4F7TxPW/XRWTAfeaq6+Rr3XQZdYcBgvmj5UFhG1WZ7CO51XBnnu2lJxxxulSWhmaISoQUWd/nTnD6m+mTBmlozKi06dPN8uzd999lzFcg9Qfs/IDBw4wJrNEiRKmJsbEAGFcrUzMQ8oADBky2FSeYTIQCpksYcWIWeZ33n5bMmbMqAzs1xY+7yPEUV9RQ6OeMdPOyg4W5GbMmGF+PlYGHAbGzyLDUN90081SU/1Ay5YvN2aRFSsmaKYro4jwwuoNDGRfZWYcaT1OVIaHEL6+HSzBDj+EBY0fN9aY2oJ3FLT+7TYV8vLlvd1UwGi7Pr4RI0YYQ4ug4NLj2jeMN9+6RYsW6rTXhAGEdML0BBPI6gvf3wsftPESJUtKAWVOFyyYb+HRvp1xm4h5U0KV8LRTTzVhD/IMYXweKleubIIAAmM8UT4IQmgMUE8+eL+C1cNJE93kF3GiMfAdQqYy8Ai2EGGTF79iPHvWTMmm9RKBML5vps/KrvXnm6++ktmzZ5na53PPPWd7FT2x+lS4cGFjwlFtHD58uJUXhrm8ajt0nzLuZ591VkwlE6qr6Wayok2bNtZGaXtoW6C6GE+1lAFHUOofCTMw/vSxTZv41XjXDzMxhoVJv5IGMVF40403at4e176ftjrQNEwef/wxU6n3xJhB2bFahZoebbtateoyeXJyelGrvPfeIjY5wwojqqFMCGXQvsSPGRCaM0wMMf6xEopg99BDD1l5YP0RYYQ27scxCLVdmHuEW+o86pFMIpL2xdFqLoSwimDHqhFCnKurUR+vv/QppUs/pwLzxdbnxNObb74pF55/gXTo2NHySBtgNYpvS1oIgwlgJi8QfoerEAO5uhhNBCm11e+FQE59jqcvta9FGJowfpz1U2hFMLkUT4yHaOmgsosaKIIdE19MiMbT9yowsjr5808/WZ1k8ph6hrYMKr/Qtm3btA1UsTqDAZKJWl9ZLS337rv23BMCHv096tGozDIhUrVaVeu7Pc2fN1f7h1xy/wMPaF53a92fYJNyjz/2WKydQAiCNVQA4/t4oh7dcUcBya6Crk0aabuz7xF9m9+FUhDsAgKODBzaPXaJoARzmjdvXin70kvWkRtFz2A2Uf+AuWcgYfaf2U5UWy668CK5WBkJwDWMDLNczIgxywhzOtqrXCjNnDFdLlBm0Vlnc4Qq2HM6wLDagYAyThms66+7PsZ4QgxEEKpIDKoTlCFhYM2fv4Cpp0G+U2VfQd7bb5dHHinqmDslVEP8njw6ZmaJEZgQjuIHd9TjTj75ZJsZxl8GHTCYnWMlDfhrmGlm49lvB/nO2b6dMcBJ8uILL8gNuW5w+weVKlb8WC6/7HLb/wKxkoPKyQBlQkhD3nz5bPC3fQuRwAyxl4ByZQ+EJ5h9BijU6hjoqijjhtoW6kVG8d/3ABDLA/caP9f/dsEOtS9meJmtZ2XUg28NM8wEQDzT8dRTxa2+j4qr11999aXWi/TGeMbTmNGjrQ7BQEHMYDNhgZoeRL2GgcmWNZsxzfGEaihMU8uWLe0ZzAt1irblCXdmhL9TxmnSpEk2y41J8HhCIGWWO5/WLyYc2EfCTDjGUyBWKk8+6WTblxNPMNYwEa9oWv0kTMIyPITw9e1gCnZ2HRH5RKBftnSJrcB+osLZrbfcat/HC7hMaCHYISgjJPk+xgt2TDSRvooqUJ+rAsTgOOGDto9wXlsFEEdJlm4EFfo1mEmIvgwtitGjRtiK0I8//igfffyxTSh4wY50+zboy+LpkiVsBQYhCnIrjkmmXskqzDfffGNMarHHH7fJIgQC9pFZXb/0Uv29wFahUTX0k3bxZdSvb197j0k1yOK1skwyFWAYaNQSEUg6qWDh/fj+G4aUySvqKn0X40OVeC0DpaIPP2xjUfxqaWstU1ZOaAtMurAqB/PO/ibIC7Yw0zDmaHBATEayQkIZOkqyiRFWo9hfDflxAXr3nXdscob9klhbZayqV69u9NT1x9u2bDGhlVXXJUsWm9v6detsYgBhFaHyu0bf2WoNaoIIaexHZ5Lm1ddc/0zZ+vEKwY8VurVr1sgTTz5hVjF5h3BYJWOPH8R3MCFb6yhjFwLyCh0HGDMp7/Llypk/T5QvfUadaCLRf0dfV1gte0CFk3tVsNwc7cVjVRZClZvJro4q2C1SwYrtDkzS0h8x7tE/0q8h/CFssYIGEbb7Fm7s+FjrLJMkCG/E7fsRxvyVK1bIJiY31J3JDfah8p369u5tkyNotmTLltU0hGhn9H1e0DOK6gtqjUxKITxSHg9p/UGtmPp8ScSbMGYzWYCWA5MXCIP0lfT9EGXj2nGSja3sVyXvlF96FXwJy/E4F1oZEA6rjuynRZMDNWcmVYxIV5Q2xvLx48ZZvejRo7upZeP3lptvli3aDs2ise/L/Hv7gxKCHfEGwS4gIG0jTQh27IlgoGJmjk6WNFg6lGBMYFgwfewHVQQjGNziOhCVeOop/X1SSj/3rK1utWvX1oSrDz543zqheAaYGToG2kY68EHMJDI7WlrjhfHEoACC4E033WiztBCzdc74RJJUeP99EwDHaTjMWKLm4QwKaOesHSQCEgwBqp4FCuSPDfixMlViIISRJ61eqHOdukh9HcTRx2eQZjb7qquuNPVS4vL5fLpkSXnz9dfltVdfkZE6EPnZUD8w+LBY7cmsgzszp6xoMhP9pJad39PUWgdszGkPVAaSdBa+625TH2FPQXw4GJI58cQTpH2kIsRRDAiA991bRJ7VevPWm28aA8Ogw7UjhMtU3/lPIPbdudcwuP63C3YwgzAG7K/gG7PKyi9qR/Xr17MVLMgbQHn8sUeNqbHzlChnJc58gvHkLCrI7b9w36BQoYJSUJkwVkQW/bbI6iUqldCqlStN6HpK4/OGCPx3hxniSBLUsVApgjFhBhxi9TkmbEXURgX8HNflMLVCR1qH+D76i9ogDPXYsVqvlalGBY4VIdLJDDdCRcwIAd9V040AyZluqPbRRqOHhxW+vsWYIaW/J9jtsfPrMEwEUxh7z8J235aJGfo7+gAI5pN+rX4Dp8rq95517tTJVAGZaCGMDz/8UDKqkMBEladxY8eY29dffxm5OMYeNXNUwJhMglCnQ2Bnv3AJ7TPeeedtE0gQNKpUcQwkKy6UA3H5svCCnTHMmn5XTrttggEhHdVEVstg6Nk/VuqZp6VkiRJW5+nLn9d6/KoKDagdIvAQR3L4SaZ6z35fDFJAvrx8/BCTG5QP6qOQ1UETgHfJ942+V6E4i40JqLqiQugnGHx5F334ISmq/Vv86ke7du1MIG7evLmW1wabtEMl0huMwlQ9BKOOhVuvJofaHxOQrJRDfC9W9dhT5lX1Sbs3gPLhBx/I+eeeK/PmzDHBj4md1q2T8wphNRXBjm0ACJaoONOG7r7nbhsbKU8EnbvvucfGju3bt8oUZf5v0f7l088+s/JiBc+Ns1oPI0LQKlbsCROiGGe7aPlRPqgmQk7jBMMwO0xdmBU0DDrN1bTyLcuX94Id5ZikdW2sXK5jbbVqTnDmPftWVveTZM2aVVbHHn30MdNOsW0K+pxn9In0F6ilsoqcN28+yanflLwxBlIn4Vno91BpZFKD+uLed3liHEYVF74CY2EQfajvRyHSslL7wEpaLvSRhM2kA+rD8ARMqDjDaq6PRThm0gXy/R/GxhAeEexYTUVQNf4k+hZoBz35RDGbPHnn7bdMwEIIo89jBR0irX7riSfCuyrjVfYNWWF/+umS8mSxYjY2MAGOKjIrpKxWs/qI+jTtzeU/SWbN/NX6eeoJaXmpzIs6lrayiUL2GHqL466eu7Hid6EUVuwCAo4MpAnBDmtofo8dFs/8gA0xKGbRwRgdeYQSOksGHwSueFq3ZrXtl5sZ6aezYscAPzaOsaGzQ1WIM/EgBn1bsdNO+7ZbbjPLXgz67HdhhhpihtIYKE3Pk8WftI6W/Wrly71ng73fvO03T6PqckOuXFJGO1WsTfrBzM/MsmrycNGipl7n1aF8XqspE81sHIPivLmz5bJL01ueUtNYHUzYv7J61UoXvuaDgcYzWhADNWXK/jcsWKKDj9BLGqHmzX6Qo1mx69/PBnoGHgZrhGzIMxLsfUGwQ0BkEMQQDYKdN5oBLdUBhlXUMi++YPd/tQ7xXuxdTSfX/3bBDuulrBy0a59SxSeeyLNnNFHFRF1tPftKlAmCYIwR7Ly6pmdeKB9Wj/PlzWurw0uWLDFGh30pWlGs/tx99z1m+AbBztclCCtrrO6xbwM1o1NPPSVmzAB/qS1ZwvzGM4KOyXDpw9gCz1AbghGiXTb8tqFZMsRIB0Its88QbZKJCJhd1ItY6fGTJynK7jDA1zdfB6G/KtgZg6vEfiRWxFl1deQEIis/JQQ39gDlyXOb3SPYUZZ167HHjjB8GX9lex699doKFcrb6hFW9Dyxt+3iSy42tV9PqJg/W6qU3JYnj62OMPHEWaIwk+wn8zRn9iw57fTTbMIMwpoe+QQ+rexrZjLJawl4oROrmH7FDiuKqAk+8ugj+iRiDiNCTZ0V3Jm/zrD+LB7UJQ7tRtUxWb3U5Z9VjjoqoI0cPtxWUDJpv8zREZD7ZsSTZPsEYYLnKgOOsaDs2u6wzuqI/mavPPTgA/KY1ju/2gghLNLX0xfS95dQARbDWsRrFNUFLIiyAsk+K4g0UR6oVUKEzz6us846MyawEQd1BdXCp0uWNOEB4yUIduy39quTPg7aAv10SfXLyhpMOytrfg+up2d0TGfbAAw8FqAxoPPwQw+58oiIQ8dbtWgh3bQPIi/sAWNsJVzqyuWXX2b7u4yitkz8WHH1AiBCKN82fiUXYJWVFSe2JEC+Tvt2wd5wtF5o+1gldd/JtQn6kmtVsGOygpVjJndQz0xNaACwOrpw/nwbwxijneDoxutPP/3ULPCy3wzyfShtiD16TGxRl84751zpFk0EeCpXrpz1ywsXLLAJqDIvvmgrb/6b+xVdJiGobx06dLB8IFCjBZGaGDu//eZrs0bNBBmqvW3bOi0Ybwjl1xnTpfYXtWzlnBVn1I6HDBliz+IJ1Xcsn9JPYnWWCTiERT9RTB1looRJhvitFRCruOw5pP1Crs///b7KoBQEu4CAIwNpQrCjg0YV8EXtPJlJ1Af6yHVSCHbM3rFfAfeWOhBxgC9WMj1zxF4hBBNWFQYPdoNoxU8+sQ6PVQJHSab3zow11h89IdgxO3d73ttjAz5nRzEQYi3LUycdZNgzwIZ3iI3qdM4wpls2O6aO2dRXXn1F0qs7Hb4/W4x8OsFO86UDZB1lJngXRsETRjRYDYQ5G6/MGIJiMR1o2TsFo+OJPTYZr8oodxYuHLNQRx7wbwyWxoUZaq4xEMN5aDDuN950Y8woAYSKDUJkl2iFhT13zLbTae/d48qVQYFN+aiHIoCgRocaDPsuPM2bN88YutOV6XvvPbdngLhT16M/U6/wE/MX1YF/pWCnebN6odSnT29T8XF1UgfLOH/s0UCA8n4h1CpZsVsRd/wB1ixh7rA06MgNuuzbIWyYdIgZXgS9lyLGA2Gv+FPFbcXQq3V56ta9q62Uo37GKvY5Z58j779fIXrqyKwnvvqqbc7H0iwCxyfa7pLJ5fNZFUYRKFmVY6WEGW5v5RZVMwx1pGas5s6erWnNa8yfZ6Liy+ZwwNe3WP1W+ssrdtH7qKHDuMKEwcjGEyqNqI1j3RH1N4jyg+F8vvTzttoGobaK8Q0EBto1TDP7j2CsUYnzNHnyJOvDGtR32ggQk0uUMfuxqB8/azs/VwWKGKOuhKVH/DDBg2VgyIQ2zUd8WQzQOkD4CFBmtVGJFTpWLVChQ+sCNUCsnqI50Thu79nGjRtNWGGPJvtDYVJ3KvNJ/fcrS7ZP7q7CNlHBvlJPrIJh3fP/7Z0FoBXV9sb5q+8BxlOxUQQJARVpsKVFUhFUUJAQLAQFFQVMpFPCJqQUBUTBFkQ6BJGU7u66fe/6r2/t2eceLgeM55NzvN/SHzOzZ9fsmTuzv7MLLXlHjx61boIlS5awSq83TASUO/eVVkHH2Dt0Y0fPCbTOQLTg/YnvCcaa1q5VM/2ZU8PfALqNomwhZjDGGV3P8eOhn3YeE1agVwRaQ/xEGhgHifGlGE7gDV37UDmGOAsf74YWbIwpfe21V+0bgfFW6J6NFhZ0p4OhHPCeOP/886wrLlq1ry1c2FqIfOshWrc/VPGId0T1anfaMjqYLAstW27SlfRnDN17IZRxv2yB8gcesNZUCGxcP8bbYSKc8HFaEN74dmFCHuQHYgTdPv27wb+rIJ7w/PXv735E9c+J/wESBjEEP4jLG35QwphbjI3Dtx7PcscO7W1s6Pjx4+0+wdBaWEPF5bV6D5cE4yHxHXTPonv/4fow9vtx/dvxP1LgGcc3FaIeLWx169Sxb5f/gRY9GzBhG95ReIbQIoln8YnHH5czz8xu9xzdVmF4ttF6i9ZEtHbj+fF/d+Fj8XBv8FwVLFTQfjhZuWKF1THwrODHNhie/ydbPSlXXH6FzNSyg7hGzyGIaD8jLgwzEeOeYVgIygatfvihrLOfJVcN7/0byt5g9+7AfrfMApY9wYye+DusWLGCuji/uF9WZv69dCLUKOwIiQ2ipMVui71s0d3Ij7HzXRPQ2pQ3bz4TQzB0P8Ev+WghQosCfoHCr5z5VexgGnj8+oU+6s8+96z94uUX+4YtXvSzvejTfx1H5TZOGumHGr/koismui5hDNANN5S1X7aqVKlsH0j88ooJHdCihdYEVA46duxgFRR0vUS3JVSO8OLEWDP8Eo4PtF6J/VJoH7PgejHDYJXKVawyfofmv2KF8jZ5DLpnQNihYgPDVMb41RUVOXzsMHMgxhti4Wo/5gYfSsSPLV7SBj6imjaEGSr2Z599tlW48Qsf8gPD+k5oKfCzXe7Sjw9+sUWLJsQg0oK4xcDsy/Ujiwk18HFEiyWmAUe5ozIJoYCxG+XKl7OyxTIKSDtjxfb3PFfwE/Kn+cT+P7XFzleAIOjxbHlhF/6hxX311+krQw80qG8/bPguQTC0SmOcCxb5x+QGqJysU8HdosUjJgowCQFs/fq19lFHyzgqG3geUHnCmE2M70ElH2GXLFliQgwV39VaScB9r6MVIDwLqBDDD9bsatPmaZumGz8KHNW/OXTrRCsRJs9ApQOVXrTWXXrpJdZyDDcIDVQOvLBbvHixtXDX1golxrmgFQ+/buNHHquIhsSOPrcZyvDvxt8X/wzC/puumAB+sU4YWj3QInCHvm8wfquq/v2hUo+/R8ww6FvB0M0c4h5jbjC5Crpa4W/yARXv6DqG7oKo/D6n7z9UwLHkhTd074Zbv2DcEwwt72iBwo9gqJziucIYM4zZRPc0zD6MdxN6IJTWyi5apD7Ve2LvNuQfBM9sfNwRW4oA3Q8hvpAvTAKD+PBcDNL3MwwtxZgABe9OXC9a8PAOt9lSVfS5vw233AHix/qhABVs/BCCngjoOYD3T+VKFeWqvFdZKwmWjoBhdkwIMfS8qF27lr3LCugxtr4HB360wzejB8Zb67W4d7VIzRrV5a677zpW2Ok7CEIDZYvxbBC5eAdjJsXy5W63eFEJxzcEa4V5w7OPCba++ca5oYyQDrqJFilyvT33WF4A5YyyQEUfE4TAMMspWoLQMojZUvFOxvfnSv17Ro8JP7YbLepYbgbfLOQDzw5a5Bs3aSIXXXShCron7ZuKH+AweyhaHvFs4bmBIKikaa5TgQMhgQk58Dfsxw5OnzZdbrr5ZrtW5BN5gHBHF0qMA4RhQjLcb3TXxbX5VjH8GITvgf8hwL7nev0hYad+0Uugg838WFDK6zcUecekX1U0f0hnSDCrM7qFY8ZIiNUqVSqF/OFvBmWJdK2bJZ4XTcO/W/HD1fMvtLMZgPGdwrOMMkeXZYx1w/sPW/zd4cctfNPgDwL3kUda2N8YJjTDsgMYJoL6BN6L+OEAk86gjoDhEpgp1j8/aG3D845xcag33Fn1TpsEpYSmOyaYFAitie+/967dc6xRim87/k7wQxpmovbjmLFUEwSt3VvNO551+MG7GL2LYPihBz98v/TyS1auuHb80I0WRzyz+LtC/PjxqJHW89BSjklc/LAJlBvKDH/LJ0WNwo6Q2CALBqs3DsZvqCLQF7C+dNE0/3ehL4gtmzeaqOjYoYO+7N2v0MgHXpZYaBwvJnS58IOrsXgoxnqU0YoGPn4YDIxWgxS8pDQcxgNg7AQqi26MiVaYU1NlyS+LrFsTusNYhQQfF63M4uN4/3332695c7TiWVo/GmgFwRTWeCGicvxU69b6AcQvrBpX0A0t7sgh6yqJCg/84MOHLh4YPwB/KZhSWF+0iQlxwT4qKPilO0VW/fqrjUsoXqyoFLn2WhnwxhvW5Q0f9+nT0PLiKk6YRe1urWigWyZ+mcWvq5i4BIa4fbzALyGBLQwTCmAsHwSjX6cPY00Q97hPPjaBMBUDuIOPEgaGY+KCsqXL2EcUaxhhgfJbbr1Fvpjopr5HGTZu0lgrTnn1g1/EPkS7d+1QsTxQP0JXSG+tKKFcrYzC7rPPY7hbRo7xo2WEfay95MeswB3lZxXJ3xFf1KP21VdfamXtSnnTKr24D6jIqkjX8sO9xYc3KRG/RDv/GAMEwbNlE5YPwDOSos/hYZvABN1t8RyiqybG54DO+neCFmXcE3QjQqUAs+2hcuIXI35GK2WoQKDSV6xYcQuHijEmNMGv8vjbwS/wd1S9w8ZSotKVVyvTqKxjUp64o651BqINY7VQUYLIwC/52Mdse/4XcUwKgh808Jz57pwYO4VKJipDeO4Qv/1A0rpVaOzfcWV3CvDPm3sG8XeEyu+PTtjZe0vvR+Av4/MfCavsBs85xr/hPYSWBFQ882sZoVKJvyt3r+HVpbl06WJ5WkU1yve6a6+xX+LR/Q8Vbsxei3LFNOr4sQnjcN1zkmY/bOFX/GFDhphISk6M1wr9fhOBGLu5edMGix/vHFRuUWHHuw3dGiHG8ONazpyXyfvv+skq3DXgfYO49KKsizC6D+JHLtx7xLNQ38FoNUaLnX/XQER26vSajTfLo88/KspotYU4RNkl6BZlg54OGMOWqmVu7041zEZ573332rsf5dW1Wxf7hsCS4uM0TJytU4ZJsfDDFsoTFVm/ridAV0eMk8O7xU397u4dKvBYX+yQikR8I5CHccGSB9iiRQzjnNBdE70y6mpFGT0dUPHG+GP492lgAiL8nbk109w70d5dmg4mgoGIQhljXUf0eljpWyH13kAg1q9/v33/8LeN68SPevgxcUNQqUd8Rw4dsO6EhfQ6r9K/20cfxXqiG/VeL7SxrBiri2EKMFw/Kvwok3z699ui+cOhSZPwzUJ3R7Ru4V77VlK08tatd4/+XeYRjE9EiyJmuzXTa8X3AEso9OzV02bjNJGg14ofVPHdxng/9611zxveZ64c8CynymHNP1pNMZlIwYIFbCwYunPj2j/Wb5TvMrh82VJbcw+CHmP30DqKGaytrDV+xGnj3IO4LX5136vX1X9AfxNbmBUUs0KiKyQmDkHYI4cO2tjPolq+mJgEohl/JxvWrVEB6X68RCvrC/qtxmQs6E2DZwT3DefRgoYfknEtSBtxYvIz1GUgFnNrnPDnWqG1TLV88AzE6zvzW73H1apVtXc27hV6LxzEc4e/Kc0/yhM9hWrVqqnPcD67bx31m7xzB4ZL4IfPVJthE/UD/Ihgf48KnudtWzbZOxa9KDAGEj2L0J0aPwijJRLjlxPjXXdqzfhvo4Z6RzGtr3TXeNXREckvIeSUcuqFnYKXEURSvFZQfWXBVW7dixofBPfidm54qYmkWMU3Tj+02GpASQsqGLgGf85fDyoK5qbpuA+MqyzgPCrGCfgo6ccdXT9R2UCFCgZ/ifH64kZeYerfp+HMCTibYQr5sLylWQUDfnz6fj8UHyz0sdOPl8WfavupyelizcIG+bePnK84wH9YvCDFnw/cfZnZR0xf4Cg7lC3Owx0VIC+GcWym5Yi0LI9BWqFrQ5rmRT8eyHdSvIXXExYebojTXcOxFds0PUY64W4Z8ddhx5o29v+xwg5lq88bPpZYMws/TKDs4Y6yRvlh66/Rtur/da0MYzD+QXSx0WNz1/JHmXz22afycLNmUqNaNRvDiZY03A+ct2dM/U/94Qf9qNexivx8qxiJHNW/E6xdiPFF+FUYM8DNnzvXzuG5wd8lDGNUMblF5YoVbbwOhJ/lQ839XYqs1wo7FhmvVLGCtQygy9h26zbqKmBLFi+y9a5QIbLrtb8X1+UaPQfQet3wwQdsZjwnltQylt0pwt+Lv0rYqUfdpAsW3G/7+9Gt/b0HlU+YtUjYPdRwqFBpWBM96ob0AMLgGCAuvNcsjKZlfnSLCiX+trFNVT+IB+FwrA6hfMG/j8flAe859zcO/DX6fOE9YGmF/OKd6N+baVY+6eFc2SGdwwf22zXbe0mP4d+e2SB+l0bwvkVcQf4QP9yti3sQzgF/eG+5cYBHDx+08rSy1OfNylrLEPHhmhFPeBrY4hvh44cb9pEnVMwhFPD3gx9I0C0TlWv4gx+NOJQXd52ufHze7d4m+nvqyhNudr24p2qWpoZDfLgvzq9LI9wfyhZuOO/vAcrC0gry4d/bln97ltx7AvGEh7f3qZZbogoUgHxbWrgW+NA4fT7dvQtEjJ7HFmWMrcdfu3v+UL7In/t+4BzShVh33w6XV8QNdx8W+6HnJ8gHtv46fd6tPOy+p4NziMOOzY9+jzUM4rM47Zo1H3h2dN8/u/gBLfRsqjv8+nwBhPFh08sP9wPl6p4T58flCWFxDywvYfl0fnBN7u8E/uzvL/BjZWV/5y7v8I+08Dz4/Fn6uN/qH3HgvqH+g31LQ/ctTLy+RzR+c9e4fNkC+1sI8vSbqFHYERIbRIWwM+wlFuFFYS/1COfsxQJ3mG7hL9L5cHf/gcBLNZJfNVQw0dpgYy/M9BzCZYzfY3GeJB8nI5QuCNLJGEfG+L2/8HhOhk8jYxiLF6cyuIfyBDtBnswPLMjPMW7B8Z8Az17o+dP0sP+PbrEDobJWi3Q+I94i3rdIluF+HGOatrmF5SHcwtOw5yCShcV/Qj94fgI/ka73ZOG8nyjAP2/uGXQVrP9K2IXjBdsx9wLlluE+H+MXBv+6b2UY5t/HFR7e+wm/Z+F+j/MHwzY8TliG8BkJKq3O1G+okhopXW96PjyvJ+O4/EXITyhNb0E+Qud9HBnzBDcl3M38Iq9O2N1d526pjQWuMYERzMeVMf8WJoI7CKUPwzZDPsLjPMZvBn/A0vEWnLcwMA3n/R3z3MAyxGVphPk/xh2GrYZB3P5cKG8Z4jqReyQsTz6NIH47DkvnOH+6Dc/HyTjmeYwQLmO8IXe4Bf7ND/Lm/cMixAVC/sPiPKG/MD8Ic1I/sAx+QucjhA3Ppz8f8q9k9H8y1DA0xHXFVGFnP8pFSJMQcsrJMMZOK9M4gT/+zIgaxnBgnaGu3bCWknPDr2SZulz+JlDGoXLWjwb2jx1j58aa2ViVcL8xj34gjUjnMhJ8UE90LnTeE8Efzh8XR+AWCht+Lpzf4++3/JzEPRQm0vlTi3/e3DOo+2rpY+yCLqOBP+vyHBaWxDj2LQi6M99TR6rXqB5a08yNp8zgn5B/EmroXuta7PwYOyWSX0LIKeXUT54SVaTZzGsYB4RxfPhlHmMqMChbT2bwS/5qnGALnj8tb+z/o5c7IDGFf978Mwj7bydPIbGBdbm0CYHirOUCYxex/hruNZ6HcL+E/ONQ4+QphMQGFHZh+Nm0vKEs/Cxemblc/i5QxqFyprAjUYZ/3ijsMifu+xBUaNXwHLilZnivyT8cNQo7QmIDCrsw8IH2U8zjOFSRU/fMXC5/FyjjUDlT2JEowz9vFHaZE9zX0L3XY/+9sCn+M/gl5B+FGoUdIbEBhV0GwoWDTceubviAZ/Zy+Tvw5W7HFHYkyvDPG4Vd5sTfV//jn/8u4Hnwfgj5R6JGYUdIbJAle7bs8lCjhsf8kWZmIeOvO/yDja1V1PAyC/NL/lpQ5r7c/X0YPny4vPPuO/Z44h7YeMcwv9j/b8gYh4+XkIzoP/ZsuunI9XlRw5pqXbp2tUXcYf7d6bfkn0P4vfXvIhzrPyE/hPwTgc2ZM8fW28PEcvrQm5ueJIREGVmyZc2qws4td+AFjP+AZfSc+aCQ+7sIf97sF/Fgf8SIEfL+4PdDz+df9VwiLpu2PogPW7j584SEg+fDLeqd4J5DuKvNmD5NunXrKgeDhdT9MxqO/kMIITGJmzxOZNasWVKqVCnpxhY7QqKaLP/5zznSpHHj9D9S/MFaZUSxP15C/gbs2Qss2McPDKM/HC3DPhhmx+mm/vGM+v0/DCx8X03TtEo4jfa7zD2jM2ZMl9fDu2LSaDTaP9DmzZsnJUuWlK5du+pR8O3Et5oQElXYAuVNmzSWtLQ0+xUav84k4ldpa7lDtxNC/vf41g3sJ+kziJaP+Lij8tGYMfLOO+9Iqk03rs9mQrz6Sbbz1rochPn9BF2o8KwnJ0rc0SNy8MB+2bdvLyEnZP++fbJvz25bDuXAfrd/6NAh+fyzCfLaa6/Jpk0bZT/cze9e2b1rp+zdu+e4eAghJFbAOw3vvgMHDsi3330npUuXkl69eoV6LIRXJgkh0UGWHOefL9WrV7cK9LAPPpDBQ4YYQ4YOlaHDhhHyt/CBPntD9ZkbpvuDBw+RD4YPt/F1bdq0kSdaPiEffvihnfvgg2EyfMRwDTNU/bgwkeI7GUgL8SOON996S/r17y/9+r0hb+j2jf4DCIkAnpF+0qdvX+mr2/4DBso7770nzz3fTho2bGRuAwYONH+gjx6/MWCA+YscHyGERDf99R3Wu08fGfTmm/L8Cy9Igfz5pY8e27AFCjtCopIsF+TIIXdWu1OF3YcyZMhgrUx/ICOUD7TSOwwVbUL+BoYOHSJD9fmDcBum+yNUvI0aNVLeenOQDPtgqIweOVJGqhj7eMxHMkr34W/kiBEWLlJ8J2Pw++/JkMHvy+hRo+Tzzz6TyZO/t7FSM2dMt1kOCTmOadP0GZluXS+nTftRfpz6g7nNmjVT96eaHzxDmEwF7vAzDWH4TBFCYhR71+k7bfbs2fL+e+/Jdddd61rsbNhCmv4fDNshhEQNNnlKs6ZN3K8vNBqNRqPRaDRamM2fN09KlCghnbt0EUnFLOGpbksIiSpsjF3jYFbMtJSkEJE8E/J3EP4Mhp7FNHcuFWsLZvDzR/mz4Ujm5reeuf/mmSSEkKhFbc6c2VK0aFGbBdi6fFHYERKVHCPs4MCKCYluUiK4EUIIIeR/gtpcFXbFihWV7raOHYUdIdFKlrPOPFMaP/SQ/eHiVxiuu0QIIYQQQgy1OXPnqLArJt25jh0hUQ2FHSGEEEIIiYwahR0hsQGFHSGEEEIIiYwahR0hsQGFHSGEEEIIiYwahR0hsQGFHSHkf0LoXWLrHek2w7sl0rvmf/r+8fmwtV4ynFN+T9r/Tf58WGzd/onz8d+k83fxW3mMhWsghPwO1CjsCIkNKOwIIRFJSkxQLZYsKclJkqqoozqnmFvIPUWPbavHSYl2HmFxnKzH3h/ccR7Hdl6PE+PjQm44DxAG/n0cPqw/9n6TNW9ws3C6RTgfh8uX8+fDg2TdT4g7GorHp4Nz2Prr9f79OU9SQrwkIb+6D3/qIXRO/4mIP4+0fB7tGpXkpIRjzqelujC+DIDPq/cHfD7hF8fhWw+OfRzYt3iCfR9vol4P/GLf+wNI37t5vylYykHPaYBQHN4fjrHVHdv3cSB+v49zPk7s+3ixb+EDd0JIFKIGYVe8eHEKO0KiHAo7QkhEfOXdKub+Q34Sc2JFxUtQ2fcWd+SwHaMiD1GCfavYB/5TVTTgnK/ohwsA7EMAYR/hPHAPbfUc4kEYf97yoVv9J4g3RY4cPhTkSFy66t+LJO8n3dLsenx4+DMxqe7YR1r+/MmwPOnW4giEjp6wFLzZdVje3fWD8GOcd9fm4vGCyZ+z8Oru9+HuwTHCuusL8qNuuAYQbigTiF9s1bP5MyGsbiII68o0PD5f7t6/uaGsgrLBOaRjaWq+EZcP6/37LSEkSlFjix0hsQGFHSEkIqiAO1Jk/bq18u47b0u/fv1k4ID+0v+NN5R+0q9vb/nqq6/kwP797hWi4SBA4lQQfDh6tHz44ehQxd4LAl/Zd+LFiRrvbse674UBRB/c/HvJn4fI8ILQCx1gIgP514qHCRUVheamx2hpmzjxcxkxYrgcPXJEzyVZWCdOnJgZM2aMjBw5QnZs3xbKB+KF4PFpW1y6tWuwvLj4Ld0MWL6CreVT9+H/54ULZciQwbJy5a92LkXjSVUhh3OWH8XSCosH57BVB3MLP++PgaUJf2Hn3DUGZRkcY/vLL4tk0MCBsmb1assDxBf8+1ZJAL9AT5hoCwlU9Yc4QagVU90AztuxhklTwWzxqhuuC/69P+DTCXcjhEQRahR2hMQGFHaEkIiEKtxq06dPk9y5c0uWLFmOI9cVuaRBgwby47QfzS9s3949UrZMGbnxxhvk0MED5uYq+xBj6S08Jvo0LS8E0tN057Ef/k7CcUhMBOewH+433D0xIc72EV98/FG5s2pVyZMnj2zeuBFZ0nNemIlMnTpVChUqJC+99KLs3rPb3OxckD9LR/cT4uNMpCFOCB6kBz+RQLiQMAqOU5KT5a233pJcuXLJuHHjLB4vdCGQXJzp6fr4/X741sUXCKVQmcanuynwi/xanoNjpAN7++235IzTTzcBDoMoR9h4FeaID8C/XQPyp/teqAPE5/fD8flDuBQV0AiTDPEc5Mn7y7hPCIlC1CjsCIkNKOwIIREJVbjVfpgyWa666ipp26aNzNUP/JzZs2T2rJkyb+5c6dunt1xxxRVSqlRp+XXFCmuVQQvNSt1fvmypq9Qr3nycMN+CFe7mDaLL5wEtaq5VLaM5cRWKA3nPYK51zwnGtWtWy7KlS2x8H1oifbroptm6dWvprdeCcXR60rohYpuetzRLJ9xwbKINFZ2wsgsnUr7effddufbaa+Wbb76xY5d/J6IzGs4h7+HxeVCuGfPkDWF8iyXKOZLt2b1LFi1cKHt27TT/EHy4X5qQ8wDTsK47ZmBBHrDNaD5f6eVyYoO/8OsihEQpahR2hMQGWc7Mnl0aN2rk/khRkcIvxahgEEIIUJsxfZq1MA0Y0N+OjzH1M37cOLn88svl2WefUYc0dUqUA/v2yN7dKhggLPS9snPHNlm/do2JkV07t9u+F2sYl7d18yZZu3qlbFy/TsPuDdyTVCRikhUnDNECt2nDelmnAm3zpg1OMKalSNyRQ/o+c3ndq2Jl/drVsk7Zv3e3nTcBoeePHDqgbntcl8AgTtjO7dtkpl7jGk0fabsuiSp0kl3XQ8SH60GYDevWWN63btlk16kejy0vj4ZH6xnO43qRn20aJik5WYZ/8IFcd9118m0g7JLi4U8k7ugRixvXt3XzRr0+547ysVY8jRdl4soU+XOCC+FQHus1b5s3brBxjZYvjBvUMBB4KN/dO3fY/qaN62Xvnl0SH3fExF28hsd12rhBtUMH9smG9Wtl1Ypldt0aifk7qGWDfCAc7KgK4g3r1ppfXKMPjzRxb7dt2WzlpIHs/NrVq+z6EuPizBuuxcL4MiOERB9qc+fMVmFXVLp366ZHWoEEkfwSQk4pFHaEkBNi7wO1ObNmWlfMfn372rEXa04cudaqunXvkZtvulEO7t9r3S9rVK9uQHTBWj3ZUurcc4+8//57UrRoUbnt1ttUQOyXQ4cOSq+ePaVMmdKSPVtW+c9/zpG776otM2dMt3BOPIksX7bEWtUgIE8/7TS54orLpUuXziYefR4mf/+dVK1a1c5n/XdWqVixonz5xRd6yk3q8dBDjeSWm28x0QRD98KPx4yRW265Rc4771xLu0qVKhZPWooTbVs2bbTWtedUtI756EPJfWVuwXuziAqzUaNHSQJEIFqwMpabCjuE/+7bb6RK5cpy2v/9n4a9Up559lnp1KmT/fr93bffWj5gK1csl0ceaSFnn32WnHHG6VK4cGF55ZWXTajZ9Wm8vtxdGq5cDh/ab+P1ihS5Tv51xhlywfk55MEHH5QpkydbmSDsPhVx995bT5o0aSwDBw6QvFddJc8801ZGDP/A7utnEyZYXLDlS5fKPffUkexnZrNumk+2bClff/WlNNLvxIRPPw18icyfO0ceeOABOeusM+Xf//qX3r8y0qdPH9lvQjBNRfRBS69x44dk5IgRUu722+V0ja9QoYLSsWMH2agCHf5ScR1hZUcIiTLUKOwIiQ0o7AghJ0cNXS+vzJVLevfqZcfWjQ6tRd6PCoieKs6KFysuPy9cYN0YK6moqqyCxrU6pUmrVk9ad87bbr9N3zkNVQT0lgMqAl9/vZMUvPpqeVBFQps2baS1CsCyZctIaRV6P82fZ+nt2L5V7rijio3ne+KJx0yU1L//Prnwwgukd+9eKg5SZNbMGSqGCkn5cuWkbdu28uwzbeSmG2+UEiVKyE/z5lnL34MPNjABuX3rFs1Smoz95GPJlzefCsAK8vRTraW15vH6669Xt6vkBwgjte1bN5vIurpAARN9jz/2mLR9+mm58YYb5JprrpFvvvnK/KEFzZeHF8Qzpk+XwoUKS4niJTRPem0qTCF2y5Yta/n68ssvzN82zU+lipVsXGLbNk9b/hs1fFCv70Itt1aSFB+nCaiwS0q0cjdRrUCYDlKhBrFbs0YNaffcs/JU61Yuv1qm03904x4hfuvff7/kz59fatWqKY+0aC6fqkgbPmyoXJ4zp4rfSeZvxfJlds9QBo8/9qjl934t51tuuVny5csXEoArli9VEX+z3HbbrZrfp6SNlke9unUtvxijiHGE6NLZ8MEHTBSXL19emqrAa9eundSrV1cuuugi6devr943PF+sIBIS1ajNMWGHrpgq7OwHI/7dEhKNZBhjh/ERegLddwghBKjho37llVeqiOptx3rCutpBYFiXQBV6mIgDgmD6jOkm5qrdeaeKsTtsPBsMYuzf//63vPfee3YMQ6scKv6D3093gyE9dFV8+eWXrUUMM3JeesklMnjw+4EPUfF4xEQKWorWrFopD6iIKFSwoKxZvSrwIbL4l0Vy2aWXmkCBGG3+cDPLI1qV4o4e1vC15Pbbb5c1a1YHIcRaunLnySPNmzfXtF23UbRwQXxOCGvZmvj5Z9Yy+HqnTs5By8qNL3MtfWglbKQCtoAKwvnz5jo/atu3b5dbb71VCqjI8sLu1VdfkXIqSJcsXmzH3rp26SrXFyliLaZWmVJQ5r6LJloxIeLq1KkjBw+4mUlhGLuX64orpGXLlpKUlKQCep/cc889UqpUKZk8+fvAl1iLXc7LLpMvJk20Y4yfgfge8/EYO4bt3LFd6jeob9fx9Vdf2XU1a9pUaqiQRPfMcHviicelqJbvqpUrrCwe0m9LVr3nAwcNCnyILFu2VEqVLq3l28J1eUWrHX4ksOuL8PwRQk4tahhb7Vrs/Bi7oKs3ISSq4OQphJCTo+aFXR8v7NKcsLOJUWxcVZoMGDDAulhOnz7d3NEydaeKOzeDpFiLFWadXLd2rR2jle3NQQPl7LPOkurVqlmLUl0VKPfWqyd31a5t6d1777229EDTZs3k5ptvlnXr1mlIN1MjDOO1kB4qHUVUAKF1CwahYJOgqE37caoJq/j4eBMkaC07eOCArFIxmCd3bmvxg2EmSOQ7Ta+trYpQdM/ctm2L7N2zW3LmvEzfk40kRfPsJytB61a2rFmlY/v2dox3J0ArGsoHYW+79RYTXc7SJ1/p3KWLidAZM2fIwYMHpGbNGnLNNYVdGdStK/ffd580bNjQWj0vuyynjBg5woUPZpj01z90yBBrrfvqqy/t2C/hgMlSIEwhenft3GHLO9SsWcsJQD9LqcYxSuOFAJwUCDuIvxu0fParEIQhLdjwESOkoOb3iy8mya5dO+1eXHvNNdJI81iv7j1SV8OhxfXmm26yrp2TJk2yPOA8rmtTMAup3hnrpov7DWEY78fa2XfHdaclhEQZapw8hZDYgMKOEHJy1I4TdvZhTzMR4cXKk08+aV0OV61cKQkqotBiV716tZA4aPP0U9b9cMWK5XacmpoqHTt0sLFtaBGDwMifP59clSePXF0gv3WZhDhcv36diR2IvN270EIUtsxAYNOm/WgtRUNU6OA8RAXSDZ+ZEYILwq58+Qo2tg/dPM8555zQVP/wiy6EMLTCoYVqAyZyUZFz6aWXyqMtWtg5e0eqrVi2VPN+nrR/4Xk7ttkn/ftT7ddfV1hrYEstl0TNS9zRoyZmYSNHjZKSJUvK1Kk/yEYVPWjZvOjCC+3a8+TJbWPxMFkNupbeoiIKs2giXsTvrztRy7irCsTri1wvixf/oi4Qfn7NOdF8vWBdI9dhshJN/24VdSjHA9ayBxGVJqM0HxCtn3/+mYW5+eabrDuozQiK+xu0tn733bdSvHhxawlcvmKF3HDDDZIvb14TxugeW+jqq+Xq/Pklf7581u0S8WGSFpT3TTfdaOIY8eG+HD50UGqpqINwPmKTvOBUhmeOEBI9qFHYERIbUNgRQk6OWiRhB4HhRQbWrStdqpTcUaWKCRi0EFVVsVKtWrqww1IJGM+GRblhSQkJ0q1bV7lMhQWWToiLi7PuhEcOHzYxteCn+bJo0SJrPcI6eRA/WzE2Ts1apfRdtXnTRlmpAmrKlMk2mckrL79s55EmzkPMLfp5oYrNX1VoJEmTxo2tFQutRr+uWCYXX3yxjfWyMCqIfOviM23bWsvezp07bPbIK6/MJQ83a2bn0KKH60eL3fkq7F55+SXnHv7uVEO+K1aoYHmHf8SNNfBg6LZ67TXXyrcqmJBG+XLlrdvi3t27rSyRPyzyjoXhMSPp5s2bgnghyFJNFCMfQ4cMtq6m6CIJszwEflqoEEXXS3SlPKoC6u6777IWub179gT+RIXdSLnssstCXUIx6Qpa7JyAhth1927SxIk2nnDy5MkqdtebKH2hfXtr5Tx06JDNNIr7BiE8bepU2bFjh13rgw8+YOMlt2/bavHgfuzft1furl3b1hTEbJ7Iiz1HvuwIIdGFGoUdIbEBhR0h5OSoQdihBentt96y43Dbs2e3vPzKyzZmbOwnn5gbZrpEa1vVO6qGxBKEHVqkIMS8oQshhMWggQMDF2dff/2VFC5YyIQaxtj17NlDLsiRQ8aPx4LezjZv2WytQzVr1pRfFi+2WRevu/Za2bLFiT8YBN9ll10qHdq/YMcPNWqkYqekHDiwz1quIDwx2coWjcvb/PnzpFjRovLEE0+Y2Nu9a6fNhPlI8+Z23i/ujfXw8P58/bXX7FgLS4vLddV04k/k2Wfa2ti8hQt+smPYXhVBd95Z1Vq7MN4tRUUNZsNE3n+aPz/w5ezFjh2t5XDmzBl2jBYviCDfkrZw4QJr7cTslIdVYHnDuoPo6okxdujuiPsBYYcWu92hcXFp8sEHH2g+8oS6cg4dNsxaCwcPHmzHMAjURx55xPLxlQpICM67775bKquI37xJBWdguObHH3/cRB/G0aEcHmrYSMrpPQofi4c1A3HPMBENhB2Mwo6QKEaNwo6Q2IDCjhByQnw3y9mzZ5mAwNi3nj162PIEEFvYRyvPJRdfbLNFJia4Fh60vKFFpkKFiqEWu1ZPPmmtZWhl87Z//36bLRNj71q3aiX9+78hr736qg3Sh0BYumSJ+UP3TUx6Yq1yKiKRPlrCcubMKW+++ab5GT1qlE0kUrlSJTuPablvv/02FX/l5JdFP+u1JNuYr9KlSlsrlgsz0iYPufuuu2xWT3RtRIsVRNfUH6aYn+3btlk3Sd8V05cJWh7PPfc/0v551xUTgs8LO9+SufiXX0wA3XTjTdJLywrj+eqoKML12gLlX39t/ubNmyul9Hoxdg1l2rdPH+vaWiB/AZt0xo8XtNatIH6kg8ldsARFHhXMTZs2kV69ekknFZqYcCVv3rwy+Xs3UQpELMY7QpAd0DK397yk2qygF114kYwaOdL8bd++zQQXulR2aN9eemheIBrRTRazbGLsHOz7776Ta7Ss4bf/G/2tvJs//LDdD78kBtJocH9960q6Zze6Yjrbt2+fhUN+XAtmWvCMuJZGQkiUoQZhh+7YFHaERDcUdoSQiJhICQTKFBU5qMhjFsj/y5JFsoSB8VbozoguhTCIDgi7WjVr2jpyGFMFw4yJEGd+1kovVrZt22rLHFxwwQUW38UXXSQPNW4sszATpJoXhhiPVq9ePTnn7LPNH7qGYsIWNxukEwcfffSRlNX8+LxhTbtp06dZeHQrfEDFYMmSJVTAuK6B6DY6UkUNJgaBf6x9V71GDRk9enQof6sxyQpmyVThAjdMoAL75ZdFct655x4zxi687CTNzYyJLqWYtATxY803iKu+Kn4gXD+f+LmFhWG9PaTt816w4NU2Cym6LsLsXmjcbixgkm1haAFEfGhpQzisg1dLBThEGLqfwi8mPMEagpiwZMf27ZYvGGYZhRj7IhBssF9XrJB777vPJoZBfOgC++KLL9rkNBM+c7OConVu3LhxNpOnfx4gqtGiC7GG+DFJCyaBue3WW2VTmJjfp9dTrdqdUqlSRTmoIhPG7w4hUYwaW+wIiQ0o7AghJ8SLO4gLTNABkYJ16gC6AWICEtcC5z70fuwbwixfvkyWL11iU9rjeMOG9TbeDV3x0KUQgsPEkBoEFuLH7JUYu4augzCLSwVMqk1qkmaiAK1v8Idxcz683yLPGI+GfCGvmBHSuWNMYJKKypUafqGJD4wP87Z2zRr1/5P8vOAn66qI/CFttMJhfBq6UiJfOMa14JoO7t9nyxDg+pF++LvT7/t87dV825hBvX6MXzt08KAsXbLYxhJCoJl/NXT7XLhwocydPctm7YSIxDknltxYNN9ah2MXLk3i9fyvmj9cN8oHQg7uMAhahP91xXK7BkykkhAXZ/Hs2LHdyh1j+jQyvfadtrA4WtjQZfbX5ctNOA4aNNBaGb/+xrUwQjAi7a1bN8u8ubPlJ722NWtWqZtev6aL8kvU61q2ZIld91Hrcqn3QMNAHKMFFmACmKREFahBuRFCohA1CjtCYgMKO0JIROxdgIq4CgEnIE5syerHizoQElpqcPeTcMBwzrrgaRqI248XCzeIDpy3+HQffixMBsM5+IF/iA11cSfCzLdwxfkZGNWQLvIMoWFpRbDwLo/ebO0+FS+2SLiG9Wb7GctOtwgf7i+S4bxL4/i841xILKufeBVI4fkCvkUzoyUlxtvslnZ9yFfIVHipm7tun6Zu1c/Ezz+Xm266Sbp27SrbtmyxVliMa8yV6wpbuByT1+D6fdoZDW6I15F+3bgHXsCGlwfybvkPyo0QEoWoUdgREhtQ2BFCIuIr705EOHFkFfbgHYF9XzHHPt4drkIfiJkgHnecai1k1n1Q3XAe++H+cYyZMrHv007WdI8RBEGc4fs4b2vqmYDEzJYuP6FwQfyhOCBsdItWQIgmpINWJJ8XGNxCQhWtZpoOjkEoPOLNkJeMWJzwi3iCMMedV3w+4AczR3p3Sx9udo16Xt3QgunLxseJrWuVTA8Df+788enqP8E5dw+xxUybaFV9/PHHbIxh1n/9S/51xr9syQR0ufx+8mQrG5SzLSyu8bh03XUgPb8fjk/Lpxe6Dt0Cc4M/nzdCSHShRmFHSGyQQdjh44sPLD7WhJDMjhMHWkFXEeQFBUSU1sb1tL4r0HqVAkHihJRV5PXFYpV1PTY3VOT1vMOHQyU/yW01brToWTp6DqCFDmLHxZcuCDSA+UuIR0uU5sXSDOKHHz1GSxXEivnX+F2+Xd7hNzlR99VNA7kwwTVhH3kNCRdUXtRPUkKcuftWOosP6QbxYYs8IjzygX071n3Ek56+yyvitHxpOH/O3IIwOIc40aIIN/hxZeHSTy9nFwfCwr+7DneMOH1rHYQp4kRYhAFwdy1lwT7yiXzoNaOb6OcTPpU2rVvLc88+I+++87Z1G8V55Mnly90HX+6WH7um4HlJcddlraK4ZlyTbuGG+wN3V/ZBuVu5pOePEBJFqB0v7PB+jOCXEHJKyXJm9uzSuFEj+8PV2oG64SOMjzQhJLOD90GqVr6xnwzBpIIrTcWDiRyICHPXyrv6SUF3Sz1O1S2OQSLGsQXxpFklHmEgaJwfnPNiAecgotLPOVGDdH0+knFe/aYkwz/ScOJEPeq+pqEiAX4RBsc+Hy5OnEfaOOfi9ecgMHy6yINd6zF5CcpE07L0EVbPeXcXr78+54b0ElWA+jgsHdt3+fDhw939uYzoPxYHBC/8ItwxcXrUDeWC81YWiC+I07kFW0vL5dftu/J3fjX/EQx5w/1HucAvwqOc3P10ceG++HzpjuHvhbtGlzdLO0g/3C8hJApRmztntgq7ojbbsDo6IvklhJxSsmDms4caNbQ/3GT8Kmwf6LCKDCEkU4PKd/i+F0/ezQsEVPDT/aTve3/hpIc53n/4MeIMPxcKBzFn54/FRMkxx+Hh3bEqCtv6uJwbWtzS9wEER+g4LE6EN8LcQmGPcfP7x5473p877wk/Fw7iy1huGeNOdz827G+BMOHxmtjKcN0QZ+HHzi3DtyKsbL2bi/vYNMLPHRcHISQqsN4C8W6SKRN2RQNhh3cDhR0hUUmW7NmySePGrsXOf3iNCJ4JIZmdCIIqo/AxvFukc7/lnvFc2HHEtP4kobhOEKed/wvTOyF/IJ2Iefqr86jxnfSehnHC+/FH8vRH/BJC/i78j0mwObNnqbArJj3QFRN/9xR2hEQlJuxatGhuf7gYN+HGRLg/aBwTQgghhJDMBbqo2/hZtdkQdsWKSTcVdjZeFxYhDCHk1JIFi9k2adzY/ka9qAMYhG8zvhFCCCGEkEwFJmoCsNmzZkqpkiWle3eMseOsmIREK1nOOftsafKQE3bmaJvg1xg/8xEhhBBCCMk8BHVC2Nw5c6RE8eLSuXNnPcJ5bI6tUBJCTj1ZzjrrLGnRvLlbO0kFHVrq4o4esS0hhBBCCMl8+KVVUDecMmWKlClbVnr06EFhR0gUkyVnzpz2K0yD+vXlrtq1pe49deTuu+6SOnffbVtCCCGEEJK5qHvPPba97757pUrlypI7d27p37+/CT0KO0KiE+uKef9998nWrVtl86aNxpbNmwghhBBCSCZm8ybdbtkik76YJEWKFGGLHSFRji1Q3rRJE/dHSqPRaDQajUajhdlPCxdI8eLFpTuWO6CwIyRqyXLWmWdK44ceCv2R2sQpGTwRQgghhJBMiNqcuXNsuQMKO0KiGwo7QgghhBASGTUKO0JiAwo7QgghhBASGTUKO0JiAxtj17hRI/dHmposaSlJtiWE/BNJ+Y3jWOP35P+vvEYf199RbuFp/B3pef7OtAghUY/a3DmzVdgVle7dsEC5ViBBJL+EkFMKhR0h/3DwN+3/rlOTE0NuqckgMXQu3J/bph+fatLzdaybuac5IRLKa1r6uZCfsDB+/8/gyyu93P43ZeTScPGmp/ff5z88Dmw9KDPv5p8RQggx1CjsCIkNKOwI+YeDinpyYoJV3lOSdKtu+DvHPtxTkxMkLRAovpKfmpSo5xP1nHODX6vwhwmrvwVNG+l6ERouOpIT4yXh6BFJjI+zY3ed8S6vwbXALSkhzrYeu0Yf/+/Ex5Wscblyiw/K7tg8/VUgPVwX0kH8KbqFKPuzaflrDo/D4rX7nGDAD/BpQrTCHyEkk6M2x4QdumKqsEOXLwo7QqKSDGPsUvTvVU/gF3BCyD+GFBVGSRAjqMSj0q5u+Fu3FrBgH13wkiBWIAL0w41zSQnxFs4JAFT04TdyGv8LkBbStn3ND/KJPCZCYOl1JMUf1f14A/lGfk1w6b6JQRMrKmIUuPtr/6MgLpQdysWVT4oeJ1q66nCM3/8WXDOu065P48e+F7Z/Ni1cP/LtykbLQq8FcfrrSdZ76wUx/CNtv08IyeSozbUxdmix82PslEh+CSGnFE6eQsg/Gf344m86IR5CSCvqJzL1gwo/hEpaKir7EFH6LvCmcZ2qd4MTOop3CwzCCteEbdyRw7afkqwCNTCEgYBJMmGo4fQY12X7fxCk7cvECUsVdCFDBSdyuD9LakpQ1mrYj487+qfzDlKDMkQZYeuvBccWb5jh+vAM4Lz+QwjJ7Khx8hRCYgMKO0IyAajYHzl8SLZu2Sw7d2yX3bt3ye5dO2TXzu2yc/t2OarCyJuJIa3cg717dsvBA/stjnBB4OP9O0B6TmwmmUjbv3eP7Nu79zhxclSvD8e4vh3bt0lifLxdtwmXIM9/Ou9akUHLIUQk4kSaB/bvk80bN5pbxDB/Bk0H+cV1Qjxu37rF0kkORKul9SeEpCtDh5VHyPS6NF644V7v07K1LrjwEyEeQkgmRI3CjpDYgMKOkMyA2qRJk6REiRJyycUXy0UXXCiXXKLbCy+Uyy67VBo0qC+ffTZB4lUMOUuTX39dIUWLFpWWLZ8wF4z5QtfAiPH/D4HIQIsjbKsKnfLly0vt2rWD1sUUEz1JiRA8Ir8s+lmvsbi88srLsnvnLnNHeC9UvLjB/h8BLXY+bBOuSoIAADMSSURBVIrGFXf0iHTu0kWqV6smS5cutbTD/f83WDr634IFC+SOqndYReqoppeWhtbXPye4cP0Qo9hH/BBxPy9coMJ+h2Udgq569WpSrlw5OXTwgLl5/4SQTI4ahR0hsQGFHSH/cOxvWm3UqJGSK1cuqV2rpjR/+GFp0vghpbE0a9pUbrjhBrn00kvljTf6ua6Lamj1at2qtQwcOMBEhRuj5rryhcd/DPjgR3L/PWQMa5UH14IFEYcuibt37ZIXnn9eunbt4lrPvGhTw7n6DzSQZs2ayYb16y2s70J5TLw+7oxuJwHXbGPSLE9oAEyWZ559VkqVKiXLly8zt4xhjPB0fk+aav56MKYFwrpz585OWCru3EniPMm58LAjR4yUkqVKyugPR6ubqKCPk86dOknHDh1MtMIv7rf3/4f4M2EIIdGLGoUdIbEBhR0hmQG1IYMHS64rrpBvv/3GjsNt5cpfpU6dOnL11QXk+8nfB67phslKjh1Xlm6hVqRIpu5OWAaV/RMY/JiQOIkfN4lK+HkVmyq2fL7QZXTChAly6OBBO4ZZK6MJlJObm0Qm/f0X/h70QiujtW/fXsqWKSPLlmVosYtgXihhG8JaxDJ2jUy3+fPnWUWqc5fOrvUMdoL4zf03ytDKOBDtKKdrriksP/zwgx1DNIZM9909O7EdI/B9Je84QzdPzXdYWRJCYhA1CLvixYtT2BES5VDYEZIZUPtw9Gi54vLLrculNy8yYHPnzpWrrrpKnmrd2o537twh7do9J0OHDtEKerKNa+vRo4cMHvy+LFm8WNq2aSODBg0MCatp06dJxw7tbfmUlk88IWPHjZX4o0f0TJokxB81Pwf279f0P5PHHnlEHmjQQDp27CDr1q6xc168YIxcj549rDXx4WbNrKVx165ddg5dCLuo0Bnwxhsm2PyYMwjTvn37yFOtWslzzz4r48aNk4MHD4Rauhb/skieeOJxWbjwJ1n480LLX+PGD8nAgf1l186dFoeVg/rF1rcGwh2gW2qXLl3kQc1zp9dek1mzZ8mLL70ot5crJytWrLBw8IexisOHD5eHtAweatRQevfqJUuXLNFzen1BWXuBhW6tR48c0mAonzj5ZOwn0urJJ+WRFs1ltN6r6TNmyO233S5du3a1skF42JLFv8jTTz8lDz7QQNro9vOJn8vhwxqPGu4TymXGjOnyyiuvSKOGD1rr7NixY1X4HpDU1FQT+Lfeeqvky5fPurW+9eYgOXzooPTUMkfZ4jr27N4lL3bsKJ9//pmW2QJ57rln7X4hzq1btpifhDjcU1fB+1nL9MUXO1p6jz36qHz11Zc24QvKBf78dVs5EUJiCzW22BESG1DYEZIZUBs9alQGYefEDCYDgR3Syv39998vtWrVkgMH9sv6dWtN6D2hIgh29MgRqVK5iomB6tWry7n/+Y911UQcH330oX30L8+ZUy684AK5IEcODZtH3nzzTRMw6EZ5QIXFk0+2lPz58svFF10k5593nlygfmvUqK7CTMWR2mIVjPfee6+NA0TX0AsvvEBy5bpCxdpzNvnL3j17pHSpUpbHhDg37m7atGmWJ/Ov8eW6Ipdcrtf50ssvOXGhNnXqD3LG6adL/fr3S00Nm/OyyyTH+edbPlq2bKnCUcWdCiyUFa7HhJSC/cVLFst997k8nX/e+ZI371VSoUIFqXpnVbn99ttlSSDcIDpbqyi++uqr5TKN/zy9PuTj5ptvkslTppgfK28F71kINQg8CM9+ffvKlVdeaflBGPwyXq3anXLdddeZsHMtamny6fjxUqZMGbtO5P/SSy6xe9ShQ4fQBDjDhg1TP2XlsqA8UM7w07t3L40nzYQeyiJ37isle7ZsJtggnDG+7uZbbrG8rV69yrqB3qnXeNddd7m49F78R+95/fr1ZcuWzXZPYeNUwBfXe4+xmhizCXLnzi3PqsA+cvhwaAIbE+H+eSSExA5qFHaExAYUdoRkBtQiCTv/945ugWjpefrpp020bNq0QdauXi1Fry8qrVq1Mt9HVNjVVlF03rnnyquvviJbN28ysTV79mwVLzfbhCVoJUM8mMnxqadaS8FCheTbb781QTF0yBATgx1f7CibN22UPbv3yCeffGKCBunuUWHUokULKVyosHz11Vd6vEe2bd0iT2r6EIrIN8Z/VaxYQRo++KDFuX/fPrnnnnukdOky8sWkSbJb48T4uubNH5YcF+SQD1VwwmbPniWXqGiC4OirIgqtgps0Dw83by6XqDhCCxcM3T3RAum7EKIlDXlC69bo0aM0/t2yQ8MiDgi9m2+6SUXpSgvbu09vE13ffPONJKPlLCnJxsmVUJEGcYRWMOTZixxsYd9887WJuYYNG8rKFSssjfnz50vlypUsb2/076++0mTVqpVSXsXX448/bn4Q/34t5xc7dpAcWj7ffPWlicXqNWpIkSJFZNqPP+r9OGgtohDLt912m4rQxeb2/vvvSzEVbu+8844J7r1ajshjvXr19NoTZd26NVKpUiUThp06dbLZVLdv3y4vvPCCZMua1Z4l2Pp16+QmLYNbVRDOmzvX7tkafW4ee+wxE4ITPh1v13zMs0gIiS3UKOwIiQ0o7AjJDKgdL+xc90c3KYhIggoaiDiItHXr1sqWzZvtQw4hgRYjdOXDOLwi111ngspb+w7tpVjxYlaJh0CaMd0xaNAgub7o9dKrV08TfBAXEEJoDfKWqCKwS9cu0rVLF/n+u28lvwqol1T4hRtExf333yefTfjUZodE98T6DRrYudmzZsoVV1wh/fr1s2Nva9eslltUbDyqAgPCYu6c2ZItWza7vrijrhUPNnLEcMmSJYuWzUg7tpY0LQ8TdnrNq1etkvz586tQbG7nvUHQ3nbbrTbpzCr1A4GFY4jMaT9O1eufZmUwa+YMafFICytTCB/rGqppQNSh2ySEWIf27W2GUpwPtxGat5w5c0rffn3teNDAAVJIhfLQIYNl5syZMm3qVI1/pnWVLVSwkIkutLQ20LLJe1Ve+frrr/WeujF1a1XcTfpiknUphaGr6vXXX28zpcIg7u6oWlUqlC+veUqx8itTprTUVaEHQeptyuTJ9gxhQhd063zrzTc1ravk888+C3w4QzpFilxnE9nYLJuBoA09j4SQ2EGNwo6Q2CCDsMN03vj4QtwRQv4xqEG8HN8VEyLGVf6xDtyDDRtaix262m3ZvMm6BD7zTFt9L6TYIuAN7r9f7rzzTvMLw+Qlj6hw+dcZZxgQSR508zv99NOlUaOG1q2zcuXK8tRTT4XG5GWc6APjyq699lpreUPeMPGJZtD2ve3dvVvKl7td6tWra8cjhw+31jwIKBjW4PPX+0CD+nJHlSp6mCyLfl5oXSP79e1j58yf2ldfTpLTTztNPhx9rLDDexD7U6ZMlmuuucZa6GAoL5+3du3ambBDi9iCBT9Z18UzTj/tmDLwoOVt/PjxFocJu0BMHz16SFqoaMSYty2bNuFs6H6glRHLU6ALZdzRw9LuueestQxlGh438n+GAvF5cP9+FV/fy/333Sd169aVBx94UF579RX57rvvbEkDWKoKyjFjxqjwul7Gjv3E3HA/cV/RSoiy2bh+vQnj5/Qacb/8TKloSUT30O7dulnXz/YqJtEddY0KQRgm2cG1HTlyyEQdusxCmMPc/Q57JgkhsYHa8cIOLfER/BJCTilZzsye3SY7MENlBhUXiDtCyD8HtVGjRsjll+e0li8zfQHg792LjJ3bt1mlvZ4KgsSEBNmgYuz664vI4088Zufj445IrZo1pZxW5A/scyIhKTFexcMD1or35sAB8sHwD2TI4Pdk8HvvyvBhQ01MTp8xTVatXCHlypU3YecmUkl17xq8iAJ77/33rBvmpIkTnYPl3Qkpb1iwG61KGAsIQxo5cpwv8+bOsmM3uyWEU7J116xSpbIdz50zS/79r3/LoAEDzJ8vky8nTZQzVJCOHPGBHSN8igobn7dZs2bKNYUL2yQodt7Cpdi4wZdeesmE3eqVv1qLYNGi1+u79CEZOniwDNFrGTZkiLWujRo5XMapgFq96lcTbSYOEY/GD4H4SIsWcqPGs2mjW6LBZv9UWzB/npQuXVq6de8mhw8dkCdbPmktoJgk5oNhw+SDoUO1rN/X7RD5ZMxHMn3aj5ovN+4QYgx5el/z8bwKwnr17pXGjRuHlmYYOXKEdcXE+DjYoQP7pWb16ibuUAbr1661tCHqkxI1zkCAL1Rhh5Y+tLAi71h6AqJ0lZYBLBWiVP0e2L9XmjRuYvFtU2HH7wohMYwa3ifFihW1H3XU0RHJLyHklEJhR0hmQO3DD0fLFVdcLl+omIlkH6hIwng3dAGErV2zyirxTwTCDi00NWvUkPLly8n+vbuDlqU0adWypRQsWFAOqzgIN3S5fPqp1jalPsa01VDhgHFbu3Tf244d26Rt26dVOPWWL7/4woTnq6+8HJx1Nn/uXAuLrp4HVTBUqKDC7r777Bxa6jBJC7p7hts664p5s7TW9GGzZ82Q008/Qwb0f8OOId5gkz6bYBOJjAqu2USuCq5kFax6gbJfBexNN90oDerXd10JA0tMOGoTyNxwowo7vc4N69dZ6yZmCs1oH344Sq+xjYqlNdZah3csWq8wY2haKiZO6W3j9ebPmROEcDZ27Mc2wQlEJcr61VdfluuKFJGVQXdKbzu2aRlqumM++lB++mm+1FfRO3HisV0jv5o0Sc4++2zp1bOHHWOym6J6bydO/NyOcT/vql1bqlatauJ1o14PhF2bp592LW14hlSwYQF4PBOvvKz3SI/ffustm8Dl0/HjLB5vK1csl1IlSpmYtNZdCMPw55EQEjuozTFhhxY7FXb2Qw//pgmJRijsCMkMqA0f/oHkyZNHhn8wTLarGEBLyvatm22LKe/z5MktLVo0l92YIVJt9aqVUuS6ItKmzdN2jGnra9esaa1gaJFxrVdpJq6uV8GBsCuWL5Vt27bKT/PnS/Vq1UwoTvn+exuP1bdPb5tVEcINQmjr5s3Sr19fufDCC6Vz59dtLNddd9WWAlcXUBH3qU3WsXHdOmudQ74xfg/dQW+79VYTL6hcHDywz0TX1QWutpZIhPlVRUWjhg1tlsyvv/rS8j5z+nQbYzcwEHb2nlP7YtLn1mLnhZ0TXfGG85Nmi6Fj8pSBA/rLts2bZOvWrdL59U5y0UUX2sQhWMcO1/f8889Lbr3eQQMHuvJVxoz5SPLmzWtLABzG8gshYYc0IC7TZJUKtRtvvNHGIP6yaKGK3R02fg4zfWICkp49nWhd8NM8E9B176lrSx4g/mVLl1h3y4tUGM7U8tm0Yb3kVHGMsYxopcTkMxB+fXu7sn9z0ECLCxPBFChQQN55+23Zt2+fCdhqd96pwu4OPZtqwg5r9LV5uo3rEqv5BD8vXGDjKbt162pdNtGyhwljSpQsaZO1oPzx3DRs+KBNCPPlF24MH1op+W0hJEZRY4sdIbEBJ08h5B+OmyrfTcaB2RP/c845NgU+OPec/8gFF+Qw4XLPPXVsan+ztDQVSCtMUGGGQxjWOkM3TIy9wmLgMP+++EDFIlpyzjn7bDlH47/k4kukpFb2R4wcIW4ikjSbTRITsWCyE4yLw+yaEF+IH2IGhrFqtWrXkotVqJxz9jkmRjDu7m0VIOheuGf3bildupRUVRFi0+erLVy40MbvQUjg2jCTI/L98ktY7sB1TcRkJhiP1qsHxofAXPfOTz4eY+4jVPTC0Cpn16TnXfxpslnFXLvn21m+zz7rLMt7mdKlpY6WF37B9mW2QUUV1saDP1e+58uVuXKZyAlfxBzxIg20Dvq0Jn3xhdx88y1y/vl6T/Sar9L836fitXDhwvJap05afC6/w4YOta6hWOoA14rlEVA+b6owd5YmQ4YOsa6xaAWEH8SHPDVs1MiNhdO4pqnQLVasuF07hDPKtYqWIbqWogww2yXGFj6h9yt8gXcsmo6ZRdEFE/HAMHHKDWXL6j27yMrnvPPOtTxi0heb/VNFL2YztfIMnklCSAyhxslTCIkNKOwI+YcDUYAuf9OnTZNnn3lGHn/sUVugG5X2Rx99VB59pIV8/MnHNtMjzK1rl2YLlGPGRixojTXLMLthn969rQUJM2giTj1hfpEO1orDRCAYM9ap02u24LkJGMVPCIIWnVGjR8lTrVuZ34EDB9oyB4jDujqqX8zg2LVLZ2napIm0bPmEfPnll5KS5FrYMA6wZ48eNqGIiQbNF9LAIuG9NW+IEy1n333/nezft9fixcyb6L7YrGlTmfw9ll5Avt16dQt+mm/rus2aMd3cvfhAnMCO1bCw+jvvvK3xPyytnmyp1zrVJlbprPnctHGDhnEVHbQ6Qlg9/vhjVsZYVmDrVizorUkGAtcvrJ4xjUWLFlnraNPGjaVPn96yfv166aVljclu3NhBzbfazJkz5Llnn7F8YzF2LDfh4lI/aijvadN+tJkrH330Eb3fj9nadpgQBwahjXuJ8XVYBB4zW8bFHdF720u6dH7d8oc1+V577TWbSRWCGvca8a5fv1ZefPHFYAIevWfqhnLE2L1Or71qC8q3bdvW0nfPkRvv569V/yGExBpqFHaExAYUdoT8w0HF23X7+w1Tv6j0w6+fUMUb3PykHjC8J+w4CGOiLJKpPy9iwlt+MprFoX6wbhy6fB5nwXVg0hJvOLb8huUr3CCGcB2IE+G9IR+Wn7C4YPBv1xVcD/Zd3iNdW1CxMXPCNlKcztJcHnSL+JAnn3cfBvvHW3oa4XmKZP68y8cJ7oW4e+XiCM+/K0tvTpCln8c5kLGcsVQDCLXGZTB/zQjrxR3yRwiJMdQo7AiJDSjsCMkE4O/a41u5vBhISlDRFuwD86db3THg5rfh4fyxiRXdh9DDhCA4H2qVCuKAm1X+g30NYGExe6U6htwxFgtT60NchMcFkeDDAwhNL9Dgx+IM3E3QIT/q5sMgPuwjDNaPw37oGoDFk+6mgcwP3MPTwD7ig6BBXJhQBv78MfKJ8BBrEKhoLUQ4nLNwQTzYR5583DiGfxwjPNwsXt3iGMLI58fnEeUDkYhz7rr8/Yy3rb9GhPHh4IbyNb8KtnY+yBvigj+cQ5y2H4SzsoW/YN/n3+cTZWZiH2567MomyFMQlwYghMQaahR2hMQGFHaEZCK8OPAiAFsvCnDe//1j6yvizn+6yPFufgt/Pi6LN9jiPCr4Lrw79mH8Fl38QuEsDrT8oOuoC+PFiT8PvJv3nx42PB639d0r/XVjGx4X8oFjnPNuaPFy6/sFcVg+Nc8hsZcu/LDcgy8b+A3FhW1wjShfv/VpAHU0d+D34Qf7Lm53nXZOQdwuT+nXCH8m+oJz/vp8fNj69ODPwqu7F6A4zugv0j78eUz0I0xwn7D1/pFPnLP8hwlOxOPTIYTEGGoUdoTEBhR2hGQi/vzf9+8Mhw9+2PHvSu8YP2H7GeLy/J44w/1g/49f9x/1f2J82n8037+JF1aRzkUg3O8fSudPYPH/j9MghPxNqEHYYUkXCjtCohsKO0IIIYQQEhk1ttgREhtQ2BFCCCGEkMioUdgREhtQ2BFCCCGEkMioUdgREhtQ2BFCCCGEkMioUdgREhtkOTN7dmncqJH7I01NlrSUJNsSQgghhJBMjtrcObNV2BWV7t26obLoiOSXEHJKMWHXvFkz+8Ol0Wg0Go1Go9HCbeGCn6RkqZLSrWtXPaKwIyRayXLuuedKg/r1ZdWqVbJk6WJZpixdgu0SQgghhBCSCVm+bInVB5evWC4fffSRFCteXHqgKyaWg6GwIyQqyXJhjhxSrlw5eefdd6Rzly7So0dP6dmrl/TsqWBLCCGEEEIyF717Sddu3aVvv77yXLt2kj9fPunbp4+KOoyxU2y9T0JINJHlnLPPlgceaCBbt22TDRvWy8aNG2zr9wkhhBBCSCZjA7YbZfPmzTJu/DhboLxHz56SmqIVSFiEiRsIIaeWLNmzZZMWDz/s/khpNBqNRqPRaLQwmz9/vpQsWVK6WVdMrUDCMlQoCSGnHjcrZrDcQUpyEv5S1T2FEEIIIYRkUlJTkiU+7qjVD+fOmyulVNh17dZN0lCBhGWoUBJCTj3WYtekcWP7G8UfMf6Yk5MSbRvukRBCCCGEZA58fRA2a/YsKVGihHRTYZeidUWzCGEIIaeWQNilL1AOcQcyeiSEEEIIIZkMtVmzZknRokWle48edmwWyS8h5JSS5awzzwx1xYQDW+oIIYQQQoihNmfuHJs8pTvG2NmsmNhE8EsIOaVQ2BFCCCGEkMioQdgVK1aMwo6QKIfCjhBCCCGEREaNwo6Q2IDCjhBCCCGEREaNwo6Q2CCDsMMUt5g4BeKOEEIIIYRkatSOF3ZKJL+EkFOKW8euUSP7wxUVdWkpSbYlhJCoAi8tSVWCSkV45SKS/78Kn06kc4QQ8k9Hbe6c2Srsikr3bt30CO9hJZJfQsgphcKOEBIVpCQl2PsHJCfGSVpyornb1ioSsFRJOHpEkhLi1E+8nnZrLJmpwEsNjyMhOB8m/Pw54NNLTkwI7afnwaUNfDo+XFoywsTbvv6j55LsPPzCLUnT9edD/hCX+g3lOYgb5xBeEzZ3XDf2QShc4C8c74YtwoXHSQghfylqc0zYocVOhR26fFHYERKVUNgRQqICiBMvXFKS3L4TLK6lDr8Yt2//gtxy881SuFAhyZsnj9SoUUM+/2yC7N61015hTvAlaDgXNjH+qIk1F5++38LSS1Z3iDBLU4+dvwQTX+ZHhVhC3BGpVu1OubdePRVbWOPT5y8hiCfF4kU8CfFHLE2LQ7H8K4jPp49zcIO/pHgVcZZuosQdPhQSffFHDltY5Al+cA3wh3MmAkP7rowQHvtwJ4SQvxw1ttgREhtw8hRCyCkH751w4AYggmCfffaZlL2hrOTKlUsqVqiggq66VKpYUW666Ua56MILpVatWrJ500bzm6hiKEnFHcRWCsSPxpeiggikqrhCvNj37vCLLdyxDz9INwVCTN0bPvigPNKiucsTTLcmEK17ZkooPOIL34fA9NcCt2QFccM90fLmjlPhV8WZiT/dh7vPB8ICnE9U0erjxtbihKiz/EK08t1NCPkfoMbJUwiJDSjsCCGnnHDBog7pokZtnlYoil5fVG684QYZN3584MfZrp075Pnnn5fzzz9Pmjd/WPbs3m1C6eSWJkkqiNBVM0FFIATXcaZxJMQdtTx5Q568IDuRoUUNghBpnMgg7LwAhDBD696JDH4g+E6cZlr6+QxlSgghfwlqFHaExAYUdoSQUw6ECYQThI46hLYQUg/p+ylv3rzy49Sp9pqy7o04j7BqCQkJ8tLLL0nOnJfJeBV+sAmffiqjRo2SHdu3y7ixY+WVl1+WAQP6yy+//GLh0tI0DRVXSGPfvr0y9cep0qNbN3mxY0d5681Bsv/AfosH6bw5aKAMGTLEBFS8ij3Y9h0a77hx0um116Rjhw7y2YQJEo+ulWopycmyYf066fdGP/l5wQJZsXy59OvbR/21l5EjRsjhQwdVfCIPqSERun79eumv+WuvIrVXzx4ybdo0OXLksF6rE7som6VLl8p7770nL7/0knTp/Lp8++23cvDgAb0EFXfqh+9uQsj/BDUKO0JiAwo7QsgpB+8d4AWKtUCpLV2yWAoXLixPP/20HaMLJMQVWrzQouYEoMjadWulVOlS8thjj6qfVGnV6kkpXrKEPPXUU3LNNddIlixZ5Oyzz5bixYvLRx99aH5gBw8ckOeefVby58snGG9s/s46S1q3bi1bt2yxvFyZK5eUKlHSxsjBILDq1a2rQjKnnPZ//2dhcl1xhbz66quyefNm8zN92o9y1VVXSbNmzaybKOL897//LRdecIG88MLzlq6ZXvt0FXHwc+aZ2eWMM063fFx33bXSs2dPiYtzYhFdUcuVKycX5LjA0jv99NPsugYPHqzl4fwgLkII+ctRo7AjJDagsCOEnHK8sPPADa1Zn302Qa5VAYMWM5hNPIKWvaArI/bR8gWhVrFSRbn1llvUPVnaPfecnPuf/0it2rXlu2+/kWUqxiZ//73cdNNNUrBgQVn56wo0dMm7774r5593ngrCx2TJ4l9k2bJlVnHJmjWrvNGvr8QfPSo33nijVNa4NVPW1fL559vJpZdcIn379LZ4EaZz586SL29e6WYTC4j8/PPPUqpUabns0kulY8eOsmTJEpk/f57Uu7ee5WvqDz+Yv43r10nNmrWkXr16smDBT7Jp0yYVs0vk4YcfNmE4ZfJka91rhuM8eWTEiOGyauVKm8igatU75NbbbpVFi362uJA/lBshhPylqFHYERIbUNgRQqICiDQ/aYi9h7TygO6URYoUkQkTPrVXFM5B0MEf/GDrx8g1bNhQSpcqJbt27pTn27WTf51xhowd+4md8zZp0iTJnz+/vP/++7J71y6pc08dqVKlimzZvCnwIXLgwH5p0by5tG/fXvbv3Ss3lC2rwq6SnYOIukGFXqvWrSwv3tByeO+998r1mte9e3bL0qVLrBJ03/33h2bshKHlDa17b731lgm2oSpY0SI5duxY646JLpwbNmyQiRMnWoscuoYeOLDPJospXKiwzNXKlbefVAgOHjxEheVS61oaXpaEEPKXoQZhhx4PFHaERDcUdoSQqMHEEvat4pAmk1TgFCpUSIYNG2qvKMFacCqi/IQhmPkSBoF3xx1VpHy5cno+Sdq2aWMtXstUYMG8+Pv554VSsmRJ6dOnj6xevcq6YL7w/PN2Duni/RfKg4LJVUqWKCFVKlc2L2M+HiMFChSQcePH2XFKStDCqDbozUFy7bXXmvj6eeFCuf766617Jq7DmgfVpk6dan7efvstiTt6VF7R8+ee+x/JljWrZM36b8mWLaucftppto8ul/erMDx06KB89eWXUqFCBanfoIE88eST8qamtWDBAknU64a5PFPcEUL+B6ixxY6Q2IDCjhByysF7J1xU+dawVat+lXz58sr9990XjDdzs0BC0MGPn3xkxYrlUrRoUWn9VGs7RotdXhV269ausWM3Fi9NFi5cIGXKlJG+ffvKwgU/yTlnny2dXoP4wmm3rAC23jB5C2bj9MJu5MiRcnnOnCa0YPDvhF2avPX223LdddfJ9OnTZJEKO7Q0dn79dc2nW8Qc9sPUH8zP+++/Z6LxyVZP2pp8GOeH7pwvduwgr7z8knTv1lUGvNFPxquAhGiFHTp0SL7++mvz16xpE6ldu7a0adtG1q5bp2fDZhIlhJC/EjUKO0JiAwo7Qsgpxws7P27OCTHX0taqVSvJdUUu68Z4jCGsVjAwq+Xjjz9u496mTP7eTj3Ttq1cfPHFJrLC7Ysvv7Cujx999JFs3rjRRB7WqTty+HDgQ6wrJSovQ4cNlUMHD8htt95qXTGRr7lz50qxosXktVdfdUIqZGk2Uco1Gvee3btMQCIdL+wwDhA2ZcoUG+P3zjtv27IInV7rJFdffbWsWvmrnfeGCWL69+9vQg5j/9q/8IJM/PzY68dxjhw5bGZOmE0IE1amhBDyl6BGYUdIbEBhRwiJCkLvHt1CNNmx2qpff5XKlStLmdKl5W0VRNu2bpHExERbXgBj2R5q1EjOOusseeaZtpKk7jAIu6z//re0eOQRW+IA69atXr1aatSoITfdeKNNWqKJSbt27WyB8/fee9eWTUCcmAAF78V+/fpquCQVckWl6h1VND+pEnfkiI3ly5cvn0yaNNFa3fbu3SPDhw83wdau3XOW/vx586zFroevBOG61H744QfrWjpo0EA7nqf+8l6VVxrUr2+zcCI9CMu2mv/zzz9fxo39RHZs3yaXqGi9oWwZWbtmjeUzOTlZRo8aJReosOvdq6fFBQEZSosQQv4q1CjsCIkNsmBq7cZaMTJL1cpUSpJtCSHk7yQ1WUVZ2LGNo7OWuzSZN3eu3HnnnXLllVfauDiMXytQIL+KqavNDV0ZDx9ySwhgxkx0xbxQBRsEYYkSxS0MWsYww+YIFWGagLWirVmzSu6pU8da+wrkz2+CDTNZYjkDTKiCCU4QBt0xU4NWxGk//ihly5a1ZRAwU2VBjRfxN9L36Nq1q80PZq1EXC++2FHFZnxwHSKTv/9OcufOLb1799KjNJv0pH//N2w8IGbVRIsfupAWLlzI1qpLOHrEwvXp28e6pMJP/nz57Vpw3ZUqVZRly5e6uMLKjhBC/jLU8E4rVqyodLeZf7UCCSL5JYScUijsCCFRQUpSgr1/woHYS4hz4mbb1s0myurff7/cUaWKVK92p7XSzZ83VxLj3cLhGpFqnBRp3aqVlCpZSuZpZQSiqGL58tK0SRP57ttvJVnTEUlR0eS6X65ft1Y6v95J6tx1l9SqWUO6du0sGzest3NHDh6Qp1q3lmfatJE0CE+r0Ij8NH++dOjYwfJQqXwF6dGjuxzYt9fOYRKTVStXSJMmjW15AhOE9ktamiz+ZZE0bdpUPsXkK5pP856cJN9+87U0bPigVKpQQUXlPTLh0/EqUONd2JRkOaz5mDjxc1unr1LFClLtzqo21g7LNgSRHFOWhBDyl6FGYUdIbEBhRwiJfiBcTmqp+u6C8EJXxBQTY4UKF5YNKtqOtwwVkhNZxvP+OBBkx5umHQrjBKCZdzP3oAsTLJLfYywsnyf0o+b9EELI/wK1OSbs0BVThR1+qMr4HiWERAUZxthhAgM9gYoLIYREHVqZ8JWKYB/dHG3WSZzHmZRkadnyCZslE+vCmak/+Dnx+y2IMxRvhnPHuQXuJwwTnP+j7r8nvpP6IYSQvxg1LOPiWuz8GDv3IxohJLrg5CmEkJgGgs1mqAzWisO4tTZPP20zXqZ3VXRLKPD9RgghfxA1Tp5CSGxAYUcIiUnwrnKCzh37fSyRsHXzZlmzerXEHT1i/rCMAs5hn+84Qgj5A6hR2BESG1DYEUJikozCDuLNC7iQBe5e0LHVjhBC/iBqFHaExAYUdoSQmMSLtXC8cAvf6k5on8KOEEL+IGoUdoTEBm5WzEDYhVeGfIWIEEKiGbyzwsVa+LuLQo4QQv4cvj4Imz1ntpQoUSJY7oDCjpBoJUv2bNmkWdOm7o8UFSD9gw1VhOyPlxBCYhVYJHdCCCG/idUFRWbOmmnCriuFHSFRjbXYPdKiufsjhaljKtaycweEEEIIISSzgYpiYLNmz5JSpUpJ9x499AjnsTm+UkkIObVkOe/cc6VG9ery/eTJMmHCBPnyyy9l0heT5Isvv5CJkyYSQgghhJBMxiTl00/Hy9fffCMDBw6Qa6+9Vnr17qN1R/TuorAjJBrJcuGFF0ilSpXk/fffky5dusgbb7whffr2kd69e0vffv0IIYQQQkgmoh/qgn36yKuvvqr1wn7y7LPPSIH8+a1+mJZCYUdItJIle/bs0qxZE/dHSqPRaDQajUajhdmc2bOldJnS0q17N607YkIVdNXEfAyEkGgiS7Zs2aTJQ43sDzfV1oFK1G0CDvR8EiGEEEIIyWQkJ8RbvRA2e/YsKV68mPXs0pOoMVo9kRASXWQ588zs0riRE3b4Q47kiRBCCCGEZC6sXqjmhF1x6d69m1YWVdRR2BESlbh17AJhBweKO0IIIYQQYqjNnTNbihUrGqxjR2FHSLSS5awzzwwtUI5fYbiYLyGEEEIIMdTmzJ2jwq6YdO/eHZVFc4volxBySqGwI4QQQgghkVGjsCMkNqCwI4QQQgghkVGjsCMkNqCwI4QQQgghkVGjsCMkNqCwI4T8M/hNw7pLx4c75p2n+yd7B/7W+/FE5/leJYTELGoUdoTEBhR2hJCYBO8qkJqSLClJibJpw3pZsnixLP5lkfy6YrksW7rEWL16lRw9cti949TS1H942KTEhNBxsu4nxseFzmEbbvCbgnWdNH1scd5vQVJCfChvCO/3kb9w//4cIYREPWoQdm65Awo7QqIZCjtCSEwCcZSsgknS0iRRBVX79h0kR44ckj1bNsmWNatgKZf/y5JFzs9xvjRt2lSmTJ4sycnJkqrvOC+wILh8XABuyUkJYemkyeZNG+WHKVNk29YtFg54YWZxeKEWvDux7+OHiDzGTdMLD08IIVGPGlvsCIkNKOwIITEJ3lUQdmk4VmvV6kkpePXV0u655+SVl1+WTq+9Kq+99po827atFClSRHLmzCkTJkwwvwgD4WUtbL6SolvEaSD+IN7Ro0dLrly5ZPSHH9oxWvTCW+58Pnz4xIQ4JGBi0wtHuGN7jOgL3AghJKpRo7AjJDagsCOExCR4V1nLV2B4j914442yf//+wCXdpk79QYoXKy4VKlaU7du3OUfEcwJLhWjDu1Bt3Lhxcs0118i48ePsONmLspAgPNbSUpMlKSkhPW/HpYNwSti1EEJI1KJGYUdIbEBhRwiJSUzYQYAF1rz5w1KqVCnZuGGDHaMVzVrI4F9t9KiRcvElF8vYsZ/YMWz9urXSp08fqVOnjpS7/Xa5++67Zfyn42X/vr12/r333pWSJUpIriuuUGFYVDp06CB797pz8NNbw95RpYpSWZ55pq3MnDlDz6S51jzN386dO2Tw4MFSo0Z1qVChvDz66CMmFOOOHrE4Ml4TIYREHWoUdoTEBlkwDqVxo0bujzRVK0EpqJBgvAghhEQ3eF+lBjz22KNStmxZ2bh+vb7bkvV0op23d5oaJlUpXbq0vPjii+qWIps2bpD777tPLrvsMilUsKB147wqT27Jmzev9OndW1JTU6VXr152jG6cl116qYrH5rJvzy7Zs3uXirRHJU+ePFK4UCEpXLiQ+rtKihYtKuPHjbX0Dh86IA83ayq5c19p568rcp3kz5/P0ho+/APLo17EcddECCFRhdrcObNV2BWV7t26ufcW312ERCUUdoSQmCRdtLlKRpMmja3FbvPGjc5N/SQnxoeEHYRcxQoV5YmWLc3t22++VjFXUDq0f0EOHTwgKSr2Nq5bK3fccYdUrVpVdu7cbuJu9MiRJvrGjPnQ/CBs1y6dTei99eYgiT9y2LpnTps21cbyVapYUXbv2iHz5s6xLpwtHmkhu3fusDzMnjVDbr/9dnV7RBLiXKudzdKJPGa4PkIIiQrUKOwIiQ0o7AghMQneVSk2gyXGu6VKo0YNpUyZ0rJ5k+uKaUsMYPIS+FdDt8ty5crJo489JnFHDsn2bVu0sjInmEDF2ZLFv8g9detK5cqVZMP6deY25qMP5WoVdmPHupa4Q4cOSskSxa175ZHDh9Qlzb031YYOGWItfF9/9aWsXPmrCT2IRMQL8Qdb+esKmTt3tgk7dBVF+mhd9NfEdzAhJKpQm2PCDl0xVdihyxeFHSFRSYYxdpgRTk+gokQIIVGPVi6skpFm3STLlC4jW7dssdcZ1qRDa5iJO7XFixfbOkxtnn7aZrWELVjwk3R5vZM8+cTj8kzbNtKmbVu55ZZbpEbNGrJ27Rrz8/HHYyR//vzyyccf2/G8eXOlRIkS1k0ThuUT4o+6dfIW/jRfzj/vPJuVE/bFxInSoH59qVuvntx9V21p/8IL8t133+oZN4Omm5kzTt/FKub0etxsmXwHE0KiCLW5NsYOLXZ+jB0mgIrglxBySuHkKYSQGAXiSIUbWrn0vfXYY4/ZGLotmzfpy8z5wQQqXsSNHz9OsmXLaq1qsKHDhsmtt94m7dq1k+EfDLNJTRYtWiQPPvigVKtWLSQQR44caS1vn346Xo/SZNnSpSbsnleR5ixNUlP0van2w5TJ1kWzt4q+NM0fbN++vTJr5gwVhp9I586vy8033yItWz4hhw6itQ8/sLn19HANNtELIYREE2qcPIWQ2IDCjhASk/gWL7/mXPMWLaRsmTKye/du9z4Lsy1bNkuDBg2kTJmyKvw2S0J8nNSqXVtF1s2yfcf2wJfIrp07pFatWtZ9cu/ePeY2atRIKVy4sHz++ed2fPTwIZsJs1SpkrJ5E0SkM6xb9/LLL8t1114rCxcukLffelOqVKksy5ctDXw4g5C87NLLrBuoa6lza+r567JlEoJ9Qgg55ahR2BESG1DYEUJiEgigZIyx00oGhFGzZs2kRIniMmnSJPll0SL5eeFC+eWXX2TqD1OkXt26cvHFF8mwoa617uCB/SrqbrJZLCd8+ql10/xx6g/y+BNPSIH8+W2CE3S5xGQpn3zyseTNl1e6de0q69evsxZCLJmQL18+ebJlS1m44CdZtmyZ9O3b17ph3nPPPZqvJBk3bqzkyJFDGjVqZH4WL15k3TDLly9vXTsXL/7lmGvhu5cQEpWoUdgREhtQ2BFCYhurZKTJ448/Lqf932nyf1mySBbFb7Nnz2YLl0N4HTiwT4OghSxZPh4zxiZF8f4KFMhvEwP06d1LsmbNKndWqyb79++TX1csl+uuu8781KxZU3bv2iWJiQkyaOBAyZ8vv7ln+3dWWxLh7jp3y8+LfrbX6cGDB+Tll1+SAprGaaf9n5x+xumC9y26cY4YMcLEH2bdRHdR/971LXiEEBI1qFHYERIbUNgRQmIbVDJ0+9VXX9pU3N26dtFtV9vv0rmzvPFGP1m+fJl7x6lhzTtvU6ZMlq7qv/Prr8v3339nblijbsCA/jZpSkJ8vEadIlMmT5bXXnlFxn7ySdji4ikWBksfdO7Uyc7t2rXTncJ7VA0CcMaMGdKzRw/L17vvvCM/zZ8PH3beZsXEGMDgWijsCCFRhxqEHSaforAjJLqhsCOE/DP4PXaM/6BycoxldMNxBLeTpXdMGieyIA7zE7ZPCCHRhhpb7AiJDSjsCCGEEEJIZNQo7AiJDSjsCCGEEEJIZNQo7AiJDSjsCCGEEEJIZNQo7AiJDTIIuxR1wxpKEHeEEEIIISRTo3a8sFMi+SWEnFKynJk9uzRu1Mj+cEVFXRpmjIO4I4QQQgghmRu1uXNmq7ArarMNq6Mjkl9CyCklS7asWaVpk8b2h2tqTx2TE+OP80gIIYQQQjIH+KHf6oNqs2fNkqJFi0rvXr0kJTlRXSjsCIlGsmTPlk2aNW1if7i2hpI6puofbTLWVsrgmRBCCCGE/LPxog71QdjcOXOkZImS0qN7d9ezi8KOkKjExtg1aezG2GGxXLF+06mSkpSof7z44yaEEEIIIZkFqw9iMoZgopRZs2ZKieLFpat1xQwsbMIGQkh0EHTFdC12NBqNRqPRaDRauC1atEjKlCkjPXv2lDRUIGEZKpSEkFOPtdhB2C1fsULGjv1Evvhikm7Hyvjx42TChAmEEEIIISST8emnnyrjZeKkSSboChYsKF26dnUVSAo7QqKSLJfnzCn33XufNG/eXHLlyiX58+eXPHnyGFcRQgghhJBMR/58+aXg1VdL3rx5JXfu3HLRhRdIp06vy9EjRyjsCIlSssyfN1fWrVklP06dKh+PGSMff/xxaDv2k08IIYQQQkgm5ONPPpZx49CLa7yMGDlCli1bKil+/B0hJMpIlf8Hu4QuBYYBzd0AAAAASUVORK5CYII=;clipPath=inset(0.5% 24.67% 0.5% 0%);" vertex="1" parent="1">
          <mxGeometry x="1010" y="168.39" width="346.27" height="153.22" as="geometry" />
        </mxCell>
        <mxCell id="__vURdTV-2RYgOJ8vVm3-115" value="" style="curved=1;endArrow=classic;html=1;rounded=0;strokeColor=#99CCFF;fillColor=#CCE5FF;exitX=1;exitY=0.5;exitDx=0;exitDy=0;entryX=0;entryY=0.5;entryDx=0;entryDy=0;shadow=1;" edge="1" parent="1" source="__vURdTV-2RYgOJ8vVm3-50" target="__vURdTV-2RYgOJ8vVm3-62">
          <mxGeometry width="50" height="50" relative="1" as="geometry">
            <mxPoint x="290" y="100" as="sourcePoint" />
            <mxPoint x="340" y="50" as="targetPoint" />
            <Array as="points">
              <mxPoint x="370" y="120" />
              <mxPoint x="380" y="40" />
            </Array>
          </mxGeometry>
        </mxCell>
        <mxCell id="__vURdTV-2RYgOJ8vVm3-116" value="" style="curved=1;endArrow=classic;html=1;rounded=0;strokeColor=#99CCFF;fillColor=#CCE5FF;exitX=1;exitY=0.75;exitDx=0;exitDy=0;entryX=0;entryY=0.5;entryDx=0;entryDy=0;shadow=1;" edge="1" parent="1" source="__vURdTV-2RYgOJ8vVm3-62" target="__vURdTV-2RYgOJ8vVm3-65">
          <mxGeometry width="50" height="50" relative="1" as="geometry">
            <mxPoint x="585" y="80" as="sourcePoint" />
            <mxPoint x="635" y="30" as="targetPoint" />
            <Array as="points">
              <mxPoint x="635" y="80" />
              <mxPoint x="585" y="30" />
            </Array>
          </mxGeometry>
        </mxCell>
        <mxCell id="__vURdTV-2RYgOJ8vVm3-44" value="" style="html=1;shadow=0;dashed=0;align=center;verticalAlign=middle;shape=mxgraph.arrows2.twoWayArrow;dy=0.57;dx=22.67;fillColor=#0066CC;strokeColor=#99CCFF;" vertex="1" parent="1">
          <mxGeometry x="530" y="220" width="90" height="40" as="geometry" />
        </mxCell>
        <mxCell id="__vURdTV-2RYgOJ8vVm3-131" value="" style="curved=1;endArrow=classic;html=1;rounded=0;strokeColor=#99CCFF;fontFamily=Courier New;fontSize=11;fontColor=#FFFFFF;fillColor=#CCE5FF;exitX=0;exitY=0.5;exitDx=0;exitDy=0;entryX=1;entryY=0.5;entryDx=0;entryDy=0;shadow=1;" edge="1" parent="1" source="__vURdTV-2RYgOJ8vVm3-100" target="__vURdTV-2RYgOJ8vVm3-108">
          <mxGeometry width="50" height="50" relative="1" as="geometry">
            <mxPoint x="350" y="470" as="sourcePoint" />
            <mxPoint x="400" y="420" as="targetPoint" />
            <Array as="points">
              <mxPoint x="630" y="440" />
              <mxPoint x="610" y="410" />
            </Array>
          </mxGeometry>
        </mxCell>
        <mxCell id="__vURdTV-2RYgOJ8vVm3-132" value="" style="curved=1;endArrow=classic;html=1;rounded=0;strokeColor=#99CCFF;fontFamily=Courier New;fontSize=11;fontColor=#FFFFFF;fillColor=#CCE5FF;entryX=1;entryY=0.5;entryDx=0;entryDy=0;exitX=0;exitY=0.75;exitDx=0;exitDy=0;shadow=1;" edge="1" parent="1" source="__vURdTV-2RYgOJ8vVm3-108" target="__vURdTV-2RYgOJ8vVm3-113">
          <mxGeometry width="50" height="50" relative="1" as="geometry">
            <mxPoint x="340" y="460" as="sourcePoint" />
            <mxPoint x="390" y="410" as="targetPoint" />
            <Array as="points">
              <mxPoint x="370" y="450" />
              <mxPoint x="320" y="400" />
            </Array>
          </mxGeometry>
        </mxCell>
        <mxCell id="__vURdTV-2RYgOJ8vVm3-133" value="" style="strokeWidth=2;html=1;shape=mxgraph.flowchart.annotation_2;align=left;labelPosition=right;pointerEvents=1;shadow=1;strokeColor=#CC0000;fontFamily=Courier New;fontSize=11;fontColor=#FFFFFF;fillColor=#FF6666;rotation=-180;" vertex="1" parent="1">
          <mxGeometry x="800" y="370" width="70" height="160" as="geometry" />
        </mxCell>
        <mxCell id="__vURdTV-2RYgOJ8vVm3-135" value="" style="curved=1;endArrow=classic;html=1;rounded=0;strokeColor=#CC0000;fontFamily=Courier New;fontSize=11;fontColor=#FFFFFF;fillColor=#CCE5FF;exitX=0;exitY=0.5;exitDx=0;exitDy=0;exitPerimeter=0;shadow=1;" edge="1" parent="1" source="__vURdTV-2RYgOJ8vVm3-133">
          <mxGeometry width="50" height="50" relative="1" as="geometry">
            <mxPoint x="930" y="450" as="sourcePoint" />
            <mxPoint x="1000" y="210" as="targetPoint" />
            <Array as="points">
              <mxPoint x="980" y="420" />
              <mxPoint x="940" y="200" />
            </Array>
          </mxGeometry>
        </mxCell>
      </root>
    </mxGraphModel>
  </diagram>
</mxfile>
